<svg width="20" height="20" viewBox="0 0 20 20" fill="none" xmlns="http://www.w3.org/2000/svg">
<path d="M9.99935 1.66663C14.6017 1.66663 18.3327 5.39758 18.3327 9.99996C18.3327 14.6023 14.6017 18.3333 9.99935 18.3333C5.39697 18.3333 1.66602 14.6023 1.66602 9.99996C1.66602 5.39758 5.39697 1.66663 9.99935 1.66663ZM10.1324 13.3333C8.43627 13.3333 6.9092 14.0572 5.84332 15.213C6.98301 16.1228 8.42768 16.6666 9.99935 16.6666C11.6406 16.6666 13.1433 16.0735 14.3048 15.09C13.2457 14.0061 11.7676 13.3333 10.1324 13.3333ZM9.99935 3.33329C6.31745 3.33329 3.33268 6.31806 3.33268 9.99996C3.33268 11.5088 3.83393 12.9005 4.67899 14.0178C6.04634 12.57 7.98388 11.6666 10.1324 11.6666C12.2028 11.6666 14.0771 12.5055 15.4342 13.8618C16.2098 12.7722 16.666 11.4394 16.666 9.99996C16.666 6.31806 13.6813 3.33329 9.99935 3.33329ZM9.99935 4.16663C11.8403 4.16663 13.3327 5.65901 13.3327 7.49996C13.3327 9.34088 11.8403 10.8333 9.99935 10.8333C8.1584 10.8333 6.66602 9.34088 6.66602 7.49996C6.66602 5.65901 8.1584 4.16663 9.99935 4.16663ZM9.99935 5.83329C9.07885 5.83329 8.33268 6.57948 8.33268 7.49996C8.33268 8.42046 9.07885 9.16663 9.99935 9.16663C10.9198 9.16663 11.666 8.42046 11.666 7.49996C11.666 6.57948 10.9198 5.83329 9.99935 5.83329Z" fill="black"/>
</svg>
