<svg width="60" height="60" viewBox="0 0 60 60" fill="none" xmlns="http://www.w3.org/2000/svg">
<path d="M46.875 18.0469H30.7031V13.7672C32.8266 13.4297 34.4531 11.5922 34.4531 9.375C34.4531 6.91875 32.4562 4.92188 30 4.92188C27.5438 4.92188 25.5469 6.91875 25.5469 9.375C25.5469 11.5922 27.1734 13.4297 29.2969 13.7672V18.0469H13.125C8.60156 18.0469 4.92188 21.7266 4.92188 26.25V46.875C4.92188 51.3984 8.60156 55.0781 13.125 55.0781H46.875C51.3984 55.0781 55.0781 51.3984 55.0781 46.875V26.25C55.0781 21.7266 51.3984 18.0469 46.875 18.0469ZM26.9531 9.375C26.9531 7.69688 28.3219 6.32812 30 6.32812C31.6781 6.32812 33.0469 7.69688 33.0469 9.375C33.0469 11.0531 31.6781 12.4219 30 12.4219C28.3219 12.4219 26.9531 11.0531 26.9531 9.375ZM53.6719 46.875C53.6719 50.625 50.625 53.6719 46.875 53.6719H13.125C9.375 53.6719 6.32812 50.625 6.32812 46.875V26.25C6.32812 22.5 9.375 19.4531 13.125 19.4531H46.875C50.625 19.4531 53.6719 22.5 53.6719 26.25V46.875Z" fill="#474747"/>
<path d="M39.0844 23.6719L35.3344 27.4219H24.6656L20.9156 23.6719H14.7094L10.5469 27.8344V45.2906L14.7094 49.4531H45.2906L49.4531 45.2906V27.8344L45.2906 23.6719H39.0844ZM48.0469 44.7094L44.7094 48.0469H15.2906L11.9531 44.7094V28.4156L15.2906 25.0781H20.3344L24.0844 28.8281H35.9156L39.6656 25.0781H44.7094L48.0469 28.4156V44.7094Z" fill="#474747"/>
<path d="M18.2529 38.8781L19.2467 39.8719L22.4998 36.6187L25.7529 39.8719L26.7467 38.8781L22.4998 34.6312L18.2529 38.8781Z" fill="#474747"/>
<path d="M33.2529 38.8781L34.2467 39.8719L37.4998 36.6187L40.7529 39.8719L41.7467 38.8781L37.4998 34.6312L33.2529 38.8781Z" fill="#474747"/>
</svg>
