<svg width="60" height="60" viewBox="0 0 60 60" fill="none" xmlns="http://www.w3.org/2000/svg">
<g clip-path="url(#clip0_206_1726)">
<path d="M3.60156 32.1476C3.60156 34.1307 5.21512 35.7442 7.19816 35.7442C9.18121 35.7442 10.7948 34.1306 10.7948 32.1476C10.7948 31.8812 10.7648 31.6218 10.7096 31.3718L15.8768 28.7838C16.537 29.5486 17.5121 30.034 18.5991 30.034C21.3892 30.034 23.1181 26.9779 21.6842 24.591L28.159 18.1052C29.6437 18.9936 31.5681 18.7008 32.7224 17.3634L37.8897 19.9515C37.3915 22.2082 39.1202 24.3239 41.4012 24.3239C44.5115 24.3239 46.1566 20.6174 44.0642 18.3123L51.6018 6.9866C53.9451 7.81887 56.3989 6.06633 56.3989 3.59672C56.3988 1.61355 54.7853 0 52.8021 0C50.819 0 49.2055 1.61355 49.2055 3.5966C49.2055 4.5252 49.5593 5.37281 50.1393 6.0116L42.6017 17.3373C41.2204 16.8466 39.6624 17.2413 38.6789 18.3807L33.5117 15.7927C33.5669 15.5427 33.5969 15.2834 33.5969 15.017C33.5969 13.0338 31.9833 11.4204 30.0003 11.4204C27.2112 11.4204 25.4808 14.4757 26.9152 16.8634L20.4405 23.3491C17.7599 21.745 14.406 24.1252 15.0879 27.213L9.92066 29.801C7.75363 27.2909 3.60156 28.8182 3.60156 32.1476ZM52.8021 1.75781C53.8161 1.75781 54.6409 2.5827 54.6409 3.5966C54.6409 4.61051 53.8161 5.43539 52.8021 5.43539C51.7882 5.43539 50.9634 4.61051 50.9634 3.5966C50.9634 2.5827 51.7881 1.75781 52.8021 1.75781ZM41.4012 18.8884C42.4151 18.8884 43.24 19.7133 43.24 20.7272C43.24 21.7411 42.4151 22.566 41.4012 22.566C40.3873 22.566 39.5624 21.7411 39.5624 20.7272C39.5624 19.7133 40.3872 18.8884 41.4012 18.8884ZM30.0002 13.1782C31.0141 13.1782 31.8389 14.0031 31.8389 15.017C31.8389 16.0309 31.0141 16.8558 30.0002 16.8558C28.9862 16.8558 28.1614 16.0309 28.1614 15.017C28.1614 14.0031 28.9861 13.1782 30.0002 13.1782ZM18.5991 24.5985C19.613 24.5985 20.4379 25.4234 20.4379 26.4373C20.4379 27.4512 19.613 28.2761 18.5991 28.2761C17.5852 28.2761 16.7603 27.4512 16.7603 26.4373C16.7603 25.4234 17.5852 24.5985 18.5991 24.5985ZM7.19816 33.9865C6.18426 33.9865 5.35937 33.1616 5.35937 32.1477C5.35937 31.1338 6.18426 30.3089 7.19816 30.3089C8.21207 30.3089 9.03695 31.1338 9.03695 32.1477C9.03695 33.1616 8.21219 33.9865 7.19816 33.9865Z" fill="#474747"/>
<path d="M58.4432 58.2423H57.3556V38.929C57.3556 38.4435 56.9622 38.0501 56.4767 38.0501C55.9912 38.0501 55.5978 38.4435 55.5978 38.929V58.2423H50.0069V14.4551H55.5978V34.8275C55.5978 35.313 55.9912 35.7064 56.4767 35.7064C56.9622 35.7064 57.3556 35.313 57.3556 34.8275V14.3112C57.3556 13.4213 56.6315 12.6973 55.7417 12.6973H49.8631C48.9732 12.6973 48.2492 13.4214 48.2492 14.3112V58.2423H45.9547V31.5219C45.9547 30.632 45.2307 29.908 44.3409 29.908H43.4524C42.9669 29.908 42.5735 30.3014 42.5735 30.7869C42.5735 31.2724 42.9669 31.6658 43.4524 31.6658H44.197V58.2423H38.6062V31.6658H39.3508C39.8363 31.6658 40.2297 31.2724 40.2297 30.7869C40.2297 30.3014 39.8363 29.908 39.3508 29.908H38.4622C37.5723 29.908 36.8484 30.6321 36.8484 31.5219V58.2423H34.5539V25.7619C34.5539 24.872 33.8298 24.1481 32.94 24.1481H27.0614C26.1714 24.1481 25.4476 24.8721 25.4476 25.7619V58.2423H23.153V37.2321C23.153 36.3422 22.4289 35.6182 21.5391 35.6182H15.6605C14.7706 35.6182 14.0466 36.3423 14.0466 37.2321V58.2423H11.7521V42.9422C11.7521 42.0523 11.0281 41.3284 10.1383 41.3284H4.25914C3.36922 41.3284 2.64523 42.0524 2.64523 42.9422V58.2423H1.55762C1.07211 58.2423 0.678711 58.6357 0.678711 59.1212C0.678711 59.6067 1.07211 60.0001 1.55762 60.0001H58.4434C58.9289 60.0001 59.3223 59.6067 59.3223 59.1212C59.3223 58.6357 58.9288 58.2423 58.4432 58.2423ZM4.40305 58.2423V43.0862H9.99383V58.2423H4.40305ZM15.804 58.2423V37.3759H21.3949V58.2423H15.804ZM27.205 58.2423V25.9059H32.7958V58.2423H27.205Z" fill="#474747"/>
</g>
<defs>
<clipPath id="clip0_206_1726">
<rect width="60" height="60" fill="white"/>
</clipPath>
</defs>
</svg>
