<svg width="20" height="20" viewBox="0 0 20 20" fill="none" xmlns="http://www.w3.org/2000/svg">
<path d="M16.6667 18.3334H3.33333C2.8731 18.3334 2.5 17.9603 2.5 17.5V2.50002C2.5 2.03979 2.8731 1.66669 3.33333 1.66669H16.6667C17.1269 1.66669 17.5 2.03979 17.5 2.50002V17.5C17.5 17.9603 17.1269 18.3334 16.6667 18.3334ZM15.8333 16.6667V3.33335H4.16667V16.6667H15.8333ZM5.83333 5.00002H9.16667V8.33335H5.83333V5.00002ZM5.83333 10H14.1667V11.6667H5.83333V10ZM5.83333 13.3334H14.1667V15H5.83333V13.3334ZM10.8333 5.83335H14.1667V7.50002H10.8333V5.83335Z" fill="black"/>
</svg>
