<svg width="40" height="40" viewBox="0 0 40 40" fill="none" xmlns="http://www.w3.org/2000/svg">
<path d="M37.0656 9.31375C36.7806 8.4925 36.355 7.725 35.8013 7.035L33.9256 4.68375C32.8119 3.29562 31.1537 2.5 29.3756 2.5H26.2506C25.9075 2.5 25.59 2.59938 25.3131 2.76062C24.6687 1.14562 23.0925 0 21.2506 0H6.25C3.8375 0 1.875 1.96312 1.875 4.375V24.375C1.875 26.5744 3.50812 28.395 5.625 28.7V30C5.625 31.0338 6.46625 31.875 7.5 31.875H12.5C13.5337 31.875 14.375 31.0338 14.375 30V28.75H17.5V30C17.5 35.5137 21.9862 40 27.5 40C30.1731 40 32.6831 38.9581 34.5662 37.0675C36.4581 35.1825 37.5 32.6731 37.5 30V11.875C37.5 10.9994 37.3537 10.1375 37.0656 9.31375ZM26.25 3.75H29.375C30.7719 3.75 32.075 4.37563 32.9487 5.465L34.825 7.81625C35.29 8.39563 35.6463 9.0375 35.885 9.72563C36.1275 10.4175 36.25 11.1406 36.25 11.875V22.5H33.75C33.0606 22.5 32.5 21.9394 32.5 21.25V15C32.5 14.8337 32.4344 14.675 32.3169 14.5581L28.5669 10.8081C28.4494 10.6906 28.2906 10.625 28.125 10.625H26.2387C26.0781 10.625 25.9263 10.5619 25.8106 10.4475C25.6906 10.3287 25.6244 10.17 25.6244 10V4.375C25.6244 4.03 25.9056 3.75 26.25 3.75ZM21.875 28.7C23.9919 28.395 25.625 26.5744 25.625 24.375V11.765C25.8213 11.8337 26.0287 11.875 26.25 11.875H27.8662L31.25 15.2587V21.25C31.25 22.4119 32.05 23.3819 33.125 23.6613V30C33.125 31.5012 32.5394 32.9137 31.4769 33.9769C30.4137 35.0394 29.0019 35.625 27.5 35.625C24.3988 35.625 21.875 33.1019 21.875 30V28.7ZM3.125 24.375V4.375C3.125 2.65188 4.52688 1.25 6.25 1.25H21.25C22.9731 1.25 24.375 2.65188 24.375 4.375V24.375C24.375 26.0981 22.9731 27.5 21.25 27.5H6.25C4.52688 27.5 3.125 26.0981 3.125 24.375ZM13.125 30C13.125 30.3506 12.8506 30.625 12.5 30.625H7.5C7.14937 30.625 6.875 30.3506 6.875 30V28.75H13.125V30ZM33.6825 36.1838C32.0344 37.8387 29.8388 38.75 27.5 38.75C22.675 38.75 18.75 34.825 18.75 30V28.75H20.625V30C20.625 33.7906 23.7094 36.875 27.5 36.875C29.3356 36.875 31.0613 36.1594 32.3606 34.8606C33.66 33.5612 34.375 31.835 34.375 30V23.75H36.25V30C36.25 32.3375 35.3387 34.5331 33.6825 36.1838Z" fill="#858585"/>
<path d="M13.7496 26.25C15.3571 26.25 16.9115 25.7819 18.244 24.8956C18.5315 24.7044 18.6096 24.3162 18.4184 24.0287C18.2271 23.7412 17.8403 23.6625 17.5515 23.8544C16.424 24.6038 15.1096 25 13.749 25C9.9584 25 6.87402 21.9156 6.87402 18.125C6.87402 14.3344 9.9584 11.25 13.749 11.25C17.5396 11.25 20.624 14.3344 20.624 18.125C20.624 19.5756 20.1784 20.9625 19.3353 22.135C19.134 22.415 19.1978 22.8056 19.4778 23.0075C19.7584 23.2094 20.149 23.1462 20.3503 22.865C21.3471 21.4781 21.874 19.8394 21.874 18.125C21.874 13.645 18.229 10 13.749 10C9.26902 10 5.62402 13.645 5.62402 18.125C5.62402 22.605 9.26965 26.25 13.7496 26.25Z" fill="#858585"/>
<path d="M18.3653 17.548L15.0797 16.1793L15.6147 13.2368C15.6622 12.9743 15.5384 12.7105 15.3059 12.5799C15.074 12.4499 14.784 12.4812 14.5847 12.658L8.95966 17.658C8.79903 17.8012 8.72341 18.0162 8.75841 18.228C8.79403 18.4405 8.93591 18.6193 9.13466 18.7018L12.4203 20.0705L11.8853 23.013C11.8378 23.2755 11.9615 23.5393 12.194 23.6699C12.5509 23.8468 12.7984 23.6962 12.9153 23.5918L18.5403 18.5918C18.7009 18.4487 18.7765 18.2337 18.7415 18.0218C18.7059 17.8093 18.564 17.6305 18.3653 17.548ZM13.439 21.4537L13.7397 19.7993C13.7922 19.5105 13.6359 19.2237 13.3653 19.1105L10.534 17.9305L14.0609 14.7955L13.7603 16.4499C13.7078 16.7387 13.864 17.0255 14.1347 17.1387L16.9659 18.3187L13.439 21.4537Z" fill="#858585"/>
<path d="M8.75 8.75H18.75C19.095 8.75 19.375 8.47062 19.375 8.125V3.75C19.375 3.40438 19.095 3.125 18.75 3.125H8.75C8.405 3.125 8.125 3.40438 8.125 3.75V8.125C8.125 8.47062 8.405 8.75 8.75 8.75ZM9.375 4.375H18.125V7.5H9.375V4.375Z" fill="#858585"/>
<path d="M6.25 8.75C6.595 8.75 6.875 8.47062 6.875 8.125V3.75C6.875 3.40438 6.595 3.125 6.25 3.125C5.905 3.125 5.625 3.40438 5.625 3.75V8.125C5.625 8.47062 5.905 8.75 6.25 8.75Z" fill="#858585"/>
<path d="M21.25 8.75C21.595 8.75 21.875 8.47062 21.875 8.125V3.75C21.875 3.40438 21.595 3.125 21.25 3.125C20.905 3.125 20.625 3.40438 20.625 3.75V8.125C20.625 8.47062 20.905 8.75 21.25 8.75Z" fill="#858585"/>
<path d="M27.5 7.5C27.8452 7.5 28.125 7.22018 28.125 6.875C28.125 6.52982 27.8452 6.25 27.5 6.25C27.1548 6.25 26.875 6.52982 26.875 6.875C26.875 7.22018 27.1548 7.5 27.5 7.5Z" fill="#858585"/>
<path d="M30 7.5C30.3452 7.5 30.625 7.22018 30.625 6.875C30.625 6.52982 30.3452 6.25 30 6.25C29.6548 6.25 29.375 6.52982 29.375 6.875C29.375 7.22018 29.6548 7.5 30 7.5Z" fill="#858585"/>
</svg>
