<svg width="132" height="132" viewBox="0 0 132 132" fill="none" xmlns="http://www.w3.org/2000/svg">
<g opacity="0.5">
<path d="M120.521 110.571C127.945 102.606 131.992 92.7581 131.992 82.4982C131.992 69.6605 125.651 58.0343 115.494 49.7852C115.262 79.1986 87.6016 103.121 53.6254 103.121H30.6309C39.5245 117.789 57.5953 127.869 78.3729 127.869H127.868C129.543 127.869 131.039 126.863 131.683 125.317C132.328 123.77 131.967 121.991 130.781 120.831L120.521 110.571Z" fill="#64B5F6"/>
<path d="M53.6263 4.13123C24.0582 4.13123 0.0067094 24.4706 0.0067094 49.5016C0.0067094 59.7615 4.05395 69.5832 11.4782 77.5745L1.2183 87.8344C0.0324881 89.0203 -0.328413 90.799 0.316053 92.3199C0.960519 93.8666 2.45568 94.872 4.13129 94.872H53.6263C83.1944 94.872 107.246 74.5327 107.246 49.5016C107.246 24.4706 83.1944 4.13123 53.6263 4.13123Z" fill="#2196F3"/>
<path d="M78.3735 37.1279H28.8785C26.61 37.1279 24.7539 38.984 24.7539 41.2525C24.7539 43.521 26.61 45.3771 28.8785 45.3771H78.3735C80.642 45.3771 82.498 43.521 82.498 41.2525C82.498 38.984 80.642 37.1279 78.3735 37.1279Z" fill="#FAFAFA"/>
<path d="M61.8751 53.6262H28.8785C26.61 53.6262 24.7539 55.4823 24.7539 57.7508C24.7539 60.0193 26.61 61.8754 28.8785 61.8754H61.8751C64.1437 61.8754 65.9997 60.0193 65.9997 57.7508C65.9997 55.4823 64.1437 53.6262 61.8751 53.6262Z" fill="#FAFAFA"/>
</g>
</svg>
