<svg width="60" height="60" viewBox="0 0 60 60" fill="none" xmlns="http://www.w3.org/2000/svg">
<path d="M17.4504 25.7577V34.4049C17.4504 36.1486 18.3806 37.7599 19.8908 38.6318L27.3795 42.9553C28.8897 43.8272 30.7501 43.8272 32.2603 42.9553L39.749 38.6318C41.2592 37.7599 42.1894 36.1486 42.1894 34.4049V25.7577C42.1894 24.014 41.2592 22.4026 39.749 21.5308L32.2603 17.2073C30.7501 16.3354 28.8897 16.3354 27.3795 17.2073L19.8908 21.5308C18.3806 22.4026 17.4504 24.014 17.4504 25.7577Z" stroke="#474747" stroke-width="1.5" stroke-miterlimit="10" stroke-linecap="round" stroke-linejoin="round"/>
<path d="M17.986 18.1075L8.67084 8.79236" stroke="#474747" stroke-width="1.5" stroke-miterlimit="10" stroke-linecap="round" stroke-linejoin="round"/>
<path d="M7.07568 9.20685C8.20791 9.20685 9.12576 8.28899 9.12576 7.15677C9.12576 6.02454 8.20791 5.10669 7.07568 5.10669C5.94346 5.10669 5.0256 6.02454 5.0256 7.15677C5.0256 8.28899 5.94346 9.20685 7.07568 9.20685Z" stroke="#474747" stroke-width="1.5" stroke-miterlimit="10" stroke-linecap="round" stroke-linejoin="round"/>
<path d="M14.2181 21.8752L10.3676 18.0245L6.77838 17.8724" stroke="#474747" stroke-width="1.5" stroke-miterlimit="10" stroke-linecap="round" stroke-linejoin="round"/>
<path d="M4.73028 19.8358C5.86251 19.8358 6.78036 18.9179 6.78036 17.7857C6.78036 16.6534 5.86251 15.7356 4.73028 15.7356C3.59806 15.7356 2.68021 16.6534 2.68021 17.7857C2.68021 18.9179 3.59806 19.8358 4.73028 19.8358Z" stroke="#474747" stroke-width="1.5" stroke-miterlimit="10" stroke-linecap="round" stroke-linejoin="round"/>
<path d="M21.6121 14.4813L17.7614 10.6306L17.6093 7.04138" stroke="#474747" stroke-width="1.5" stroke-miterlimit="10" stroke-linecap="round" stroke-linejoin="round"/>
<path d="M17.5225 7.04352C18.6547 7.04352 19.5725 6.12566 19.5725 4.99344C19.5725 3.86121 18.6547 2.94336 17.5225 2.94336C16.3902 2.94336 15.4724 3.86121 15.4724 4.99344C15.4724 6.12566 16.3902 7.04352 17.5225 7.04352Z" stroke="#474747" stroke-width="1.5" stroke-miterlimit="10" stroke-linecap="round" stroke-linejoin="round"/>
<path d="M41.7691 42.174L51.0843 51.4891" stroke="#474747" stroke-width="1.5" stroke-miterlimit="10" stroke-linecap="round" stroke-linejoin="round"/>
<path d="M52.6794 55.1747C53.8116 55.1747 54.7295 54.2569 54.7295 53.1247C54.7295 51.9924 53.8116 51.0746 52.6794 51.0746C51.5472 51.0746 50.6293 51.9924 50.6293 53.1247C50.6293 54.2569 51.5472 55.1747 52.6794 55.1747Z" stroke="#474747" stroke-width="1.5" stroke-miterlimit="10" stroke-linecap="round" stroke-linejoin="round"/>
<path d="M45.537 38.4061L49.3876 42.2568L52.9768 42.409" stroke="#474747" stroke-width="1.5" stroke-miterlimit="10" stroke-linecap="round" stroke-linejoin="round"/>
<path d="M55.0248 44.5458C56.157 44.5458 57.0749 43.628 57.0749 42.4958C57.0749 41.3635 56.157 40.4457 55.0248 40.4457C53.8926 40.4457 52.9747 41.3635 52.9747 42.4958C52.9747 43.628 53.8926 44.5458 55.0248 44.5458Z" stroke="#474747" stroke-width="1.5" stroke-miterlimit="10" stroke-linecap="round" stroke-linejoin="round"/>
<path d="M38.1431 45.8L41.9937 49.6507L42.1459 53.2399" stroke="#474747" stroke-width="1.5" stroke-miterlimit="10" stroke-linecap="round" stroke-linejoin="round"/>
<path d="M42.2326 57.338C43.3648 57.338 44.2827 56.4201 44.2827 55.2879C44.2827 54.1556 43.3648 53.2378 42.2326 53.2378C41.1004 53.2378 40.1825 54.1556 40.1825 55.2879C40.1825 56.4201 41.1004 57.338 42.2326 57.338Z" stroke="#474747" stroke-width="1.5" stroke-miterlimit="10" stroke-linecap="round" stroke-linejoin="round"/>
<path d="M17.8443 42.0322L8.52914 51.3473" stroke="#474747" stroke-width="1.5" stroke-miterlimit="10" stroke-linecap="round" stroke-linejoin="round"/>
<path d="M6.89355 54.9926C8.02578 54.9926 8.94363 54.0748 8.94363 52.9425C8.94363 51.8103 8.02578 50.8925 6.89355 50.8925C5.76133 50.8925 4.84348 51.8103 4.84348 52.9425C4.84348 54.0748 5.76133 54.9926 6.89355 54.9926Z" stroke="#474747" stroke-width="1.5" stroke-miterlimit="10" stroke-linecap="round" stroke-linejoin="round"/>
<path d="M21.6121 45.8L17.7614 49.6507L17.6093 53.2399" stroke="#474747" stroke-width="1.5" stroke-miterlimit="10" stroke-linecap="round" stroke-linejoin="round"/>
<path d="M17.5225 57.338C18.6547 57.338 19.5725 56.4201 19.5725 55.2879C19.5725 54.1556 18.6547 53.2378 17.5225 53.2378C16.3902 53.2378 15.4724 54.1556 15.4724 55.2879C15.4724 56.4201 16.3902 57.338 17.5225 57.338Z" stroke="#474747" stroke-width="1.5" stroke-miterlimit="10" stroke-linecap="round" stroke-linejoin="round"/>
<path d="M14.2181 38.4061L10.3676 42.2568L6.77838 42.409" stroke="#474747" stroke-width="1.5" stroke-miterlimit="10" stroke-linecap="round" stroke-linejoin="round"/>
<path d="M4.73028 44.5458C5.86251 44.5458 6.78036 43.628 6.78036 42.4958C6.78036 41.3635 5.86251 40.4457 4.73028 40.4457C3.59806 40.4457 2.68021 41.3635 2.68021 42.4958C2.68021 43.628 3.59806 44.5458 4.73028 44.5458Z" stroke="#474747" stroke-width="1.5" stroke-miterlimit="10" stroke-linecap="round" stroke-linejoin="round"/>
<path d="M41.9108 18.2491L51.2261 8.93396" stroke="#474747" stroke-width="1.5" stroke-miterlimit="10" stroke-linecap="round" stroke-linejoin="round"/>
<path d="M52.8615 9.38885C53.9938 9.38885 54.9116 8.471 54.9116 7.33877C54.9116 6.20655 53.9938 5.2887 52.8615 5.2887C51.7293 5.2887 50.8115 6.20655 50.8115 7.33877C50.8115 8.471 51.7293 9.38885 52.8615 9.38885Z" stroke="#474747" stroke-width="1.5" stroke-miterlimit="10" stroke-linecap="round" stroke-linejoin="round"/>
<path d="M38.1431 14.4813L41.9937 10.6306L42.1459 7.04138" stroke="#474747" stroke-width="1.5" stroke-miterlimit="10" stroke-linecap="round" stroke-linejoin="round"/>
<path d="M42.2326 7.04352C43.3648 7.04352 44.2827 6.12566 44.2827 4.99344C44.2827 3.86121 43.3648 2.94336 42.2326 2.94336C41.1004 2.94336 40.1825 3.86121 40.1825 4.99344C40.1825 6.12566 41.1004 7.04352 42.2326 7.04352Z" stroke="#474747" stroke-width="1.5" stroke-miterlimit="10" stroke-linecap="round" stroke-linejoin="round"/>
<path d="M45.537 21.8752L49.3876 18.0245L52.9768 17.8724" stroke="#474747" stroke-width="1.5" stroke-miterlimit="10" stroke-linecap="round" stroke-linejoin="round"/>
<path d="M55.0248 19.8358C56.157 19.8358 57.0749 18.9179 57.0749 17.7857C57.0749 16.6534 56.157 15.7356 55.0248 15.7356C53.8926 15.7356 52.9747 16.6534 52.9747 17.7857C52.9747 18.9179 53.8926 19.8358 55.0248 19.8358Z" stroke="#474747" stroke-width="1.5" stroke-miterlimit="10" stroke-linecap="round" stroke-linejoin="round"/>
<path d="M31.8986 26.3374L27.7983 33.8252" stroke="#474747" stroke-width="1.5" stroke-miterlimit="10" stroke-linecap="round" stroke-linejoin="round"/>
<path d="M25.0538 33.3992L22.289 30.0509L25.5679 26.7028" stroke="#474747" stroke-width="1.5" stroke-miterlimit="10" stroke-linecap="round" stroke-linejoin="round"/>
<path d="M34.0718 26.7028L37.3507 30.0509L34.0718 33.3992" stroke="#474747" stroke-width="1.5" stroke-miterlimit="10" stroke-linecap="round" stroke-linejoin="round"/>
</svg>
