<svg width="60" height="60" viewBox="0 0 60 60" fill="none" xmlns="http://www.w3.org/2000/svg">
<path d="M17.4504 25.7578V34.405C17.4504 36.1487 18.3807 37.7601 19.8909 38.6319L27.3795 42.9555C28.8897 43.8273 30.7502 43.8273 32.2604 42.9555L39.749 38.6319C41.2592 37.7601 42.1894 36.1487 42.1894 34.405V25.7578C42.1894 24.0141 41.2592 22.4028 39.749 21.5309L32.2604 17.2074C30.7502 16.3355 28.8897 16.3355 27.3795 17.2074L19.8909 21.5309C18.3807 22.4028 17.4504 24.0141 17.4504 25.7578Z" stroke="white" stroke-width="1.5" stroke-miterlimit="10" stroke-linecap="round" stroke-linejoin="round"/>
<path d="M17.986 18.1075L8.6709 8.79236" stroke="white" stroke-width="1.5" stroke-miterlimit="10" stroke-linecap="round" stroke-linejoin="round"/>
<path d="M7.07571 9.20685C8.20794 9.20685 9.12579 8.28899 9.12579 7.15677C9.12579 6.02454 8.20794 5.10669 7.07571 5.10669C5.94349 5.10669 5.02563 6.02454 5.02563 7.15677C5.02563 8.28899 5.94349 9.20685 7.07571 9.20685Z" stroke="white" stroke-width="1.5" stroke-miterlimit="10" stroke-linecap="round" stroke-linejoin="round"/>
<path d="M14.2181 21.8753L10.3675 18.0246L6.77832 17.8725" stroke="white" stroke-width="1.5" stroke-miterlimit="10" stroke-linecap="round" stroke-linejoin="round"/>
<path d="M4.73025 19.8358C5.86248 19.8358 6.78033 18.9179 6.78033 17.7857C6.78033 16.6534 5.86248 15.7356 4.73025 15.7356C3.59803 15.7356 2.68018 16.6534 2.68018 17.7857C2.68018 18.9179 3.59803 19.8358 4.73025 19.8358Z" stroke="white" stroke-width="1.5" stroke-miterlimit="10" stroke-linecap="round" stroke-linejoin="round"/>
<path d="M21.6121 14.4813L17.7615 10.6307L17.6094 7.04144" stroke="white" stroke-width="1.5" stroke-miterlimit="10" stroke-linecap="round" stroke-linejoin="round"/>
<path d="M17.5225 7.04358C18.6547 7.04358 19.5726 6.12573 19.5726 4.9935C19.5726 3.86127 18.6547 2.94342 17.5225 2.94342C16.3903 2.94342 15.4724 3.86127 15.4724 4.9935C15.4724 6.12573 16.3903 7.04358 17.5225 7.04358Z" stroke="white" stroke-width="1.5" stroke-miterlimit="10" stroke-linecap="round" stroke-linejoin="round"/>
<path d="M41.769 42.1741L51.0842 51.4892" stroke="white" stroke-width="1.5" stroke-miterlimit="10" stroke-linecap="round" stroke-linejoin="round"/>
<path d="M52.6795 55.1749C53.8117 55.1749 54.7296 54.257 54.7296 53.1248C54.7296 51.9926 53.8117 51.0747 52.6795 51.0747C51.5472 51.0747 50.6294 51.9926 50.6294 53.1248C50.6294 54.257 51.5472 55.1749 52.6795 55.1749Z" stroke="white" stroke-width="1.5" stroke-miterlimit="10" stroke-linecap="round" stroke-linejoin="round"/>
<path d="M45.5369 38.4062L49.3875 42.2569L52.9767 42.4091" stroke="white" stroke-width="1.5" stroke-miterlimit="10" stroke-linecap="round" stroke-linejoin="round"/>
<path d="M55.0247 44.546C56.1569 44.546 57.0748 43.6281 57.0748 42.4959C57.0748 41.3637 56.1569 40.4458 55.0247 40.4458C53.8925 40.4458 52.9746 41.3637 52.9746 42.4959C52.9746 43.6281 53.8925 44.546 55.0247 44.546Z" stroke="white" stroke-width="1.5" stroke-miterlimit="10" stroke-linecap="round" stroke-linejoin="round"/>
<path d="M38.1431 45.8002L41.9936 49.6508L42.1458 53.2401" stroke="white" stroke-width="1.5" stroke-miterlimit="10" stroke-linecap="round" stroke-linejoin="round"/>
<path d="M42.2325 57.3381C43.3647 57.3381 44.2825 56.4203 44.2825 55.2881C44.2825 54.1558 43.3647 53.238 42.2325 53.238C41.1002 53.238 40.1824 54.1558 40.1824 55.2881C40.1824 56.4203 41.1002 57.3381 42.2325 57.3381Z" stroke="white" stroke-width="1.5" stroke-miterlimit="10" stroke-linecap="round" stroke-linejoin="round"/>
<path d="M17.8442 42.0324L8.52905 51.3475" stroke="white" stroke-width="1.5" stroke-miterlimit="10" stroke-linecap="round" stroke-linejoin="round"/>
<path d="M6.89358 54.9927C8.02581 54.9927 8.94366 54.0749 8.94366 52.9427C8.94366 51.8104 8.02581 50.8926 6.89358 50.8926C5.76136 50.8926 4.84351 51.8104 4.84351 52.9427C4.84351 54.0749 5.76136 54.9927 6.89358 54.9927Z" stroke="white" stroke-width="1.5" stroke-miterlimit="10" stroke-linecap="round" stroke-linejoin="round"/>
<path d="M21.6121 45.8002L17.7615 49.6508L17.6094 53.2401" stroke="white" stroke-width="1.5" stroke-miterlimit="10" stroke-linecap="round" stroke-linejoin="round"/>
<path d="M17.5225 57.3381C18.6547 57.3381 19.5726 56.4203 19.5726 55.2881C19.5726 54.1558 18.6547 53.238 17.5225 53.238C16.3903 53.238 15.4724 54.1558 15.4724 55.2881C15.4724 56.4203 16.3903 57.3381 17.5225 57.3381Z" stroke="white" stroke-width="1.5" stroke-miterlimit="10" stroke-linecap="round" stroke-linejoin="round"/>
<path d="M14.2181 38.4062L10.3675 42.2569L6.77832 42.4091" stroke="white" stroke-width="1.5" stroke-miterlimit="10" stroke-linecap="round" stroke-linejoin="round"/>
<path d="M4.73025 44.546C5.86248 44.546 6.78033 43.6281 6.78033 42.4959C6.78033 41.3637 5.86248 40.4458 4.73025 40.4458C3.59803 40.4458 2.68018 41.3637 2.68018 42.4959C2.68018 43.6281 3.59803 44.546 4.73025 44.546Z" stroke="white" stroke-width="1.5" stroke-miterlimit="10" stroke-linecap="round" stroke-linejoin="round"/>
<path d="M41.9106 18.2491L51.2259 8.93402" stroke="white" stroke-width="1.5" stroke-miterlimit="10" stroke-linecap="round" stroke-linejoin="round"/>
<path d="M52.8614 9.38898C53.9936 9.38898 54.9114 8.47112 54.9114 7.3389C54.9114 6.20667 53.9936 5.28882 52.8614 5.28882C51.7291 5.28882 50.8113 6.20667 50.8113 7.3389C50.8113 8.47112 51.7291 9.38898 52.8614 9.38898Z" stroke="white" stroke-width="1.5" stroke-miterlimit="10" stroke-linecap="round" stroke-linejoin="round"/>
<path d="M38.1431 14.4813L41.9936 10.6307L42.1458 7.04144" stroke="white" stroke-width="1.5" stroke-miterlimit="10" stroke-linecap="round" stroke-linejoin="round"/>
<path d="M42.2325 7.04358C43.3647 7.04358 44.2825 6.12573 44.2825 4.9935C44.2825 3.86127 43.3647 2.94342 42.2325 2.94342C41.1002 2.94342 40.1824 3.86127 40.1824 4.9935C40.1824 6.12573 41.1002 7.04358 42.2325 7.04358Z" stroke="white" stroke-width="1.5" stroke-miterlimit="10" stroke-linecap="round" stroke-linejoin="round"/>
<path d="M45.5369 21.8753L49.3875 18.0246L52.9767 17.8725" stroke="white" stroke-width="1.5" stroke-miterlimit="10" stroke-linecap="round" stroke-linejoin="round"/>
<path d="M55.0247 19.8358C56.1569 19.8358 57.0748 18.9179 57.0748 17.7857C57.0748 16.6534 56.1569 15.7356 55.0247 15.7356C53.8925 15.7356 52.9746 16.6534 52.9746 17.7857C52.9746 18.9179 53.8925 19.8358 55.0247 19.8358Z" stroke="white" stroke-width="1.5" stroke-miterlimit="10" stroke-linecap="round" stroke-linejoin="round"/>
<path d="M31.8984 26.3375L27.7981 33.8253" stroke="white" stroke-width="1.5" stroke-miterlimit="10" stroke-linecap="round" stroke-linejoin="round"/>
<path d="M25.0536 33.3993L22.2888 30.051L25.5677 26.7029" stroke="white" stroke-width="1.5" stroke-miterlimit="10" stroke-linecap="round" stroke-linejoin="round"/>
<path d="M34.0718 26.7029L37.3507 30.051L34.0718 33.3993" stroke="white" stroke-width="1.5" stroke-miterlimit="10" stroke-linecap="round" stroke-linejoin="round"/>
</svg>
