<svg width="58" height="61" viewBox="0 0 58 61" fill="none" xmlns="http://www.w3.org/2000/svg">
<g filter="url(#filter0_d_132_682)">
<path d="M50.579 17.9207C49.3461 13.3786 44.6223 8.65477 40.0802 7.42193C37.296 6.72703 33.5644 6.01193 28.5 6C23.4365 6.01285 19.7049 6.72703 16.9207 7.42193C12.3786 8.65568 7.65477 13.3786 6.42193 17.9207C5.72703 20.7049 5.01285 24.4365 5 29.5C5.01285 34.5644 5.72703 38.296 6.42193 41.0802C7.65477 45.6223 12.3786 50.3452 16.9207 51.579C19.7049 52.2739 23.4383 52.9881 28.5 53.0009C33.5644 52.9881 37.296 52.2739 40.0802 51.579C44.6223 50.3452 49.3461 45.6223 50.579 41.0802C51.2739 38.296 51.9881 34.5626 52.0009 29.5C51.9881 24.4365 51.2739 20.7049 50.579 17.9207Z" fill="white"/>
</g>
<path d="M42.3657 20.8524C41.8206 18.3919 39.436 16.1384 36.9687 15.6573C35.4655 15.3634 31.2737 14.9879 28.4998 15.0228C25.7268 14.9921 21.535 15.3634 20.0318 15.6641C17.562 16.1427 15.1773 18.3962 14.6348 20.8592C14.3248 22.353 14.0199 24.3842 14.0157 27.1615C14.0114 29.9387 14.3248 31.9674 14.6348 33.4637C15.1799 35.9242 17.5645 38.1777 20.0318 38.6588C20.8434 38.8207 22.4386 39.0038 24.1717 39.1324C24.3687 39.4412 24.5816 39.7697 24.8104 40.1177C25.7302 41.5102 26.4337 42.4802 26.9668 43.1564C27.8543 44.2815 29.1462 44.2815 30.0328 43.1564C30.5659 42.4802 31.2694 41.5102 32.1892 40.1177C32.4191 39.7691 32.6321 39.4407 32.8279 39.1324C34.5611 39.0038 36.1571 38.8207 36.9687 38.6588C39.4385 38.1802 41.8232 35.9267 42.3657 33.4637C42.6757 31.9699 42.9806 29.9379 42.9848 27.1615C42.9891 24.3851 42.6757 22.347 42.3657 20.8524Z" fill="url(#paint0_linear_132_682)"/>
<path d="M32.5222 32.9284H24.4783C24.0527 32.9284 23.6446 32.7594 23.3437 32.4585C23.0428 32.1576 22.8738 31.7495 22.8738 31.3239C22.8738 30.8984 23.0428 30.4903 23.3437 30.1894C23.6446 29.8884 24.0527 29.7194 24.4783 29.7194H32.5222C32.9478 29.7194 33.3559 29.8884 33.6568 30.1894C33.9577 30.4903 34.1267 30.8984 34.1267 31.3239C34.1267 31.7495 33.9577 32.1576 33.6568 32.4585C33.3559 32.7594 32.9478 32.9284 32.5222 32.9284ZM35.3506 26.2276H21.6499C21.2244 26.2276 20.8163 26.0586 20.5154 25.7576C20.2145 25.4567 20.0454 25.0486 20.0454 24.6231C20.0454 24.1975 20.2145 23.7894 20.5154 23.4885C20.8163 23.1876 21.2244 23.0186 21.6499 23.0186H35.3506C35.7761 23.0186 36.1842 23.1876 36.4851 23.4885C36.786 23.7894 36.9551 24.1975 36.9551 24.6231C36.9551 25.0486 36.786 25.4567 36.4851 25.7576C36.1842 26.0586 35.7761 26.2276 35.3506 26.2276Z" fill="url(#paint1_linear_132_682)"/>
<defs>
<filter id="filter0_d_132_682" x="1" y="6" width="55.001" height="55.001" filterUnits="userSpaceOnUse" color-interpolation-filters="sRGB">
<feFlood flood-opacity="0" result="BackgroundImageFix"/>
<feColorMatrix in="SourceAlpha" type="matrix" values="0 0 0 0 0 0 0 0 0 0 0 0 0 0 0 0 0 0 127 0" result="hardAlpha"/>
<feOffset dy="4"/>
<feGaussianBlur stdDeviation="2"/>
<feComposite in2="hardAlpha" operator="out"/>
<feColorMatrix type="matrix" values="0 0 0 0 0 0 0 0 0 0 0 0 0 0 0 0 0 0 0.14 0"/>
<feBlend mode="normal" in2="BackgroundImageFix" result="effect1_dropShadow_132_682"/>
<feBlend mode="normal" in="SourceGraphic" in2="effect1_dropShadow_132_682" result="shape"/>
</filter>
<linearGradient id="paint0_linear_132_682" x1="12.3885" y1="13.3344" x2="49.0269" y2="26.4973" gradientUnits="userSpaceOnUse">
<stop stop-color="#06F7C4"/>
<stop offset="0.309258" stop-color="#4359FF"/>
</linearGradient>
<linearGradient id="paint1_linear_132_682" x1="34.0279" y1="32.087" x2="22.9726" y2="21.0308" gradientUnits="userSpaceOnUse">
<stop stop-color="#BCE4ED"/>
<stop offset="0.57" stop-color="white"/>
<stop offset="1" stop-color="white"/>
</linearGradient>
</defs>
</svg>
