<svg width="20" height="20" viewBox="0 0 20 20" fill="none" xmlns="http://www.w3.org/2000/svg">
<path d="M18.3327 14.1685C18.3319 16.5609 16.6507 18.5605 14.4054 19.0513L13.8737 17.4563C14.877 17.2925 15.7298 16.6809 16.2201 15.8333H14.166C13.2455 15.8333 12.4993 15.0871 12.4993 14.1666V10.8333C12.4993 9.91279 13.2455 9.16663 14.166 9.16663H16.6144C16.2044 5.87803 13.399 3.33329 9.99935 3.33329C6.59967 3.33329 3.79434 5.87803 3.38426 9.16663H5.83268C6.75316 9.16663 7.49935 9.91279 7.49935 10.8333V14.1666C7.49935 15.0871 6.75316 15.8333 5.83268 15.8333H3.33268C2.41221 15.8333 1.66602 15.0871 1.66602 14.1666V9.99996C1.66602 5.39758 5.39697 1.66663 9.99935 1.66663C14.6017 1.66663 18.3327 5.39758 18.3327 9.99996V10.8322V10.8333V14.1666V14.1685ZM16.666 14.1666V10.8333H14.166V14.1666H16.666ZM3.33268 10.8333V14.1666H5.83268V10.8333H3.33268Z" fill="black"/>
</svg>
