<svg width="60" height="60" viewBox="0 0 60 60" fill="none" xmlns="http://www.w3.org/2000/svg">
<path d="M4.13057 14.2888C4.01138 12.9369 4.09009 11.5756 4.36444 10.2466C4.73137 8.5915 5.45211 7.21748 6.50605 6.16392C7.98276 4.68609 10.0595 3.87615 12.6707 3.75621C13.9357 3.70861 15.2021 3.79519 16.4483 4.0137L16.7804 2.12583C15.3978 1.88334 13.993 1.78776 12.5905 1.84136C9.47895 1.98491 6.97567 2.983 5.15115 4.80902C3.83335 6.12644 2.93833 7.81828 2.49195 9.83958C2.4912 9.84333 2.49007 9.84745 2.48932 9.8512C2.17524 11.3654 2.08566 12.9171 2.22172 14.4571L4.13057 14.2888Z" fill="#474747"/>
<path d="M8.33304 26.8114C7.75585 25.7582 7.22663 24.6997 6.75963 23.6646L5.0127 24.4528C5.49993 25.5326 6.05164 26.6363 6.65282 27.7326L8.33304 26.8114Z" fill="#474747"/>
<path d="M2.77832 17.9918C3.01857 19.0184 3.31054 20.0326 3.6531 21.03L5.46676 20.4104C5.14518 19.4742 4.87045 18.5226 4.6452 17.5593L2.77832 17.9918Z" fill="#474747"/>
<path d="M15.8171 37.3653C15.7335 37.2697 15.6503 37.1749 15.5674 37.0793L14.1211 38.336C14.2058 38.4339 14.2909 38.5317 14.3771 38.6295C14.8636 39.1835 15.3699 39.7419 15.8823 40.2899C16.112 40.535 16.344 40.7797 16.5787 41.0234L17.9598 39.6947C17.7312 39.4574 17.5052 39.2194 17.2822 38.9807C16.7829 38.4474 16.2904 37.9035 15.8171 37.3653Z" fill="#474747"/>
<path d="M11.805 35.5201L13.3177 34.344C13.1787 34.1648 13.0411 33.9856 12.9047 33.8057C12.3211 33.0382 11.7563 32.2589 11.2263 31.4902L9.64844 32.5779C10.1956 33.3714 10.7777 34.1745 11.3789 34.965C11.5191 35.1505 11.6615 35.3353 11.805 35.5201Z" fill="#474747"/>
<path d="M18.209 42.6642C20.0196 44.431 21.9247 46.0981 23.9161 47.6577C26.6169 49.7832 29.4994 51.6669 32.5308 53.286C34.3014 54.2287 36.1364 55.045 38.0216 55.7294L36.2713 56.2305L36.7983 58.073L41.6984 56.6709C42.207 56.5254 42.5012 55.9947 42.3558 55.4857L41.0789 51.0226L39.236 51.5496L40.0478 54.385C37.7596 53.6608 35.5442 52.7265 33.4296 51.5934C30.4983 50.0275 27.7109 48.206 25.0997 46.1506C23.1623 44.6334 21.3086 43.0117 19.547 41.2932L18.209 42.6642Z" fill="#474747"/>
<path d="M57.4679 42.9776C57.0766 40.5331 56.2681 37.9035 55.0647 35.1619L53.3099 35.9321C54.4477 38.5246 55.2097 40.9975 55.5751 43.28C56.261 47.5655 55.5077 50.9458 53.3972 53.057C52.3519 54.1023 50.9925 54.819 49.3565 55.1878C48.0338 55.4854 46.5342 55.5562 44.8982 55.3995C44.4949 55.3609 44.0789 55.3073 43.6614 55.2414L43.3623 57.1341C43.8173 57.2061 44.2727 57.2642 44.7153 57.3069C45.3386 57.3665 45.9458 57.3965 46.5369 57.3965C47.6264 57.4032 48.7133 57.2889 49.7777 57.0569C51.7732 56.6068 53.4467 55.717 54.7521 54.4116C57.3153 51.8483 58.2542 47.8949 57.4679 42.9776Z" fill="#474747"/>
<path d="M52.8231 30.7241L51.1582 31.6731C51.6196 32.4827 52.0547 33.2982 52.4516 34.0969L54.1682 33.245C53.7556 32.413 53.3032 31.5652 52.8231 30.7241Z" fill="#474747"/>
<path d="M48.375 24.0627L46.8525 25.2269C47.5669 26.1612 48.264 27.1264 48.9256 28.0967L50.5095 27.0177C49.8281 26.0184 49.11 25.0241 48.375 24.0627Z" fill="#474747"/>
<path d="M43.6376 18.5244L42.252 19.8475C43.063 20.6971 43.8617 21.5813 44.6256 22.4744L46.082 21.229C45.2953 20.3096 44.473 19.3996 43.6376 18.5244Z" fill="#474747"/>
<path d="M19.8901 8.56564L21.7641 8.16498L21.1453 5.2704C22.9039 5.89407 24.6152 6.64554 26.2647 7.5177C29.1578 9.04538 31.9118 10.8227 34.4946 12.8309C35.7123 13.7705 36.939 14.7903 38.1402 15.8611C38.8063 16.4559 39.4771 17.0788 40.1338 17.713C40.4183 17.9877 40.7087 18.2737 40.9981 18.5623L42.353 17.2074C42.0561 16.9109 41.7578 16.6171 41.4647 16.3345C40.7908 15.6831 40.1016 15.0429 39.4168 14.4309C38.1815 13.3301 36.9195 12.281 35.6688 11.3159C34.4507 10.3688 33.1895 9.47153 31.8957 8.62223C32.6307 8.2077 33.369 7.81529 34.092 7.45586L33.2394 5.73965C32.3796 6.16617 31.5018 6.63617 30.6308 7.1354L31.2394 8.19758C29.9104 7.35091 28.551 6.55971 27.1605 5.82323C25.9218 5.16921 24.6508 4.5804 23.3514 4.05793L25.0399 3.69737L24.6403 1.823L19.6566 2.88818C19.139 2.99874 18.8092 3.50772 18.9198 4.02532L19.8901 8.56564Z" fill="#474747"/>
<path d="M2.12099 43.1274C1.87849 44.5101 1.78292 45.9148 1.83689 47.3173C1.97969 50.4285 2.97778 52.9314 4.80418 54.7571C6.12159 56.0749 7.81456 56.9692 9.83473 57.4152C9.83848 57.4155 9.8426 57.4167 9.8471 57.4174C10.9033 57.6367 11.9801 57.7472 13.0595 57.7472C13.5239 57.7472 13.9883 57.727 14.4523 57.6861L14.284 55.7765C12.9321 55.8965 11.5704 55.8174 10.2418 55.5423C8.58628 55.1765 7.21264 54.4565 6.15907 53.4022C4.68162 51.9247 3.8713 49.8476 3.75136 47.2371C3.70376 45.9718 3.78959 44.7057 4.00885 43.4588L2.12099 43.1274Z" fill="#474747"/>
<path d="M24.4474 54.8942C25.5279 54.4073 26.6313 53.8549 27.7269 53.2544L26.8064 51.5742C25.7536 52.151 24.6947 52.6806 23.6592 53.1473L24.4474 54.8942Z" fill="#474747"/>
<path d="M17.9872 57.1288C19.0142 56.8885 20.0284 56.5965 21.0253 56.254L20.4058 54.4399C19.4699 54.7619 18.5183 55.0359 17.5547 55.2619L17.9872 57.1288Z" fill="#474747"/>
<path d="M37.0752 44.3396L38.3311 45.7871C38.4293 45.7024 38.5272 45.6169 38.6254 45.5307C39.1797 45.0435 39.7385 44.5364 40.2857 44.0255C40.5308 43.7958 40.7756 43.5638 41.0196 43.3288L39.6905 41.948C39.4533 42.177 39.2153 42.4023 38.9762 42.6256C38.4436 43.1237 37.9001 43.6166 37.3604 44.0904C37.2656 44.1739 37.1708 44.2571 37.0752 44.3396Z" fill="#474747"/>
<path d="M31.4854 48.6798L32.573 50.258C33.3665 49.7116 34.1697 49.1291 34.9605 48.528C35.1456 48.3874 35.3304 48.2454 35.5152 48.1018L34.3391 46.5884C34.1603 46.7274 33.9808 46.8654 33.8012 47.0022C33.0333 47.5857 32.2548 48.1502 31.4854 48.6798Z" fill="#474747"/>
<path d="M43.2754 4.33118C47.5605 3.64605 50.9411 4.39902 53.0524 6.50989C54.097 7.55445 54.8139 8.91423 55.1831 10.5502C55.4803 11.8733 55.5519 13.3732 55.3945 15.0088C55.3563 15.4114 55.3034 15.827 55.2367 16.2453L57.1295 16.5448C57.2014 16.0883 57.2595 15.6329 57.3022 15.1917C57.4784 13.3541 57.3944 11.651 57.0522 10.1293C56.6025 8.13389 55.7127 6.45967 54.4073 5.15424C51.8437 2.59099 47.8892 1.65174 42.9729 2.43882C40.5296 2.82974 37.8993 3.63855 35.1572 4.84166L35.9274 6.59684C38.5199 5.45895 40.9921 4.69661 43.2754 4.33118Z" fill="#474747"/>
<path d="M22.4695 15.282L21.2237 13.8259C20.3043 14.6126 19.3947 15.4349 18.5195 16.2692L19.8429 17.6556C20.693 16.8442 21.5771 16.0455 22.4695 15.282Z" fill="#474747"/>
<path d="M28.0929 10.9823L27.0131 9.39844C26.0139 10.0802 25.0196 10.7983 24.0586 11.5329L25.2227 13.0554C26.156 12.3414 27.1218 11.6439 28.0929 10.9823Z" fill="#474747"/>
<path d="M56.6665 18.2101C56.5211 17.7011 55.9903 17.4069 55.4817 17.5523L51.0182 18.8296L51.5452 20.6721L54.3809 19.8607C53.6565 22.1485 52.7217 24.3643 51.5887 26.4789C50.0228 29.4102 48.2013 32.1976 46.1459 34.8088C44.6283 36.7461 43.0069 38.5995 41.2881 40.3611L42.6595 41.6995C44.4263 39.8888 46.093 37.9837 47.6529 35.9924C49.7784 33.292 51.6622 30.409 53.2813 27.3777C54.2235 25.6067 55.0402 23.7725 55.7246 21.8869L56.2257 23.6372L58.0682 23.1102L56.6665 18.2101Z" fill="#474747"/>
<path d="M3.82054 41.0086C3.88763 41.0086 3.95509 41.0015 4.02143 40.9869L8.561 40.0169L8.16034 38.1426L5.26614 38.7617C5.8898 37.0028 6.6409 35.2918 7.51343 33.6423C9.04037 30.7489 10.8184 27.9949 12.8262 25.4121C13.7655 24.1948 14.7853 22.9681 15.8565 21.7665C16.4513 21.1001 17.0742 20.4295 17.7083 19.7733C17.9861 19.4858 18.2717 19.195 18.558 18.9086L17.2031 17.5537C16.9093 17.8476 16.6154 18.1459 16.3302 18.4416C15.6784 19.1162 15.0383 19.8051 14.4262 20.4906C13.3243 21.7256 12.276 22.9879 11.3113 24.2383C9.23564 26.9091 7.39762 29.7553 5.81897 32.7466C5.16457 33.9845 4.57538 35.2559 4.05366 36.5557L3.69273 34.8661L1.81836 35.2663L2.88354 40.2501C2.97799 40.6923 3.36853 41.0079 3.82054 41.0086Z" fill="#474747"/>
<path d="M21.6787 22.3556V37.5567C21.6787 38.3677 22.1337 39.5098 24.441 40.3444C25.9349 40.8849 27.888 41.1829 29.9621 41.1829H30.0364C31.2346 41.1829 32.4302 41.0734 33.6086 40.8564C36.5957 40.2833 38.3277 39.0806 38.3277 37.5567V22.3556C38.3277 21.5441 37.8206 20.4029 35.5129 19.5674C34.0186 19.027 32.0393 18.729 29.9625 18.729C27.885 18.729 25.9409 19.027 24.4466 19.5674C22.1393 20.4025 21.6787 21.5441 21.6787 22.3556ZM33.2499 38.973C32.1656 39.1739 31.0652 39.2721 29.9629 39.2665C28.1013 39.2665 26.3888 39.009 25.0988 38.5428C23.8368 38.0859 23.5951 37.6279 23.5951 37.5567V34.8821C23.8675 35.0264 24.1505 35.1508 24.441 35.2539C25.9349 35.7947 27.888 36.0923 29.9659 36.0923C32.0442 36.0923 34.0268 35.7947 35.5208 35.2539C35.8484 35.1355 36.0519 35.0107 36.4113 34.8814V37.5563C36.4113 37.7362 35.6355 38.5154 33.2499 38.973ZM36.4113 32.4658C36.4113 32.5377 36.1231 32.9954 34.8615 33.4522C33.5711 33.9192 31.8242 34.176 29.9625 34.176C28.1013 34.176 26.3888 33.9192 25.0988 33.4522C23.8368 32.9954 23.5951 32.5374 23.5951 32.4658V29.8264C23.8675 29.9711 24.1505 30.0955 24.441 30.1986C25.9349 30.7394 27.888 31.037 29.9659 31.037C32.0442 31.037 34.0268 30.7394 35.5208 30.1986C35.8484 30.0802 36.0519 29.9554 36.4113 29.8264V32.4658ZM34.8615 28.3966C33.5711 28.8636 31.8242 29.1203 29.9625 29.1203C28.1013 29.1203 26.3888 28.8636 25.0988 28.3966C23.8368 27.9401 23.5951 27.4821 23.5951 27.4109V24.7708C23.8679 24.9151 24.1505 25.0395 24.441 25.1429C25.9353 25.6838 27.8884 25.9814 29.9659 25.9814C32.0434 25.9814 34.0265 25.6834 35.5208 25.1429C35.8484 25.0241 36.0519 24.8993 36.4113 24.7708V27.4109C36.4113 27.4821 36.1231 27.9401 34.8615 28.3966ZM25.0639 21.3695C26.3543 20.9021 28.09 20.6454 29.9509 20.6454C31.8114 20.6454 33.5475 20.9021 34.8379 21.3695C36.0991 21.8263 36.3648 22.284 36.3648 22.3556C36.3648 22.4264 36.0991 22.884 34.8379 23.3409C33.5475 23.8083 31.8114 24.065 29.9509 24.065C28.09 24.065 26.3543 23.8075 25.0639 23.3409C23.8019 22.884 23.5366 22.4264 23.5366 22.3556C23.5366 22.284 23.8023 21.8263 25.0643 21.3695H25.0639Z" fill="#474747"/>
</svg>
