<svg width="14" height="14" viewBox="0 0 14 14" fill="none" xmlns="http://www.w3.org/2000/svg">
<path d="M7.00359 13.6684C3.32169 13.6684 0.336914 10.6837 0.336914 7.00178C0.336914 3.31991 3.32169 0.335144 7.00359 0.335144C10.6855 0.335144 13.6703 3.31991 13.6703 7.00178C13.6703 10.6837 10.6855 13.6684 7.00359 13.6684ZM7.00359 12.3351C9.94913 12.3351 12.3369 9.94731 12.3369 7.00178C12.3369 4.05629 9.94913 1.66848 7.00359 1.66848C4.05806 1.66848 1.67025 4.05629 1.67025 7.00178C1.67025 9.94731 4.05806 12.3351 7.00359 12.3351ZM4.67025 8.33511H8.33693C8.52099 8.33511 8.67026 8.18591 8.67026 8.00178C8.67026 7.81771 8.52099 7.66844 8.33693 7.66844H5.67026C4.74977 7.66844 4.00358 6.92231 4.00358 6.00178C4.00358 5.08133 4.74977 4.33514 5.67026 4.33514H6.33693V3.00181H7.67026V4.33514H9.33693V5.66844H5.67026C5.48615 5.66844 5.33691 5.81771 5.33691 6.00178C5.33691 6.18591 5.48615 6.33511 5.67026 6.33511H8.33693C9.25739 6.33511 10.0036 7.08131 10.0036 8.00178C10.0036 8.92231 9.25739 9.66844 8.33693 9.66844H7.67026V11.0018H6.33693V9.66844H4.67025V8.33511Z" fill="#808080"/>
</svg>
