<svg width="40" height="40" viewBox="0 0 40 40" fill="none" xmlns="http://www.w3.org/2000/svg">
<g clip-path="url(#clip0_206_2598)">
<path d="M17.0189 20.5053C16.7614 20.5053 16.534 20.3368 16.4589 20.0902L14.6804 14.2479H9.35321C9.02972 14.2479 8.76758 13.9858 8.76758 13.6623C8.76758 13.3391 9.02972 13.077 9.35321 13.077H15.114C15.3719 13.077 15.5993 13.2454 15.6743 13.492L17.0189 17.9094L18.983 11.458C19.0578 11.2114 19.2855 11.043 19.543 11.043C19.8006 11.043 20.028 11.2114 20.103 11.458L20.953 14.2501H26.1019C26.4251 14.2501 26.6872 14.5122 26.6872 14.8357C26.6872 15.1589 26.4251 15.421 26.1019 15.421H20.5193C20.2617 15.421 20.0341 15.2526 19.9593 15.0063L19.543 13.6388L17.5789 20.0902C17.5042 20.3368 17.2768 20.5053 17.0189 20.5053Z" fill="#858585"/>
<path d="M38.6869 9.38111C38.5279 9.09913 38.1708 8.99964 37.8892 9.15864C37.6078 9.31733 37.508 9.67439 37.667 9.95606C38.3735 11.2091 38.7485 12.6322 38.751 14.0714C38.7583 17.9083 36.5534 22.1768 32.1982 26.7582C28.6524 30.488 24.6735 33.3365 23.1275 34.3879C22.869 34.564 22.5348 34.564 22.276 34.3879C20.9055 33.4559 17.5739 31.0773 14.3473 27.9166H19.8096V30.289C19.8096 31.0422 20.4224 31.655 21.1756 31.655H22.4509C23.2044 31.655 23.8172 31.0422 23.8172 30.289V30.2396C23.881 30.2488 23.946 30.2552 24.0122 30.2552H25.2875C26.0407 30.2552 26.6535 29.6424 26.6535 28.8892V22.2077C26.6535 21.4545 26.0407 20.8417 25.2875 20.8417H24.0122C23.946 20.8417 23.881 20.8481 23.8172 20.8576V20.8078C23.8172 20.0547 23.2044 19.4419 22.4509 19.4419H21.1756C20.4224 19.4419 19.8096 20.0547 19.8096 20.8078V23.1226H17.9639C17.6404 23.1226 17.3783 23.3847 17.3783 23.7079C17.3783 24.0314 17.6404 24.2936 17.9639 24.2936H19.8096V26.7459H6.76606V24.2936H15.3159C15.6394 24.2936 15.9015 24.0314 15.9015 23.7079C15.9015 23.3847 15.6394 23.1226 15.3159 23.1226H10.1581C7.82686 19.8978 6.64735 16.8537 6.65254 14.0717C6.66108 9.41102 10.4578 5.62409 15.1184 5.62409H15.1303C17.7054 5.62744 20.1084 6.78406 21.7231 8.797C21.9623 9.09547 22.3191 9.26637 22.7018 9.26637C23.0844 9.26637 23.4412 9.09516 23.6805 8.797C25.2951 6.78406 27.6981 5.62775 30.2732 5.62409H30.2851C32.4491 5.62409 34.5115 6.44806 36.0944 7.94526C36.3291 8.16743 36.6999 8.15705 36.9221 7.92237C37.1442 7.68738 37.1338 7.3169 36.8989 7.09473C35.0977 5.39063 32.7497 4.45312 30.2851 4.45312C30.2808 4.45312 30.2759 4.45312 30.2713 4.45312C27.3401 4.45709 24.6048 5.77332 22.7671 8.06458C22.7338 8.10578 22.6694 8.10578 22.6364 8.06458C20.7987 5.77362 18.0634 4.4574 15.1322 4.45312C15.1273 4.45312 15.1233 4.45312 15.1184 4.45312C9.81355 4.45312 5.49134 8.76435 5.48158 14.0695C5.47639 16.9007 6.568 19.942 8.72804 23.1226H6.76606V20.8075C6.76606 20.0543 6.15327 19.4416 5.40009 19.4416H4.12446C3.37128 19.4416 2.75849 20.0543 2.75849 20.8075V20.8573C2.69471 20.8481 2.6297 20.8417 2.56348 20.8417H1.28784C0.534669 20.8417 -0.078125 21.4545 -0.078125 22.2077V28.8889C-0.078125 29.6421 0.534669 30.2549 1.28784 30.2549H2.56348C2.6297 30.2549 2.69471 30.2485 2.75849 30.2393V30.289C2.75849 31.0422 3.37128 31.655 4.12446 31.655H5.40009C6.15327 31.655 6.76606 31.0422 6.76606 30.289V27.9166H12.6953C16.2335 31.5586 20.1013 34.325 21.6175 35.3562C21.9468 35.5802 22.3243 35.6922 22.7015 35.6922C23.079 35.6922 23.4565 35.5802 23.7857 35.3562C25.3632 34.2835 29.423 31.3767 33.0466 27.5647C37.6163 22.7579 39.9296 18.2172 39.9219 14.0692C39.9189 12.4295 39.4916 10.8084 38.6869 9.38111ZM24.0122 22.0127H25.2878C25.3952 22.0127 25.4828 22.1002 25.4828 22.2077V28.8889C25.4828 28.9966 25.3952 29.0842 25.2878 29.0842H24.0122C23.9048 29.0842 23.8172 28.9966 23.8172 28.8889V22.2077C23.8172 22.1002 23.9048 22.0127 24.0122 22.0127ZM20.9806 20.8075C20.9806 20.7001 21.0678 20.6125 21.1756 20.6125H22.4509C22.5586 20.6125 22.6462 20.7001 22.6462 20.8075V30.289C22.6462 30.3965 22.5586 30.4841 22.4509 30.4841H21.1756C21.0678 30.4841 20.9806 30.3965 20.9806 30.289V20.8075ZM5.5951 30.289C5.5951 30.3968 5.50752 30.4844 5.40009 30.4844H4.12446C4.01704 30.4844 3.92945 30.3968 3.92945 30.289V25.6598C3.92945 25.3366 3.6673 25.0745 3.34382 25.0745C3.02063 25.0745 2.75849 25.3366 2.75849 25.6598V28.8889C2.75849 28.9966 2.6709 29.0842 2.56318 29.0842H1.28784C1.18042 29.0842 1.09284 28.9966 1.09284 28.8889V22.2077C1.09284 22.1002 1.18042 22.0127 1.28784 22.0127H2.56348C2.6709 22.0127 2.75849 22.1002 2.75849 22.2077V22.927C2.75849 23.2505 3.02063 23.5123 3.34412 23.5123C3.6673 23.5123 3.92945 23.2505 3.92945 22.927V20.8075C3.92945 20.7001 4.01704 20.6125 4.12476 20.6125H5.40009C5.50752 20.6125 5.5951 20.7001 5.5951 20.8075V30.289Z" fill="#858585"/>
</g>
<defs>
<clipPath id="clip0_206_2598">
<rect width="40" height="40" fill="white"/>
</clipPath>
</defs>
</svg>
