<svg width="20" height="20" viewBox="0 0 20 20" fill="none" xmlns="http://www.w3.org/2000/svg">
<path d="M5.19587 5.37774C4.04247 6.57623 3.33329 8.2053 3.33329 10C3.33329 13.6819 6.31806 16.6667 9.99996 16.6667C10.9006 16.6667 11.7596 16.4881 12.5434 16.1643C12.6392 15.5389 12.429 14.9388 12.343 14.7288C12.1516 14.2625 11.52 13.4652 10.4657 12.359C10.1843 12.0632 10.2024 11.8363 10.303 11.1619L10.3145 11.0857C10.3829 10.6238 10.4975 10.3507 12.0518 10.104C12.8414 9.97883 13.049 10.2944 13.3369 10.7314C13.3687 10.7798 13.4005 10.8273 13.4331 10.8749C13.7065 11.2747 13.9091 11.3662 14.2151 11.5053C14.3522 11.5675 14.5233 11.6459 14.7525 11.7762C15.2959 12.0867 15.2959 12.4373 15.2959 13.206V13.2932C15.2959 13.6195 15.264 13.906 15.2138 14.1549C16.1231 13.0154 16.6666 11.5712 16.6666 10C16.6666 7.25074 15.0025 4.89017 12.6265 3.87068C12.1655 4.18178 11.5331 4.62272 11.3125 4.925C11.1996 5.07948 11.0401 5.86805 10.5214 5.93313C10.3855 5.95019 10.2031 5.93824 10.01 5.92581C9.49204 5.89215 8.78346 5.84672 8.55662 6.46246C8.41262 6.85267 8.38729 7.91204 8.85321 8.46192C8.92779 8.54975 8.94221 8.71225 8.89154 8.89458C8.82496 9.134 8.69046 9.27967 8.64854 9.30975C8.56821 9.26358 8.40796 9.07758 8.29944 8.951C8.03791 8.64708 7.71167 8.26861 7.28993 8.15147C7.13658 8.10903 6.96801 8.07389 6.80452 8.03947C6.34696 7.94356 5.82865 7.83445 5.70823 7.57752C5.62031 7.38933 5.62069 7.13018 5.62103 6.85637C5.62103 6.50933 5.62103 6.11691 5.45103 5.73547C5.38534 5.58784 5.29737 5.47038 5.19587 5.37774ZM9.99996 18.3333C5.39758 18.3333 1.66663 14.6023 1.66663 10C1.66663 5.39763 5.39758 1.66667 9.99996 1.66667C14.6023 1.66667 18.3333 5.39763 18.3333 10C18.3333 14.6023 14.6023 18.3333 9.99996 18.3333Z" fill="#D0D0D0"/>
</svg>
