<svg width="60" height="60" viewBox="0 0 60 60" fill="none" xmlns="http://www.w3.org/2000/svg">
<path d="M49.4604 41.8048C49.5285 41.5489 49.6776 41.3219 49.8853 41.1577C50.0931 40.9936 50.3484 40.901 50.6131 40.8939H52.0743C52.2918 40.8938 52.5025 40.8182 52.6703 40.6799C52.8382 40.5416 52.9528 40.3493 52.9944 40.1358C53.2863 38.6499 53.4347 37.1393 53.4375 35.625C53.4375 35.5019 53.4133 35.38 53.3662 35.2662C53.3191 35.1524 53.25 35.0491 53.163 34.962C53.0759 34.875 52.9726 34.8059 52.8588 34.7588C52.745 34.7117 52.6231 34.6875 52.5 34.6875H43.125V22.5C43.125 22.2962 43.0586 22.098 42.9358 21.9354C42.8131 21.7728 42.6407 21.6545 42.4448 21.5987L36.5625 19.918V15C36.5625 14.8769 36.5383 14.755 36.4912 14.6412C36.4441 14.5274 36.375 14.4241 36.288 14.337C36.2009 14.25 36.0976 14.1809 35.9838 14.1338C35.87 14.0867 35.7481 14.0625 35.625 14.0625H24.375C24.2519 14.0625 24.13 14.0867 24.0162 14.1338C23.9024 14.1809 23.7991 14.25 23.712 14.337C23.625 14.4241 23.5559 14.5274 23.5088 14.6412C23.4617 14.755 23.4375 14.8769 23.4375 15V19.918L17.5552 21.5987C17.3593 21.6545 17.1869 21.7728 17.0642 21.9354C16.9414 22.098 16.875 22.2962 16.875 22.5V34.6875H7.5C7.37688 34.6875 7.25495 34.7117 7.1412 34.7588C7.02744 34.8059 6.92408 34.875 6.83702 34.962C6.74995 35.0491 6.6809 35.1524 6.6338 35.2662C6.5867 35.38 6.56247 35.5019 6.5625 35.625C6.56527 37.1393 6.71366 38.6499 7.00562 40.1358C7.04725 40.3493 7.1618 40.5416 7.32965 40.6799C7.49751 40.8182 7.70823 40.8938 7.92572 40.8939H9.38691C9.65161 40.901 9.9069 40.9936 10.1147 41.1577C10.3224 41.3219 10.4715 41.5489 10.5396 41.8048C10.8914 42.9094 11.3371 43.9819 11.8716 45.0105C12.0048 45.2401 12.0602 45.5067 12.0293 45.7703C11.9984 46.0339 11.8831 46.2805 11.7004 46.4731L10.6613 47.5122C10.5076 47.666 10.4121 47.8685 10.3912 48.0849C10.3704 48.3014 10.4254 48.5184 10.5469 48.6987C12.2401 51.2184 14.4067 53.3851 16.9263 55.0786C17.1067 55.2 17.3237 55.2549 17.5401 55.2339C17.7566 55.213 17.959 55.1174 18.1128 54.9637L19.1519 53.9246C19.3454 53.7439 19.5915 53.6298 19.8543 53.5989C20.1172 53.5681 20.3831 53.622 20.6131 53.7529C21.6424 54.2878 22.7157 54.7337 23.8211 55.0854C24.0768 55.1536 24.3036 55.3027 24.4676 55.5103C24.6316 55.718 24.724 55.9731 24.7311 56.2376V57.6988C24.7312 57.9163 24.8068 58.127 24.9451 58.2949C25.0834 58.4627 25.2757 58.5773 25.4892 58.6189C28.4673 59.2103 31.5327 59.2103 34.5108 58.6189C34.7242 58.5773 34.9166 58.4627 35.0549 58.2949C35.1932 58.127 35.2688 57.9163 35.2688 57.6988V56.2376C35.2759 55.9731 35.3684 55.718 35.5324 55.5103C35.6964 55.3027 35.9232 55.1536 36.1789 55.0855C37.284 54.7338 38.357 54.288 39.386 53.7529C39.6161 53.6219 39.8821 53.5679 40.1452 53.5988C40.4082 53.6297 40.6545 53.7438 40.848 53.9246L41.8872 54.9637C42.041 55.1174 42.2434 55.2129 42.4598 55.2339C42.6763 55.2548 42.8933 55.1999 43.0737 55.0786C45.5933 53.3852 47.7599 51.2184 49.4531 48.6987C49.5746 48.5184 49.6296 48.3014 49.6088 48.0849C49.5879 47.8685 49.4924 47.666 49.3387 47.5122L48.2996 46.4731C48.117 46.2806 48.0016 46.0341 47.9707 45.7705C47.9399 45.507 47.9952 45.2405 48.1284 45.011C48.6629 43.9821 49.1085 42.9095 49.4604 41.8048ZM36.5625 21.8678L41.25 23.2072V34.6875H36.5625V21.8678ZM25.3125 15.9375H34.6875V34.6875H32.8125V30.9375C32.8125 30.8144 32.7883 30.6925 32.7412 30.5787C32.6941 30.4649 32.625 30.3616 32.538 30.2745C32.4509 30.1875 32.3476 30.1184 32.2338 30.0713C32.12 30.0242 31.9981 30 31.875 30H28.125C28.0019 30 27.88 30.0242 27.7662 30.0713C27.6524 30.1184 27.5491 30.1875 27.462 30.2745C27.375 30.3616 27.3059 30.4649 27.2588 30.5787C27.2117 30.6925 27.1875 30.8144 27.1875 30.9375V34.6875H25.3125V15.9375ZM30.9375 31.875V34.6875H29.0625V31.875H30.9375ZM18.75 23.2072L23.4375 21.8678V34.6875H18.75V23.2072ZM42.9118 36.5625C42.6785 39.8277 41.2169 42.8832 38.8211 45.1139C36.4254 47.3446 33.2735 48.5848 30 48.5848C26.7265 48.5848 23.5746 47.3446 21.1789 45.1139C18.7831 42.8832 17.3215 39.8277 17.0882 36.5625H42.9118ZM47.6734 41.2363C47.3539 42.2393 46.9493 43.2131 46.464 44.1472C46.1486 44.7307 46.028 45.3998 46.1197 46.0567C46.2115 46.7136 46.5108 47.324 46.9739 47.7988L47.4573 48.2822C46.1209 50.1258 44.5008 51.7459 42.6572 53.0823L42.1738 52.5989C41.6993 52.1347 41.0885 51.8348 40.4311 51.7431C39.7737 51.6514 39.1042 51.7728 38.5208 52.0894C37.5874 52.575 36.614 52.9795 35.6113 53.2983C34.9767 53.4881 34.4194 53.8756 34.0205 54.4043C33.6216 54.933 33.4021 55.5754 33.3939 56.2376V56.9133C31.146 57.2777 28.8541 57.2777 26.6062 56.9133V56.2376C26.598 55.5754 26.3784 54.933 25.9796 54.4043C25.5807 53.8756 25.0233 53.4881 24.3888 53.2983C23.3858 52.9793 22.4121 52.5749 21.4783 52.0894C20.8949 51.7731 20.2257 51.652 19.5685 51.7437C18.9113 51.8353 18.3007 52.135 17.8262 52.5989L17.3428 53.0823C15.4992 51.7459 13.8791 50.1258 12.5427 48.2822L13.0261 47.7988C13.4893 47.3239 13.7886 46.7134 13.8804 46.0564C13.9721 45.3995 13.8515 44.7303 13.5361 44.1467C13.0507 43.2129 12.6461 42.2392 12.3267 41.2363C12.1367 40.6018 11.749 40.0446 11.2203 39.6458C10.6915 39.247 10.0492 39.0273 9.38699 39.0189H8.71125C8.58123 38.2054 8.49687 37.3854 8.45856 36.5625H15.2132C15.4469 40.3256 17.1064 43.858 19.8538 46.4401C22.6012 49.0222 26.2297 50.4597 30 50.4597C33.7704 50.4597 37.3989 49.0222 40.1462 46.4401C42.8936 43.858 44.5532 40.3256 44.7868 36.5625H51.5415C51.5032 37.3854 51.4189 38.2054 51.2888 39.0189H50.6131C49.9508 39.0273 49.3086 39.247 48.7798 39.6458C48.2511 40.0446 47.8634 40.6018 47.6734 41.2363Z" fill="#474747"/>
<path d="M30.9375 13.1249V6.38968C31.5631 6.16855 32.0903 5.73339 32.426 5.16112C32.7618 4.58885 32.8844 3.91631 32.7722 3.26238C32.6601 2.60845 32.3203 2.01522 31.8131 1.58755C31.3058 1.15989 30.6637 0.925313 30.0002 0.925293C29.3367 0.925273 28.6946 1.15981 28.1873 1.58745C27.68 2.01508 27.3402 2.60829 27.228 3.26221C27.1158 3.91614 27.2384 4.58868 27.5741 5.16097C27.9098 5.73327 28.437 6.16846 29.0625 6.38963V13.1249H30.9375ZM30 2.81244C30.1855 2.81244 30.3667 2.86742 30.5209 2.97043C30.675 3.07345 30.7952 3.21987 30.8662 3.39117C30.9371 3.56248 30.9557 3.75098 30.9195 3.93283C30.8833 4.11469 30.7941 4.28174 30.6629 4.41285C30.5318 4.54396 30.3648 4.63325 30.1829 4.66942C30.0011 4.7056 29.8126 4.68703 29.6413 4.61607C29.47 4.54512 29.3235 4.42496 29.2205 4.27078C29.1175 4.11661 29.0625 3.93536 29.0625 3.74994C29.0628 3.50137 29.1616 3.26306 29.3374 3.0873C29.5132 2.91154 29.7515 2.81269 30 2.81244Z" fill="#474747"/>
<path d="M39.375 13.125V19.6875H41.25V13.5132L42.8575 11.9057C43.2329 12.089 43.6448 12.1853 44.0625 12.1875C44.6188 12.1875 45.1625 12.0226 45.625 11.7135C46.0876 11.4045 46.448 10.9652 46.6609 10.4513C46.8738 9.93738 46.9295 9.37188 46.821 8.82631C46.7124 8.28074 46.4446 7.7796 46.0512 7.38626C45.6579 6.99293 45.1568 6.72506 44.6112 6.61654C44.0656 6.50802 43.5001 6.56372 42.9862 6.77659C42.4723 6.98946 42.033 7.34995 41.724 7.81246C41.415 8.27497 41.25 8.81874 41.25 9.375C41.2522 9.79274 41.3485 10.2046 41.5318 10.58L39.6497 12.4622C39.4739 12.638 39.3751 12.8764 39.375 13.125ZM44.0625 8.4375C44.2479 8.4375 44.4292 8.49248 44.5833 8.5955C44.7375 8.69851 44.8577 8.84493 44.9286 9.01624C44.9996 9.18754 45.0182 9.37604 44.982 9.5579C44.9458 9.73976 44.8565 9.9068 44.7254 10.0379C44.5943 10.169 44.4273 10.2583 44.2454 10.2945C44.0635 10.3307 43.875 10.3121 43.7037 10.2411C43.5324 10.1702 43.386 10.05 43.283 9.89585C43.18 9.74168 43.125 9.56042 43.125 9.375C43.1252 9.12644 43.2241 8.88812 43.3999 8.71236C43.5756 8.5366 43.8139 8.43775 44.0625 8.4375Z" fill="#474747"/>
<path d="M15.9375 6.5625C15.1916 6.5625 14.4762 6.85882 13.9488 7.38626C13.4213 7.91371 13.125 8.62908 13.125 9.375C13.125 10.1209 13.4213 10.8363 13.9488 11.3637C14.4762 11.8912 15.1916 12.1875 15.9375 12.1875C16.3552 12.1853 16.7671 12.089 17.1425 11.9057L18.75 13.5132V19.6875H20.625V13.125C20.6249 12.8764 20.5261 12.638 20.3503 12.4622L18.4682 10.58C18.6515 10.2046 18.7478 9.79274 18.75 9.375C18.7492 8.62933 18.4526 7.91443 17.9253 7.38716C17.3981 6.85989 16.6832 6.56331 15.9375 6.5625ZM15.9375 10.3125C15.7521 10.3125 15.5708 10.2575 15.4167 10.1545C15.2625 10.0515 15.1423 9.90507 15.0714 9.73377C15.0004 9.56246 14.9818 9.37396 15.018 9.1921C15.0542 9.01025 15.1435 8.8432 15.2746 8.71209C15.4057 8.58098 15.5727 8.49169 15.7546 8.45551C15.9365 8.41934 16.125 8.43791 16.2963 8.50886C16.4676 8.57982 16.614 8.69998 16.717 8.85415C16.82 9.00832 16.875 9.18958 16.875 9.375C16.8748 9.62356 16.7759 9.86188 16.6001 10.0376C16.4244 10.2134 16.1861 10.3123 15.9375 10.3125Z" fill="#474747"/>
<path d="M6.56264 16.875C6.10163 16.8737 5.64737 16.9857 5.23984 17.2013C4.83231 17.4168 4.48401 17.7292 4.22559 18.111C3.96717 18.4927 3.80656 18.9322 3.7579 19.3906C3.70924 19.8491 3.77401 20.3124 3.94652 20.7399C4.11904 21.1675 4.39399 21.546 4.7472 21.8423C5.1004 22.1386 5.52102 22.3435 5.97203 22.439C6.42304 22.5345 6.89061 22.5177 7.33359 22.39C7.77657 22.2623 8.18137 22.0277 8.51237 21.7068L11.2501 23.0786V30H13.1251V22.5C13.1251 22.3261 13.0767 22.1556 12.9854 22.0076C12.894 21.8596 12.7633 21.7399 12.6079 21.6619L9.34103 20.0247C9.35929 19.9131 9.37068 19.8005 9.37514 19.6875C9.37432 18.9418 9.07775 18.2269 8.55048 17.6997C8.02321 17.1724 7.30831 16.8758 6.56264 16.875ZM6.56264 20.625C6.37722 20.625 6.19596 20.57 6.04179 20.467C5.88762 20.364 5.76746 20.2176 5.6965 20.0463C5.62554 19.875 5.60698 19.6865 5.64315 19.5046C5.67932 19.3228 5.76861 19.1557 5.89973 19.0246C6.03084 18.8935 6.19788 18.8042 6.37974 18.768C6.5616 18.7319 6.7501 18.7504 6.9214 18.8214C7.09271 18.8923 7.23913 19.0125 7.34214 19.1667C7.44515 19.3208 7.50014 19.5021 7.50014 19.6875C7.49989 19.9361 7.40104 20.1744 7.22528 20.3501C7.04951 20.5259 6.8112 20.6248 6.56264 20.625Z" fill="#474747"/>
<path d="M11.25 31.875H13.125V33.75H11.25V31.875Z" fill="#474747"/>
<path d="M56.25 19.6875C56.25 18.9416 55.9537 18.2262 55.4262 17.6988C54.8988 17.1713 54.1834 16.875 53.4375 16.875C52.6916 16.875 51.9762 17.1713 51.4488 17.6988C50.9213 18.2262 50.625 18.9416 50.625 19.6875C50.6295 19.8005 50.6409 19.9131 50.6591 20.0246L47.3923 21.6619C47.2368 21.7399 47.1061 21.8596 47.0148 22.0076C46.9234 22.1556 46.875 22.3261 46.875 22.5V30H48.75V23.0786L51.4878 21.7068C51.8839 22.0914 52.3846 22.3507 52.9273 22.4521C53.47 22.5536 54.0306 22.4928 54.5389 22.2772C55.0472 22.0617 55.4806 21.7011 55.785 21.2404C56.0893 20.7798 56.2511 20.2396 56.25 19.6875ZM52.5 19.6875C52.5 19.5021 52.555 19.3208 52.658 19.1667C52.761 19.0125 52.9074 18.8923 53.0787 18.8214C53.25 18.7504 53.4385 18.7318 53.6204 18.768C53.8023 18.8042 53.9693 18.8935 54.1004 19.0246C54.2315 19.1557 54.3208 19.3227 54.357 19.5046C54.3932 19.6865 54.3746 19.875 54.3036 20.0463C54.2327 20.2176 54.1125 20.364 53.9583 20.467C53.8042 20.57 53.6229 20.625 53.4375 20.625C53.1889 20.6248 52.9506 20.5259 52.7749 20.3501C52.5991 20.1744 52.5002 19.9361 52.5 19.6875Z" fill="#474747"/>
<path d="M46.875 31.875H48.75V33.75H46.875V31.875Z" fill="#474747"/>
<path d="M27.1875 18.75H32.8125V20.625H27.1875V18.75Z" fill="#474747"/>
<path d="M27.1875 22.5H32.8125V24.375H27.1875V22.5Z" fill="#474747"/>
<path d="M27.1875 26.25H32.8125V28.125H27.1875V26.25Z" fill="#474747"/>
<path d="M37.5 24.375H40.3125V26.25H37.5V24.375Z" fill="#474747"/>
<path d="M37.5 28.125H40.3125V30H37.5V28.125Z" fill="#474747"/>
<path d="M19.6875 24.375H22.5V26.25H19.6875V24.375Z" fill="#474747"/>
<path d="M19.6875 28.125H22.5V30H19.6875V28.125Z" fill="#474747"/>
</svg>
