<svg width="14" height="14" viewBox="0 0 14 14" fill="none" xmlns="http://www.w3.org/2000/svg">
<path d="M3.66634 3.33335V1.33335C3.66634 0.965167 3.96482 0.666687 4.33301 0.666687H9.66634C10.0345 0.666687 10.333 0.965167 10.333 1.33335V3.33335H12.9997C13.3679 3.33335 13.6663 3.63183 13.6663 4.00002V13.3334C13.6663 13.7016 13.3679 14 12.9997 14H0.999674C0.631488 14 0.333008 13.7016 0.333008 13.3334V4.00002C0.333008 3.63183 0.631488 3.33335 0.999674 3.33335H3.66634ZM1.66634 10.6667V12.6667H12.333V10.6667H1.66634ZM1.66634 9.33335H12.333V4.66669H1.66634V9.33335ZM4.99967 2.00002V3.33335H8.99967V2.00002H4.99967ZM6.33301 7.33335H7.66634V8.66669H6.33301V7.33335Z" fill="#808080"/>
</svg>
