<svg width="450" height="408" viewBox="0 0 450 408" fill="none" xmlns="http://www.w3.org/2000/svg">
<g clip-path="url(#clip0_882_1649)">
<path d="M235.305 366.235L227.61 248.071L227.88 248.026L236.61 366.145C236.19 366.175 235.755 366.205 235.305 366.235ZM211.455 366.145L210.33 366.055L219.78 248.026L220.185 248.071L211.455 366.145ZM260.685 362.59L234.855 247.036L235.395 246.901L261.63 362.365L260.685 362.59ZM186.48 362.41L185.355 362.14L212.265 246.811L212.715 246.901L186.48 362.41ZM284.76 355.346L242.235 244.832L242.55 244.742L285.93 354.896C285.54 355.046 285.15 355.196 284.76 355.346ZM162.225 354.986L161.19 354.581L205.02 244.562L205.425 244.742L162.225 354.986ZM307.71 344.456L248.94 241.637L249.345 241.412L308.655 343.916L307.71 344.456ZM139.41 343.961C139.05 343.751 138.69 343.541 138.33 343.331L198.36 241.277L198.675 241.457L139.41 343.961ZM328.59 330.417L255.42 237.317L255.645 237.137L329.58 329.607C329.25 329.877 328.92 330.147 328.59 330.417ZM118.575 329.742C118.215 329.442 117.855 329.142 117.495 328.842L192.24 237.002L192.33 237.092L118.575 329.742ZM347.265 313.318L260.955 232.232L261.225 231.962L348.075 312.463L347.265 313.318ZM100.035 312.553L99.3154 311.788L186.48 231.602L186.795 231.962L100.035 312.553ZM363.06 293.789L265.815 226.203L265.95 225.978L363.78 292.709C363.54 293.069 363.3 293.429 363.06 293.789ZM84.2854 292.844C84.0454 292.514 83.8054 292.169 83.5654 291.809L181.8 225.708L181.98 225.978L84.2854 292.844ZM376.02 271.785L269.595 219.813L269.82 219.318L376.425 270.84L376.02 271.785ZM71.6404 270.975C71.4604 270.585 71.2804 270.21 71.1004 269.85L178.11 219.138L178.245 219.408L71.6404 270.975ZM385.425 248.431L272.52 212.658L272.61 212.388L385.785 247.216C385.665 247.636 385.545 248.041 385.425 248.431ZM62.3704 247.396C62.2504 247.006 62.1304 246.616 62.0104 246.226L175.41 212.118L175.5 212.478L62.3704 247.396ZM391.275 223.638L274.23 205.459L274.32 205.054L391.41 222.513L391.275 223.638ZM56.7904 222.738C56.7304 222.318 56.6704 221.913 56.6104 221.523L173.835 204.739L173.88 205.099L56.7904 222.738ZM393.345 198.709L274.905 197.629V197.134H393.345V197.404C393.345 197.824 393.345 198.259 393.345 198.709ZM173.34 197.494H54.9004V196.414L173.34 197.044V197.494ZM274.365 189.89V189.665L391.41 171.846C391.47 172.266 391.53 172.701 391.59 173.15L274.365 189.89ZM173.88 189.71L56.7454 172.431C56.8054 172.011 56.8654 171.591 56.9254 171.171L173.925 189.395L173.88 189.71ZM272.79 182.69L272.655 182.15L385.785 147.187L386.055 148.177L272.79 182.69ZM175.545 182.375L62.3704 147.592L62.6854 146.467L175.68 181.97L175.545 182.375ZM270.09 175.625L269.865 175.175L376.47 123.563L376.92 124.553L270.09 175.625ZM178.29 175.4L71.5954 123.968L72.0904 122.978L178.47 174.95L178.29 175.4ZM266.4 169.101L266.085 168.651L363.825 101.784L364.41 102.594L266.4 169.101ZM182.115 168.786L84.2404 102.144C84.4504 101.814 84.6754 101.484 84.9154 101.154L182.295 168.516L182.115 168.786ZM261.495 162.891L261.36 162.756L347.985 82.0305C348.315 82.3605 348.63 82.6905 348.93 83.0204L261.495 162.891ZM186.885 162.801L99.9454 82.3905C100.245 82.0905 100.53 81.7905 100.8 81.4905L187.11 162.576L186.885 162.801ZM256.005 157.716L255.735 157.491L329.49 64.8414C329.82 65.1114 330.135 65.3814 330.435 65.6514L256.005 157.716ZM192.51 157.581L118.485 65.1564C118.815 64.8864 119.145 64.6164 119.475 64.3465L192.735 157.401L192.51 157.581ZM249.795 153.397L249.48 153.217L308.61 50.6222L309.645 51.2072L249.795 153.397ZM198.765 153.262L139.32 50.8472C139.65 50.6672 139.995 50.4722 140.355 50.2622L199.08 153.127L198.765 153.262ZM242.91 150.022L242.595 149.887L285.75 39.5978C286.14 39.7478 286.53 39.8978 286.92 40.0478L242.91 150.022ZM205.515 149.977L162 39.8228C162.39 39.6728 162.78 39.5228 163.17 39.3728L205.83 149.842L205.515 149.977ZM235.71 147.817L235.395 147.727L261.405 32.2182C261.795 32.3082 262.2 32.3982 262.62 32.4882L235.71 147.817ZM212.67 147.772L186.255 32.3532C186.645 32.2632 187.05 32.1732 187.47 32.0832L212.94 147.727L212.67 147.772ZM228.195 146.647H227.88L236.43 28.5284C236.85 28.5584 237.27 28.5884 237.69 28.6184L228.195 146.647ZM220.14 146.647L211.23 28.5284C211.62 28.4984 212.025 28.4834 212.445 28.4834L220.5 146.602L220.14 146.647Z" fill="white"/>
<path d="M84.8247 341.486C83.2647 341.486 81.8847 340.976 80.6847 339.956C79.5147 338.936 78.9297 337.511 78.9297 335.682C78.9297 334.032 79.4997 332.652 80.6397 331.542C81.7797 330.432 83.1747 329.877 84.8247 329.877C86.4747 329.877 87.8547 330.432 88.9647 331.542C90.0747 332.652 90.6297 334.032 90.6297 335.682C90.6297 337.481 90.0447 338.891 88.8747 339.911C87.7047 340.961 86.3547 341.486 84.8247 341.486Z" fill="white"/>
<path d="M66.5996 296.264C66.5996 293.894 67.3646 291.479 68.8946 289.019C70.4546 286.559 72.7046 284.519 75.6446 282.899C78.6146 281.31 82.0796 280.515 86.0396 280.515C89.6996 280.515 92.9246 281.19 95.7146 282.54C98.5346 283.859 100.71 285.689 102.24 288.029C103.77 290.339 104.535 292.844 104.535 295.544C104.535 297.704 104.1 299.579 103.23 301.168C102.36 302.788 101.325 304.183 100.125 305.353C98.9246 306.523 96.7646 308.488 93.6446 311.248C92.7746 312.028 92.0846 312.718 91.5746 313.318C91.0646 313.888 90.6746 314.428 90.4046 314.938C90.1646 315.418 89.9696 315.898 89.8196 316.378C89.6996 316.888 89.4896 317.758 89.1896 318.988C88.7096 321.597 87.2096 322.902 84.6896 322.902C83.3696 322.902 82.2596 322.482 81.3596 321.642C80.4596 320.772 80.0096 319.497 80.0096 317.818C80.0096 315.688 80.3396 313.858 80.9996 312.328C81.6596 310.768 82.5296 309.403 83.6096 308.233C84.7196 307.063 86.1896 305.683 88.0196 304.093C89.6396 302.683 90.8096 301.618 91.5296 300.898C92.2496 300.179 92.8646 299.384 93.3746 298.514C93.8546 297.614 94.0946 296.654 94.0946 295.634C94.0946 293.624 93.3446 291.929 91.8446 290.549C90.3446 289.169 88.4096 288.479 86.0396 288.479C83.2496 288.479 81.1946 289.169 79.8746 290.549C78.5546 291.959 77.4446 294.014 76.5446 296.714C75.6746 299.564 74.0396 300.988 71.6396 300.988C70.2296 300.988 69.0296 300.493 68.0396 299.504C67.0796 298.514 66.5996 297.434 66.5996 296.264Z" fill="white"/>
<path d="M365.669 272.37C364.109 272.22 362.774 271.605 361.664 270.525C360.554 269.415 360.074 267.945 360.224 266.115C360.344 264.496 361.019 263.176 362.249 262.156C363.479 261.136 364.919 260.686 366.569 260.806C368.189 260.926 369.524 261.586 370.574 262.786C371.594 263.956 372.044 265.365 371.924 267.015C371.774 268.815 371.084 270.18 369.854 271.11C368.594 272.04 367.199 272.46 365.669 272.37Z" fill="white"/>
<path d="M350.956 225.888C351.136 223.518 352.081 221.163 353.791 218.823C355.531 216.483 357.931 214.623 360.991 213.243C364.051 211.863 367.561 211.323 371.521 211.623C375.151 211.923 378.316 212.853 381.016 214.413C383.716 215.943 385.741 217.923 387.091 220.353C388.441 222.783 389.011 225.348 388.801 228.047C388.651 230.177 388.081 232.022 387.091 233.582C386.101 235.112 384.961 236.417 383.671 237.497C382.381 238.577 380.086 240.377 376.786 242.897C375.856 243.587 375.106 244.217 374.536 244.787C373.996 245.327 373.576 245.837 373.276 246.316C372.976 246.766 372.736 247.231 372.556 247.711C372.376 248.191 372.106 249.046 371.746 250.276C371.086 252.826 369.481 254.011 366.931 253.831C365.641 253.741 364.576 253.231 363.736 252.301C362.896 251.371 362.551 250.066 362.701 248.386C362.851 246.286 363.316 244.487 364.096 242.987C364.876 241.487 365.851 240.197 367.021 239.117C368.191 238.037 369.751 236.762 371.701 235.292C373.441 234.032 374.686 233.072 375.436 232.412C376.216 231.752 376.891 231.002 377.461 230.162C378.001 229.322 378.316 228.377 378.406 227.328C378.556 225.318 377.941 223.578 376.561 222.108C375.151 220.608 373.261 219.768 370.891 219.588C368.131 219.378 366.031 219.918 364.591 221.208C363.181 222.498 361.921 224.463 360.811 227.103C359.731 229.862 357.991 231.152 355.591 230.972C354.181 230.882 353.041 230.297 352.171 229.217C351.271 228.167 350.866 227.058 350.956 225.888Z" fill="white"/>
<path d="M80.8224 123.473C79.4124 123.413 78.2124 122.903 77.2224 121.943C76.2324 120.983 75.7674 119.693 75.8274 118.074C75.9174 116.634 76.4874 115.449 77.5374 114.519C78.6174 113.589 79.8924 113.169 81.3624 113.259C82.8024 113.319 83.9874 113.874 84.9174 114.924C85.8774 115.944 86.3124 117.174 86.2224 118.613C86.1324 120.203 85.5474 121.433 84.4674 122.303C83.3874 123.173 82.1724 123.563 80.8224 123.473Z" fill="white"/>
<path d="M66.7365 82.6155C66.8565 80.5156 67.6515 78.4157 69.1215 76.3158C70.6215 74.2159 72.7065 72.521 75.3765 71.2311C78.0765 69.9411 81.1815 69.3862 84.6915 69.5662C87.9315 69.7162 90.7665 70.4511 93.1965 71.771C95.5965 73.091 97.4265 74.8159 98.6865 76.9458C99.9465 79.0756 100.501 81.3405 100.351 83.7404C100.261 85.6303 99.7965 87.2652 98.9565 88.6451C98.1165 90.025 97.1265 91.21 95.9865 92.1999C94.8765 93.1899 92.8815 94.8398 90.0015 97.1497C89.2215 97.7796 88.5765 98.3496 88.0665 98.8596C87.5865 99.3695 87.2265 99.8345 86.9865 100.254C86.7465 100.674 86.5515 101.094 86.4015 101.514C86.2515 101.934 86.0265 102.684 85.7265 103.764C85.1865 106.074 83.7915 107.169 81.5415 107.049C80.3715 106.989 79.4115 106.554 78.6615 105.744C77.9115 104.964 77.5665 103.824 77.6265 102.324C77.7465 100.464 78.1215 98.8596 78.7515 97.5096C79.4115 96.1597 80.2515 94.9898 81.2715 93.9998C82.2915 93.0399 83.6565 91.8849 85.3665 90.535C86.8665 89.3651 87.9465 88.4801 88.6065 87.8802C89.2965 87.2802 89.8815 86.5902 90.3615 85.8103C90.8115 85.0603 91.0665 84.2354 91.1265 83.3354C91.2165 81.5355 90.6315 79.9906 89.3715 78.7007C88.1115 77.4107 86.4165 76.7058 84.2865 76.5858C81.8265 76.4658 79.9815 76.9908 78.7515 78.1607C77.5215 79.3306 76.4415 81.1005 75.5115 83.4704C74.6415 85.9603 73.1415 87.1452 71.0115 87.0252C69.7515 86.9652 68.7165 86.4702 67.9065 85.5403C67.0665 84.6103 66.6765 83.6354 66.7365 82.6155Z" fill="white"/>
<path d="M119.385 258.826C118.485 258.766 117.72 258.421 117.09 257.791C116.49 257.161 116.22 256.336 116.28 255.316C116.37 254.386 116.76 253.636 117.45 253.066C118.14 252.496 118.95 252.241 119.88 252.301C120.78 252.391 121.53 252.766 122.13 253.426C122.7 254.086 122.955 254.881 122.895 255.811C122.805 256.831 122.415 257.611 121.725 258.151C121.035 258.661 120.255 258.886 119.385 258.826Z" fill="white"/>
<path d="M111.016 232.592C111.136 231.272 111.676 229.952 112.636 228.632C113.596 227.313 114.946 226.263 116.686 225.483C118.426 224.703 120.406 224.388 122.626 224.538C124.696 224.718 126.496 225.243 128.026 226.113C129.526 226.983 130.666 228.107 131.446 229.487C132.196 230.837 132.511 232.277 132.391 233.807C132.301 235.007 131.986 236.042 131.446 236.912C130.876 237.782 130.231 238.532 129.511 239.162C128.791 239.762 127.486 240.767 125.596 242.177C125.086 242.597 124.681 242.957 124.381 243.257C124.051 243.557 123.811 243.842 123.661 244.112C123.481 244.382 123.346 244.652 123.256 244.922C123.166 245.192 123.016 245.672 122.806 246.361C122.416 247.801 121.501 248.476 120.061 248.386C119.341 248.326 118.741 248.041 118.261 247.531C117.781 246.991 117.586 246.257 117.676 245.327C117.766 244.127 118.021 243.107 118.441 242.267C118.891 241.427 119.446 240.692 120.106 240.062C120.766 239.462 121.651 238.742 122.761 237.902C123.721 237.182 124.426 236.642 124.876 236.282C125.296 235.892 125.671 235.472 126.001 235.022C126.301 234.542 126.481 234.002 126.541 233.402C126.631 232.292 126.271 231.302 125.461 230.432C124.681 229.592 123.631 229.127 122.311 229.037C120.721 228.917 119.536 229.217 118.756 229.937C117.946 230.687 117.226 231.797 116.596 233.267C115.996 234.857 115.021 235.592 113.671 235.472C112.861 235.412 112.201 235.082 111.691 234.482C111.211 233.882 110.986 233.252 111.016 232.592Z" fill="white"/>
<path d="M300.331 271.965C299.461 271.905 298.711 271.56 298.081 270.93C297.451 270.3 297.181 269.475 297.271 268.455C297.331 267.555 297.706 266.805 298.396 266.205C299.086 265.635 299.896 265.38 300.826 265.44C301.756 265.53 302.506 265.905 303.076 266.565C303.676 267.255 303.931 268.05 303.841 268.95C303.781 269.97 303.406 270.75 302.716 271.29C301.996 271.83 301.201 272.055 300.331 271.965Z" fill="white"/>
<path d="M292.006 245.777C292.096 244.427 292.636 243.092 293.626 241.772C294.586 240.452 295.936 239.402 297.676 238.622C299.416 237.842 301.396 237.542 303.616 237.722C305.656 237.872 307.441 238.382 308.971 239.252C310.501 240.122 311.641 241.247 312.391 242.627C313.171 243.977 313.501 245.417 313.381 246.946C313.291 248.176 312.961 249.211 312.391 250.051C311.851 250.921 311.221 251.671 310.501 252.301C309.751 252.901 308.446 253.906 306.586 255.316C306.076 255.736 305.656 256.096 305.326 256.396C305.026 256.726 304.786 257.011 304.606 257.251C304.456 257.521 304.336 257.791 304.246 258.061C304.126 258.331 303.961 258.811 303.751 259.501C303.391 260.941 302.491 261.616 301.051 261.526C300.301 261.466 299.701 261.181 299.251 260.671C298.771 260.131 298.576 259.396 298.666 258.466C298.726 257.266 298.981 256.246 299.431 255.406C299.881 254.566 300.436 253.846 301.096 253.246C301.756 252.616 302.641 251.896 303.751 251.086C304.711 250.336 305.401 249.781 305.821 249.421C306.271 249.031 306.661 248.611 306.991 248.161C307.291 247.681 307.456 247.141 307.486 246.541C307.576 245.432 307.231 244.457 306.451 243.617C305.671 242.777 304.606 242.297 303.256 242.177C301.696 242.057 300.511 242.372 299.701 243.122C298.921 243.842 298.216 244.952 297.586 246.451C296.986 248.011 295.996 248.731 294.616 248.611C293.836 248.551 293.191 248.221 292.681 247.621C292.171 247.021 291.946 246.406 292.006 245.777Z" fill="white"/>
<path d="M365.58 129.413C364.68 129.413 363.9 129.128 363.24 128.558C362.58 127.988 362.25 127.193 362.25 126.173C362.25 125.243 362.565 124.463 363.195 123.833C363.855 123.203 364.65 122.888 365.58 122.888C366.51 122.888 367.29 123.203 367.92 123.833C368.55 124.463 368.865 125.243 368.865 126.173C368.865 127.193 368.535 127.988 367.875 128.558C367.215 129.128 366.45 129.413 365.58 129.413Z" fill="white"/>
<path d="M355.275 103.899C355.275 102.549 355.71 101.184 356.58 99.8045C357.45 98.4246 358.725 97.2846 360.405 96.3847C362.085 95.4547 364.035 94.9898 366.255 94.9898C368.325 94.9898 370.155 95.3798 371.745 96.1597C373.335 96.9097 374.55 97.9446 375.39 99.2645C376.26 100.554 376.695 101.964 376.695 103.494C376.695 104.724 376.455 105.789 375.975 106.689C375.465 107.589 374.88 108.369 374.22 109.029C373.53 109.689 372.315 110.799 370.575 112.359C370.095 112.809 369.705 113.199 369.405 113.529C369.105 113.859 368.88 114.159 368.73 114.429C368.58 114.729 368.475 115.014 368.415 115.284C368.325 115.554 368.205 116.034 368.055 116.724C367.785 118.223 366.93 118.973 365.49 118.973C364.77 118.973 364.155 118.718 363.645 118.209C363.135 117.729 362.88 117.024 362.88 116.094C362.88 114.894 363.06 113.859 363.42 112.989C363.81 112.119 364.305 111.354 364.905 110.694C365.535 110.034 366.36 109.239 367.38 108.309C368.31 107.529 368.97 106.929 369.36 106.509C369.78 106.119 370.125 105.669 370.395 105.159C370.665 104.679 370.8 104.139 370.8 103.539C370.8 102.399 370.38 101.439 369.54 100.659C368.7 99.8795 367.605 99.4895 366.255 99.4895C364.695 99.4895 363.54 99.8945 362.79 100.704C362.04 101.484 361.41 102.639 360.9 104.169C360.42 105.759 359.505 106.554 358.155 106.554C357.345 106.554 356.67 106.284 356.13 105.744C355.56 105.174 355.275 104.559 355.275 103.899Z" fill="white"/>
<path fill-rule="evenodd" clip-rule="evenodd" d="M399.51 297.164H236.835C233.955 297.164 231.57 294.779 231.57 291.899V54.942C231.57 52.0621 233.955 49.6773 236.835 49.6773H399.51C402.435 49.6773 404.82 52.0621 404.82 54.942V291.899C404.82 294.779 402.435 297.164 399.51 297.164ZM236.835 49.9022C234.09 49.9022 231.795 52.1521 231.795 54.942V291.899C231.795 294.689 234.09 296.939 236.835 296.939H399.51C402.3 296.939 404.595 294.689 404.595 291.899V54.942C404.595 52.1521 402.3 49.9022 399.51 49.9022H236.835Z" fill="white"/>
<path fill-rule="evenodd" clip-rule="evenodd" d="M211.95 297.164H49.2748C46.3498 297.164 44.0098 294.779 44.0098 291.899V54.942C44.0098 52.0621 46.3498 49.6773 49.2748 49.6773H211.95C214.875 49.6773 217.215 52.0621 217.215 54.942V291.899C217.215 294.779 214.875 297.164 211.95 297.164ZM49.2748 49.9022C46.4848 49.9022 44.2348 52.1521 44.2348 54.942V291.899C44.2348 294.689 46.4848 296.939 49.2748 296.939H211.95C214.74 296.939 216.99 294.689 216.99 291.899V54.942C216.99 52.1521 214.74 49.9022 211.95 49.9022H49.2748Z" fill="white"/>
<path d="M450 352.331H0V352.106H450V352.331Z" fill="white"/>
<path d="M46.4844 364.975H60.9744V365.2H46.4844V364.975Z" fill="white"/>
<path d="M153.314 362.5H201.509V362.725H153.314V362.5Z" fill="white"/>
<path d="M61.875 373.299H94.5V373.524H61.875V373.299Z" fill="white"/>
<path d="M340.516 362.41H379.396V362.635H340.516V362.41Z" fill="white"/>
<path d="M387.406 362.41H393.121V362.635H387.406V362.41Z" fill="white"/>
<path d="M284.58 367.99H333.09V368.215H284.58V367.99Z" fill="white"/>
<path d="M117.451 153.442C117.451 139.282 121.801 124.943 130.501 110.424C139.231 95.9047 151.951 83.8754 168.661 74.3359C185.371 64.7964 204.871 60.0267 227.161 60.0267C247.861 60.0267 266.146 64.0165 282.016 71.996C297.856 79.9756 310.096 90.82 318.736 104.529C327.376 118.239 331.696 133.133 331.696 149.212C331.696 161.871 329.236 172.971 324.316 182.51C319.396 192.049 313.546 200.284 306.766 207.214C299.956 214.143 287.776 225.798 270.226 242.177C265.366 246.796 261.466 250.861 258.526 254.371C255.616 257.881 253.441 261.076 252.001 263.956C250.561 266.865 249.451 269.775 248.671 272.685C247.891 275.595 246.721 280.695 245.161 287.984C242.431 303.493 233.926 311.248 219.646 311.248C212.206 311.248 205.951 308.713 200.881 303.643C195.811 298.574 193.276 291.044 193.276 281.055C193.276 268.545 195.136 257.716 198.856 248.566C202.576 239.387 207.511 231.332 213.661 224.403C219.811 217.473 228.091 209.239 238.501 199.699C247.651 191.359 254.266 185.075 258.346 180.845C262.396 176.585 265.816 171.846 268.606 166.626C271.396 161.436 272.791 155.781 272.791 149.662C272.791 137.752 268.546 127.688 260.056 119.468C251.536 111.279 240.571 107.184 227.161 107.184C211.441 107.184 199.861 111.324 192.421 119.603C185.011 127.853 178.726 140.032 173.566 156.141C168.706 172.971 159.496 181.385 145.936 181.385C137.926 181.385 131.176 178.445 125.686 172.566C120.196 166.686 117.451 160.311 117.451 153.442Z" fill="#407BFF"/>
<g opacity="0.2">
<path d="M267.481 218.373C263.701 197.224 259.786 188.675 254.701 184.49C250.711 188.42 245.311 193.489 238.501 199.699C229.741 207.739 222.496 214.848 216.766 221.028C218.926 248.791 222.031 288.254 222.076 288.569L223.921 310.978C231.871 309.988 237.691 306.148 241.381 299.459C240.706 291.089 239.176 287.849 239.176 287.849C239.176 287.849 241.111 259.456 242.956 237.362C245.521 246.182 248.041 256.036 251.371 265.305C251.581 264.855 251.791 264.405 252.001 263.956C253.441 261.076 255.616 257.881 258.526 254.371C261.466 250.861 265.366 246.796 270.226 242.177C270.676 241.727 271.126 241.322 271.621 240.872C269.866 231.917 268.291 223.458 267.481 218.373Z" fill="black"/>
</g>
<g opacity="0.2">
<path d="M277.832 188.36L269.462 164.916C269.192 165.516 268.907 166.086 268.607 166.626C266.957 169.746 265.082 172.671 262.982 175.4L271.217 190.925C270.722 191.689 270.092 192.949 270.182 194.299C270.362 196.504 269.912 198.304 270.182 199.924C270.407 201.544 271.577 199.699 272.027 198.574C272.477 197.449 272.972 196.189 273.737 196.639C274.547 197.089 278.462 203.929 279.632 204.424C280.802 204.919 280.532 203.614 280.532 203.614C280.532 203.614 281.522 205.279 282.287 205.054C282.467 204.964 282.827 204.514 282.512 203.704C281.747 201.904 279.947 198.124 279.947 198.124C280.037 198.349 282.602 202.849 283.052 203.434C283.682 204.244 284.402 204.334 284.852 203.974C285.482 203.434 282.512 197.764 282.557 197.449C282.557 197.449 284.177 200.734 285.257 200.824C286.337 200.869 285.437 198.709 284.267 196.954C283.232 195.379 281.567 191.959 280.352 190.43C279.542 189.44 278.732 188.72 277.832 188.36Z" fill="black"/>
</g>
<g opacity="0.2">
<path fill-rule="evenodd" clip-rule="evenodd" d="M183.107 133.103C181.307 136.433 179.597 140.077 177.977 144.037C177.122 138.547 176.537 133.418 176.357 131.303H176.267C176.267 131.303 173.747 122.978 173.612 122.078C173.567 121.538 175.727 119.648 177.797 118.074V114.654C174.422 114.249 171.632 110.559 171.317 105.879C171.002 100.794 173.792 96.4747 177.527 96.2497C177.737 96.2197 177.962 96.2197 178.202 96.2497C178.172 96.2497 178.142 96.2497 178.112 96.2497C178.172 96.2497 178.232 96.2497 178.292 96.2497C178.262 96.2497 178.232 96.2497 178.202 96.2497C178.412 96.1897 178.637 96.1597 178.877 96.1597C182.612 95.9347 185.852 99.8495 186.167 104.979C186.482 110.064 183.737 114.339 180.002 114.564C179.912 114.594 179.807 114.609 179.687 114.609V116.679C180.317 116.229 180.812 115.914 181.037 115.824C182.117 115.329 182.567 117.039 182.162 117.579C182.162 117.609 182.207 117.654 182.297 117.714C183.422 118.569 183.602 120.188 182.657 121.223C182.657 121.223 182.972 121.358 183.197 121.988C183.692 123.293 182.432 124.643 182.432 124.643C182.432 124.643 183.467 129.638 182.252 130.268C182.192 130.298 182.147 130.328 182.117 130.358L183.107 133.103ZM179.282 114.564C179.222 114.564 179.162 114.564 179.102 114.564C179.132 114.564 179.162 114.564 179.192 114.564C179.222 114.564 179.252 114.564 179.282 114.564Z" fill="black"/>
</g>
<g opacity="0.2">
<path d="M218.118 86.1703C218.088 86.1703 218.058 86.1703 218.028 86.1703C217.488 86.0803 216.933 86.0503 216.363 86.0803C214.293 85.9453 212.538 85.7653 207.588 87.6102C201.738 89.9951 199.218 94.6298 198.498 98.2296C198.093 103.179 199.038 106.914 199.308 111.864L199.668 111.324C199.668 111.804 199.683 112.284 199.713 112.764C199.713 113.034 199.758 113.304 199.803 113.529C206.823 109.299 215.913 107.184 227.163 107.184C227.763 107.184 228.363 107.199 228.963 107.229C228.843 107.049 228.693 106.899 228.513 106.779C228.873 105.474 229.188 104.124 229.458 102.819C229.683 101.604 229.773 100.344 229.683 99.0846C231.438 99.7145 233.148 100.974 233.823 102.504C234.723 104.529 235.488 106.149 236.523 107.904C243.723 109.104 250.068 111.714 255.558 115.734C257.943 115.284 260.238 114.474 262.218 112.989C265.143 110.784 267.123 106.554 265.908 102.864C264.738 103.989 263.163 104.484 261.633 104.259C262.938 102.909 263.478 100.704 262.983 98.7696C257.943 100.794 251.913 103.269 247.053 100.704C244.848 99.5345 243.408 96.9697 241.653 95.0798C239.853 93.1899 237.918 91.3 235.533 90.58C233.598 89.9501 229.818 91.165 227.793 92.8749C227.478 92.2899 227.118 91.75 226.713 91.21C224.823 89.3201 221.853 86.6653 218.118 86.1703Z" fill="black"/>
</g>
<path d="M220.501 421.222C211.531 421.222 203.716 418.207 197.056 412.177C190.396 406.118 187.066 397.658 187.066 386.799C187.066 377.169 190.291 369.07 196.741 362.5C203.191 355.9 211.111 352.601 220.501 352.601C229.741 352.601 237.511 355.9 243.811 362.5C250.111 369.07 253.261 377.169 253.261 386.799C253.261 397.508 249.961 405.923 243.361 412.042C236.761 418.162 229.141 421.222 220.501 421.222Z" fill="#407BFF"/>
<g opacity="0.2">
<path d="M222.301 361.285C221.401 360.43 220.096 360.25 218.836 360.16C215.371 359.98 212.176 360.475 208.846 361.42C203.896 363.31 199.666 367.09 197.236 371.77C194.806 376.494 194.131 382.074 195.391 387.249C195.976 389.589 197.551 392.198 199.936 392.108C201.556 392.018 202.771 390.759 203.851 389.589C206.371 386.739 208.891 383.904 211.411 381.084C215.191 376.809 219.016 372.535 221.896 367.63C223.021 365.65 223.921 362.905 222.301 361.285Z" fill="white"/>
</g>
<path d="M271.528 53.1421C262.438 46.4374 249.658 48.3723 242.998 57.4168C237.823 64.4365 237.823 73.616 242.233 80.5456L240.613 86.4403L247.048 85.7653C247.138 85.8103 247.183 85.9003 247.273 85.9453C256.363 92.6499 269.143 90.715 275.803 81.6705C282.508 72.581 280.573 59.8467 271.528 53.1421Z" fill="#407BFF"/>
<path opacity="0.7" d="M271.528 53.1421C262.438 46.4374 249.658 48.3723 242.998 57.4168C237.823 64.4365 237.823 73.616 242.233 80.5456L240.613 86.4403L247.048 85.7653C247.138 85.8103 247.183 85.9003 247.273 85.9453C256.363 92.6499 269.143 90.715 275.803 81.6705C282.508 72.581 280.573 59.8467 271.528 53.1421Z" fill="white"/>
<path d="M273.688 51.8372C279.177 55.572 282.552 62.1866 282.372 68.8012" stroke="#407BFF" stroke-linecap="round" stroke-linejoin="round"/>
<path d="M282.192 71.8611C282.237 72.851 282.057 73.8859 281.697 74.8309" stroke="#407BFF" stroke-linecap="round" stroke-linejoin="round"/>
<path d="M258.074 70.5561C258.434 69.9562 258.929 69.3112 259.559 68.6212C260.069 68.1113 260.429 67.6763 260.639 67.3163C260.879 66.9563 260.999 66.5513 260.999 66.1014C260.999 65.4714 260.774 64.9764 260.324 64.6165C259.904 64.2565 259.334 64.0765 258.614 64.0765C257.924 64.0765 257.309 64.2415 256.769 64.5715C256.259 64.9014 255.809 65.3664 255.419 65.9664L252.764 64.1215C253.394 63.0415 254.234 62.2016 255.284 61.6016C256.334 61.0016 257.564 60.7017 258.974 60.7017C260.654 60.7017 262.004 61.1216 263.024 61.9616C264.044 62.8015 264.554 63.9715 264.554 65.4714C264.554 66.1614 264.449 66.7763 264.239 67.3163C264.059 67.8563 263.819 68.3062 263.519 68.6662C263.249 69.0262 262.889 69.4462 262.439 69.9262C261.899 70.4961 261.494 70.9761 261.224 71.3661C260.984 71.7561 260.864 72.221 260.864 72.761H257.579C257.579 71.861 257.744 71.1261 258.074 70.5561ZM257.714 78.3407C257.324 77.9507 257.129 77.4557 257.129 76.8558C257.129 76.2858 257.324 75.8058 257.714 75.4159C258.104 75.0259 258.614 74.8309 259.244 74.8309C259.844 74.8309 260.339 75.0259 260.729 75.4159C261.119 75.8058 261.314 76.2858 261.314 76.8558C261.314 77.4557 261.119 77.9507 260.729 78.3407C260.339 78.7607 259.844 78.9707 259.244 78.9707C258.644 78.9707 258.134 78.7607 257.714 78.3407Z" fill="#407BFF"/>
<path d="M167.085 102.549C166.77 97.7346 169.2 93.6399 172.62 93.0099C172.38 92.9799 172.155 92.9799 171.945 93.0099C168.21 93.2349 165.42 97.5097 165.735 102.639C166.05 107.724 169.335 111.639 173.07 111.414C173.31 111.414 173.535 111.384 173.745 111.324C170.28 111.099 167.355 107.319 167.085 102.549Z" fill="#263238"/>
<path opacity="0.5" d="M179.595 102.144C179.595 107.229 176.67 111.324 173.025 111.324C169.425 111.324 166.455 107.229 166.455 102.144C166.455 97.1047 169.425 92.9649 173.025 92.9649C176.67 92.9649 179.595 97.1047 179.595 102.144Z" fill="white"/>
<path opacity="0.5" d="M177.122 95.6648L166.727 104.799C166.862 105.519 167.177 106.329 167.537 107.184L178.247 97.5547C177.977 96.9247 177.572 96.2947 177.077 95.6648H177.122Z" fill="white"/>
<path opacity="0.5" d="M175.68 94.1348L166.5 102.819L166.545 103.584L176.355 94.8098C176.085 94.1348 176.13 94.3598 175.68 94.1348Z" fill="white"/>
<path d="M180.586 101.694C180.271 96.6097 177.031 92.6949 173.296 92.9199C173.056 92.9199 172.831 92.9499 172.621 93.0099C176.041 93.2349 178.966 97.0147 179.281 101.784C179.551 106.554 176.896 110.694 173.521 111.324C173.746 111.369 174.196 111.369 174.421 111.324C178.156 111.099 180.901 106.779 180.586 101.694Z" fill="#263238"/>
<path d="M173.162 125.633H173.117C172.622 125.633 172.217 125.228 172.217 124.733V111.324H174.107V124.733C174.107 125.228 173.702 125.633 173.162 125.633Z" fill="#263238"/>
<path d="M191.701 135.938L184.186 147.727L176.041 125.768L170.641 127.028C170.641 127.028 173.206 154.207 177.436 158.391C180.541 161.496 185.086 161.721 188.326 159.156C191.521 156.636 202.141 143.317 202.141 143.317L191.701 135.938Z" fill="#B97964"/>
<path d="M170.685 128.063C170.685 128.063 168.165 119.738 168.03 118.793C167.94 117.894 174.375 113.079 175.455 112.539C176.535 112.044 176.985 113.799 176.58 114.339C176.58 114.339 176.625 114.384 176.715 114.474C177.84 115.284 178.02 116.949 177.075 117.984C177.075 117.984 177.39 118.074 177.615 118.748C178.11 120.008 176.85 121.358 176.85 121.358C176.85 121.358 177.885 126.353 176.67 127.028C175.41 127.703 174.33 128.243 174.33 128.108L170.685 128.063Z" fill="#B97964"/>
<path d="M172.621 123.743L174.331 122.483V125.408C174.331 125.993 173.971 126.488 173.476 126.488C172.981 126.488 172.621 125.993 172.621 125.408V123.743Z" fill="#263238"/>
<path d="M221.039 332.937L222.209 345.221L231.434 346.211L232.334 333.027L221.039 332.937Z" fill="#B97964"/>
<path d="M220.184 343.241C220.184 342.791 220.589 342.386 221.084 342.386L223.874 342.521C224.594 342.521 225.314 343.826 225.719 344.411C227.474 346.976 228.869 346.031 230.849 343.691C232.109 343.556 232.424 345.041 232.514 345.446L234.764 354.131C234.944 354.896 234.539 355.615 233.819 355.84C233.669 355.87 233.534 355.885 233.414 355.885C229.589 355.84 227.789 355.795 223.064 355.75L208.574 355.525C204.659 355.48 203.894 351.386 205.514 351.071C212.849 349.496 218.069 347.381 220.364 345.266C220.679 344.951 220.229 344.141 220.184 343.241Z" fill="#263238"/>
<path d="M218.836 345.941C219.916 346.121 220.906 346.796 221.491 347.741" stroke="white" stroke-linecap="round" stroke-linejoin="round"/>
<path d="M216.764 347.156C217.844 347.336 218.834 348.011 219.374 348.956" stroke="white" stroke-linecap="round" stroke-linejoin="round"/>
<path d="M214.199 348.371C215.279 348.551 216.269 349.226 216.854 350.171" stroke="white" stroke-linecap="round" stroke-linejoin="round"/>
<path d="M295.965 313.813L305.91 320.922L312.795 314.623L303.57 305.263L295.965 313.813Z" fill="#B97964"/>
<path d="M303.03 321.237C302.67 320.967 302.625 320.382 302.985 320.022L304.875 317.908C305.325 317.368 306.81 317.683 307.485 317.773C310.545 318.043 310.725 316.378 310.275 313.318C310.995 312.283 312.3 313.003 312.66 313.183L320.625 317.143C321.3 317.503 321.57 318.313 321.255 318.987C321.195 319.107 321.12 319.212 321.03 319.302C318.555 322.227 317.34 323.577 314.235 327.177L304.695 338.201C302.085 341.216 298.53 339.146 299.34 337.661C302.94 331.002 304.74 325.602 304.605 322.452C304.605 322.002 303.705 321.822 303.03 321.237Z" fill="#263238"/>
<path d="M304.289 323.982C305.099 323.262 306.269 322.947 307.349 323.127" stroke="white" stroke-linecap="round" stroke-linejoin="round"/>
<path d="M303.84 326.367C304.65 325.647 305.82 325.332 306.9 325.512" stroke="white" stroke-linecap="round" stroke-linejoin="round"/>
<path d="M303.074 329.157C303.929 328.437 305.054 328.122 306.134 328.302" stroke="white" stroke-linecap="round" stroke-linejoin="round"/>
<path d="M209.07 190.925C209.07 190.925 216.405 284.789 216.495 285.329L221.085 340.271H233.01C233.01 340.271 233.1 337.122 233.73 332.937C239.175 296.399 233.595 284.609 233.595 284.609C233.595 284.609 238.365 214.098 240.075 208.789C240.21 208.204 234.495 167.796 209.07 190.925Z" fill="#263238"/>
<path d="M208.891 190.835L209.206 191.375C214.111 198.034 223.471 205.144 228.331 211.218L230.041 215.043C230.041 215.043 265.501 187.55 242.461 176.21C241.516 175.715 234.451 171.936 234.451 171.936C228.331 170.451 208.891 190.835 208.891 190.835Z" fill="#263238"/>
<path d="M261.9 215.133C263.835 227.148 269.865 258.196 273.24 269.85C273.24 269.85 283.68 275.835 289.62 282.54L308.475 309.133L300.06 316.693L265.635 291.494C257.85 285.644 254.7 281.28 251.64 275.565C244.17 261.616 240.525 243.842 236.025 229.802C234 223.323 226.035 202.309 226.71 195.559C227.61 186.47 227.97 171.666 239.04 176.705C249.66 179.81 255.96 181.79 261.9 215.133Z" fill="#263238"/>
<path opacity="0.2" d="M235.53 232.952L226.8 200.734L216.855 197.404L224.595 204.649L235.53 232.952Z" fill="black"/>
<path d="M195.75 130.943C192.555 133.598 186.84 142.732 186.84 142.732L199.665 150.022C199.665 150.022 206.235 140.482 205.56 136.208C204.885 131.798 200.61 128.828 195.75 130.943Z" fill="#263238"/>
<path opacity="0.5" d="M195.75 130.943C192.555 133.598 186.84 142.732 186.84 142.732L199.665 150.022C199.665 150.022 206.235 140.482 205.56 136.208C204.885 131.798 200.61 128.828 195.75 130.943Z" fill="white"/>
<path opacity="0.3" d="M195.076 147.142V138.007C195.076 138.007 191.341 148.942 192.196 150.877C193.051 152.857 193.411 153.847 193.411 153.847L194.851 152.182L195.076 147.142Z" fill="black"/>
<path d="M242.146 170.586C239.356 167.391 237.556 163.521 236.926 159.336C235.936 152.992 234.631 144.172 234.766 143.452L235.216 126.353C231.436 122.573 217.396 122.573 217.396 122.573L207.991 124.958C207.991 124.958 204.481 126.488 201.556 128.108C197.641 130.313 195.616 130.448 195.076 132.923C195.076 132.923 194.311 141.202 194.086 149.527C193.996 152.497 207.856 179.9 208.036 185.075V193.444C228.061 203.569 249.121 178.595 249.121 178.595L242.146 170.586Z" fill="#263238"/>
<path opacity="0.5" d="M242.146 170.586C239.356 167.391 237.556 163.521 236.926 159.336C235.936 152.992 234.631 144.172 234.766 143.452L235.216 126.353C231.436 122.573 217.396 122.573 217.396 122.573L207.991 124.958C207.991 124.958 204.481 126.488 201.556 128.108C197.641 130.313 195.616 130.448 195.076 132.923C195.076 132.923 194.311 141.202 194.086 149.527C193.996 152.497 207.856 179.9 208.036 185.075V193.444C228.061 203.569 249.121 178.595 249.121 178.595L242.146 170.586Z" fill="white"/>
<path opacity="0.3" d="M235.529 150.112C235.529 150.112 226.754 142.192 227.204 138.457L234.674 142.462L235.169 147.502L235.529 150.112Z" fill="black"/>
<path d="M241.964 133.823C242.189 134.138 254.924 148.447 260.009 153.892C261.134 155.061 261.989 156.411 262.529 157.896L273.014 187.235L266.444 189.215L251.369 160.866L232.379 144.802L241.964 133.823Z" fill="#B97964"/>
<path d="M266.218 186.875C266.218 186.875 264.463 188.855 264.598 191.06C264.778 193.264 264.328 195.064 264.598 196.684C264.823 198.304 265.993 196.459 266.443 195.334C266.893 194.209 267.388 192.904 268.153 193.399C268.963 193.849 272.878 200.644 274.048 201.184C275.218 201.679 274.948 200.374 274.948 200.374C274.948 200.374 275.938 201.994 276.703 201.814C276.883 201.724 277.243 201.274 276.928 200.464C276.163 198.619 274.363 194.884 274.363 194.884C274.453 195.109 277.018 199.564 277.468 200.194C278.098 201.004 278.818 201.094 279.268 200.689C279.898 200.194 276.928 194.524 276.973 194.164C276.973 194.164 278.593 197.494 279.673 197.539C280.753 197.629 279.853 195.469 278.683 193.714C277.648 192.139 275.983 188.72 274.768 187.19C273.238 185.345 271.798 184.4 269.638 184.985C267.433 185.57 266.218 186.875 266.218 186.875Z" fill="#B97964"/>
<path d="M232.784 125.093C237.059 125.363 244.799 136.028 244.799 136.028L234.764 147.322C234.764 147.322 225.359 139.132 225.224 133.643C225.089 129.008 227.384 124.733 232.784 125.093Z" fill="#263238"/>
<path opacity="0.5" d="M232.784 125.093C237.059 125.363 244.799 136.028 244.799 136.028L234.764 147.322C234.764 147.322 225.359 139.132 225.224 133.643C225.089 129.008 227.384 124.733 232.784 125.093Z" fill="white"/>
<path d="M202.006 84.3254C196.156 86.7552 193.636 91.39 192.916 94.9898C192.511 99.8945 193.456 103.674 193.726 108.579L212.536 82.9304C209.431 82.9304 208.216 82.0305 202.006 84.3254Z" fill="#263238"/>
<path d="M208.935 83.1104C214.38 81.7605 218.7 85.4953 221.13 87.9702C223.65 91.21 224.685 95.4398 223.875 99.5795C223.065 103.449 222.03 108.084 219.285 109.614C217.755 110.514 215.91 110.739 214.2 110.199L199.08 88.9601C201.825 86.2153 205.2 84.1904 208.935 83.1104Z" fill="#263238"/>
<path d="M216.226 114.789C216.226 114.639 216.211 114.489 216.181 114.339C216.091 113.664 215.821 113.079 215.371 112.584C214.156 111.234 212.131 111.144 210.736 112.359L205.516 114.699C205.516 114.759 205.516 114.834 205.516 114.924L206.461 122.618C206.596 124.913 203.986 126.803 202.546 127.793C201.691 128.468 199.936 134.723 205.786 139.357C207.496 140.752 210.151 138.502 211.861 137.017C218.971 130.178 218.836 123.878 218.836 123.878C216.181 121.493 216.001 119.873 216.226 114.789Z" fill="#B97964"/>
<path opacity="0.2" d="M203.625 114.249C203.655 114.159 203.685 114.084 203.715 114.024L209.385 113.484C211.05 112.764 212.985 113.574 213.66 115.239C213.885 115.734 214.56 112.449 213.885 116.724V116.814L206.37 122.078C206.37 122.078 205.47 115.824 205.425 115.779C205.38 115.779 203.625 114.249 203.625 114.249Z" fill="black"/>
<path d="M220.816 100.165C218.701 108.984 217.981 112.764 212.761 116.769C204.841 122.753 194.671 118.703 194.131 109.524C193.726 101.244 197.191 88.1952 206.416 85.7653C215.596 83.3354 222.931 91.3 220.816 100.165Z" fill="#B97964"/>
<path d="M223.064 108.534C221.759 110.289 219.869 111.234 218.249 111.459C215.774 111.819 215.054 107.814 216.179 105.519C217.169 103.404 219.734 102.234 221.984 102.954C224.189 103.674 224.549 106.554 223.064 108.534Z" fill="#B97964"/>
<path opacity="0.2" d="M218.07 107.499C218.25 106.644 218.79 105.834 219.465 105.339C220.185 104.844 221.13 104.664 221.985 104.799" stroke="black" stroke-linecap="round" stroke-linejoin="round"/>
<path d="M208.486 101.694C208.306 102.639 207.676 103.359 207.091 103.314C206.506 103.269 206.146 102.459 206.326 101.514C206.461 100.524 207.091 99.8045 207.676 99.8495C208.306 99.9395 208.621 100.749 208.486 101.694Z" fill="#263238"/>
<path d="M199.576 100.659C199.396 101.604 198.766 102.324 198.181 102.234C197.596 102.189 197.236 101.424 197.416 100.48C197.596 99.5796 198.181 98.8596 198.766 98.9046C199.396 98.9496 199.711 99.7595 199.576 100.659Z" fill="#263238"/>
<path d="M210.781 98.5446C210.646 98.5446 210.556 98.4996 210.466 98.4096C209.251 96.9697 207.631 97.2397 207.631 97.2847C207.361 97.2847 207.136 97.1497 207.136 96.9247C207.091 96.6547 207.271 96.4297 207.541 96.3847C207.631 96.3847 209.656 96.0247 211.186 97.8246C211.321 98.0046 211.276 98.2746 211.096 98.4546C211.006 98.5146 210.901 98.5446 210.781 98.5446Z" fill="#263238"/>
<path d="M197.146 95.7997C197.056 95.7697 196.996 95.6947 196.966 95.5747C196.921 95.3497 197.056 95.1247 197.281 95.0348C199.486 94.0898 200.926 95.1248 200.971 95.1697C201.151 95.3047 201.151 95.5747 200.971 95.7547C200.836 95.9797 200.566 96.0247 200.386 95.8897C200.341 95.8447 199.261 95.0348 197.461 95.7997C197.341 95.8597 197.236 95.8597 197.146 95.7997Z" fill="#263238"/>
<path d="M202.049 100.524C202.049 100.524 200.204 103.719 198.314 105.699C197.999 106.014 198.089 106.554 198.494 106.779C199.574 107.319 200.924 107.094 200.924 107.094L202.049 100.524Z" fill="#A24E3F"/>
<path d="M208.037 99.9395L206.012 99.2195C206.012 99.2195 206.957 100.884 208.037 99.9395Z" fill="#263238"/>
<path d="M198.992 98.9496L196.967 98.2296C196.967 98.2296 197.912 99.8945 198.992 98.9496Z" fill="#263238"/>
<path d="M200.971 109.659C201.511 110.604 202.141 112.494 202.141 112.494C202.321 112.464 202.501 112.419 202.681 112.359C205.111 111.909 206.101 110.919 206.461 109.929C206.686 109.389 206.686 108.849 206.596 108.399C206.551 107.904 206.416 107.589 206.416 107.589C205.246 108.579 202.996 109.209 201.781 109.479C201.286 109.614 200.971 109.659 200.971 109.659Z" fill="#263238"/>
<path d="M201.781 109.479L202.186 110.289C204.436 109.839 206.011 109.254 206.596 108.399C206.551 107.904 206.416 107.589 206.416 107.589C205.246 108.579 202.996 109.209 201.781 109.479Z" fill="white"/>
<path d="M202.682 112.359C205.112 111.909 206.102 110.919 206.462 109.929C205.652 110.109 204.662 110.424 203.852 110.964C203.222 111.369 202.907 111.864 202.682 112.359Z" fill="#DE5753"/>
<path d="M217.262 101.694C217.262 101.694 213.482 94.8998 214.382 89.9051C214.382 89.9051 197.192 82.3455 195.482 98.3196C195.482 98.3196 194.492 84.0104 209.747 84.7304C225.002 85.4053 223.832 105.384 215.687 110.829C215.687 110.739 219.602 105.969 217.262 101.694Z" fill="#263238"/>
<path d="M202.635 85.3153C200.25 86.8002 198.45 89.0051 197.415 91.57C196.965 93.5049 199.305 95.3948 199.305 95.3948L203.4 91.84L202.59 95.5298C207.945 95.9797 211.59 93.8198 214.245 90.13L212.49 84.3254C212.49 84.3254 204.66 84.1454 202.635 85.3153Z" fill="#263238"/>
<path d="M260.326 99.6245C259.156 100.704 257.581 101.244 256.051 101.019C257.356 99.6245 257.896 97.4646 257.401 95.5297C252.361 97.5096 246.331 100.029 241.471 97.4646C239.266 96.2947 237.826 93.7298 236.071 91.8399C234.271 89.95 232.336 88.0602 229.951 87.3402C227.611 86.5752 222.481 88.5101 221.176 90.85L220.861 95.4397C223.291 94.9898 227.161 96.7447 228.241 99.2645C229.321 101.739 230.266 103.539 231.616 105.879C233.326 108.804 234.991 110.649 237.871 111.954C239.176 112.539 242.146 113.169 246.601 112.899C250.111 112.674 253.711 111.909 256.636 109.704C259.561 107.544 261.541 103.269 260.326 99.6245Z" fill="#263238"/>
</g>
<defs>
<clipPath id="clip0_882_1649">
<rect width="450" height="408" fill="white"/>
</clipPath>
</defs>
</svg>
