<svg width="450" height="346" viewBox="0 0 450 346" fill="none" xmlns="http://www.w3.org/2000/svg">
<path d="M235.305 338.235L227.61 220.071L227.88 220.026L236.61 338.145C236.19 338.175 235.755 338.205 235.305 338.235ZM211.455 338.145L210.33 338.055L219.78 220.026L220.185 220.071L211.455 338.145ZM260.685 334.59L234.855 219.036L235.395 218.901L261.63 334.365L260.685 334.59ZM186.48 334.41L185.355 334.14L212.265 218.811L212.715 218.901L186.48 334.41ZM284.76 327.346L242.235 216.832L242.55 216.742L285.93 326.896C285.54 327.046 285.15 327.196 284.76 327.346ZM162.225 326.986L161.19 326.581L205.02 216.562L205.425 216.742L162.225 326.986ZM307.71 316.456L248.94 213.637L249.345 213.412L308.655 315.916L307.71 316.456ZM139.41 315.961C139.05 315.751 138.69 315.541 138.33 315.331L198.36 213.277L198.675 213.457L139.41 315.961ZM328.59 302.417L255.42 209.317L255.645 209.137L329.58 301.607C329.25 301.877 328.92 302.147 328.59 302.417ZM118.575 301.742C118.215 301.442 117.855 301.142 117.495 300.842L192.24 209.002L192.33 209.092L118.575 301.742ZM347.265 285.318L260.955 204.232L261.225 203.962L348.075 284.463L347.265 285.318ZM100.035 284.553L99.3154 283.788L186.48 203.602L186.795 203.962L100.035 284.553ZM363.06 265.789L265.815 198.203L265.95 197.978L363.78 264.709C363.54 265.069 363.3 265.429 363.06 265.789ZM84.2854 264.844C84.0454 264.514 83.8054 264.169 83.5654 263.809L181.8 197.708L181.98 197.978L84.2854 264.844ZM376.02 243.785L269.595 191.813L269.82 191.318L376.425 242.84L376.02 243.785ZM71.6404 242.975C71.4604 242.585 71.2804 242.21 71.1004 241.85L178.11 191.138L178.245 191.408L71.6404 242.975ZM385.425 220.431L272.52 184.658L272.61 184.388L385.785 219.216C385.665 219.636 385.545 220.041 385.425 220.431ZM62.3704 219.396C62.2504 219.006 62.1304 218.616 62.0104 218.226L175.41 184.118L175.5 184.478L62.3704 219.396ZM391.275 195.638L274.23 177.459L274.32 177.054L391.41 194.513L391.275 195.638ZM56.7904 194.738C56.7304 194.318 56.6704 193.913 56.6104 193.523L173.835 176.739L173.88 177.099L56.7904 194.738ZM393.345 170.709L274.905 169.629V169.134H393.345V169.404C393.345 169.824 393.345 170.259 393.345 170.709ZM173.34 169.494H54.9004V168.414L173.34 169.044V169.494ZM274.365 161.89V161.665L391.41 143.846C391.47 144.266 391.53 144.701 391.59 145.15L274.365 161.89ZM173.88 161.71L56.7454 144.431C56.8054 144.011 56.8654 143.591 56.9254 143.171L173.925 161.395L173.88 161.71ZM272.79 154.69L272.655 154.15L385.785 119.187L386.055 120.177L272.79 154.69ZM175.545 154.375L62.3704 119.592L62.6854 118.467L175.68 153.97L175.545 154.375ZM270.09 147.625L269.865 147.175L376.47 95.5632L376.92 96.5532L270.09 147.625ZM178.29 147.4L71.5954 95.9682L72.0904 94.9782L178.47 146.95L178.29 147.4ZM266.4 141.101L266.085 140.651L363.825 73.7844L364.41 74.5944L266.4 141.101ZM182.115 140.786L84.2404 74.1444C84.4504 73.8144 84.6754 73.4844 84.9154 73.1544L182.295 140.516L182.115 140.786ZM261.495 134.891L261.36 134.756L347.985 54.0305C348.315 54.3605 348.63 54.6905 348.93 55.0204L261.495 134.891ZM186.885 134.801L99.9454 54.3905C100.245 54.0905 100.53 53.7905 100.8 53.4905L187.11 134.576L186.885 134.801ZM256.005 129.716L255.735 129.491L329.49 36.8414C329.82 37.1114 330.135 37.3814 330.435 37.6514L256.005 129.716ZM192.51 129.581L118.485 37.1564C118.815 36.8864 119.145 36.6164 119.475 36.3465L192.735 129.401L192.51 129.581ZM249.795 125.397L249.48 125.217L308.61 22.6222L309.645 23.2072L249.795 125.397ZM198.765 125.262L139.32 22.8472C139.65 22.6672 139.995 22.4722 140.355 22.2622L199.08 125.127L198.765 125.262ZM242.91 122.022L242.595 121.887L285.75 11.5978C286.14 11.7478 286.53 11.8978 286.92 12.0478L242.91 122.022ZM205.515 121.977L162 11.8228C162.39 11.6728 162.78 11.5228 163.17 11.3728L205.83 121.842L205.515 121.977ZM235.71 119.817L235.395 119.727L261.405 4.21822C261.795 4.30822 262.2 4.39821 262.62 4.48821L235.71 119.817ZM212.67 119.772L186.255 4.35322C186.645 4.26322 187.05 4.17323 187.47 4.08323L212.94 119.727L212.67 119.772ZM228.195 118.647H227.88L236.43 0.528428C236.85 0.558426 237.27 0.588423 237.69 0.618421L228.195 118.647ZM220.14 118.647L211.23 0.528428C211.62 0.498429 212.025 0.483429 212.445 0.483429L220.5 118.602L220.14 118.647Z" fill="white"/>
<path d="M84.8247 313.486C83.2647 313.486 81.8847 312.976 80.6847 311.956C79.5147 310.936 78.9297 309.511 78.9297 307.682C78.9297 306.032 79.4997 304.652 80.6397 303.542C81.7797 302.432 83.1747 301.877 84.8247 301.877C86.4747 301.877 87.8547 302.432 88.9647 303.542C90.0747 304.652 90.6297 306.032 90.6297 307.682C90.6297 309.481 90.0447 310.891 88.8747 311.911C87.7047 312.961 86.3547 313.486 84.8247 313.486Z" fill="white"/>
<path d="M66.5996 268.264C66.5996 265.894 67.3646 263.479 68.8946 261.019C70.4546 258.559 72.7046 256.519 75.6446 254.899C78.6146 253.31 82.0796 252.515 86.0396 252.515C89.6996 252.515 92.9246 253.19 95.7146 254.54C98.5346 255.859 100.71 257.689 102.24 260.029C103.77 262.339 104.535 264.844 104.535 267.544C104.535 269.704 104.1 271.579 103.23 273.168C102.36 274.788 101.325 276.183 100.125 277.353C98.9246 278.523 96.7646 280.488 93.6446 283.248C92.7746 284.028 92.0846 284.718 91.5746 285.318C91.0646 285.888 90.6746 286.428 90.4046 286.938C90.1646 287.418 89.9696 287.898 89.8196 288.378C89.6996 288.888 89.4896 289.758 89.1896 290.988C88.7096 293.597 87.2096 294.902 84.6896 294.902C83.3696 294.902 82.2596 294.482 81.3596 293.642C80.4596 292.772 80.0096 291.497 80.0096 289.818C80.0096 287.688 80.3396 285.858 80.9996 284.328C81.6596 282.768 82.5296 281.403 83.6096 280.233C84.7196 279.063 86.1896 277.683 88.0196 276.093C89.6396 274.683 90.8096 273.618 91.5296 272.898C92.2496 272.179 92.8646 271.384 93.3746 270.514C93.8546 269.614 94.0946 268.654 94.0946 267.634C94.0946 265.624 93.3446 263.929 91.8446 262.549C90.3446 261.169 88.4096 260.479 86.0396 260.479C83.2496 260.479 81.1946 261.169 79.8746 262.549C78.5546 263.959 77.4446 266.014 76.5446 268.714C75.6746 271.564 74.0396 272.988 71.6396 272.988C70.2296 272.988 69.0296 272.493 68.0396 271.504C67.0796 270.514 66.5996 269.434 66.5996 268.264Z" fill="white"/>
<path d="M365.669 244.37C364.109 244.22 362.774 243.605 361.664 242.525C360.554 241.415 360.074 239.945 360.224 238.115C360.344 236.496 361.019 235.176 362.249 234.156C363.479 233.136 364.919 232.686 366.569 232.806C368.189 232.926 369.524 233.586 370.574 234.786C371.594 235.956 372.044 237.365 371.924 239.015C371.774 240.815 371.084 242.18 369.854 243.11C368.594 244.04 367.199 244.46 365.669 244.37Z" fill="white"/>
<path d="M350.956 197.888C351.136 195.518 352.081 193.163 353.791 190.823C355.531 188.483 357.931 186.623 360.991 185.243C364.051 183.863 367.561 183.323 371.521 183.623C375.151 183.923 378.316 184.853 381.016 186.413C383.716 187.943 385.741 189.923 387.091 192.353C388.441 194.783 389.011 197.348 388.801 200.047C388.651 202.177 388.081 204.022 387.091 205.582C386.101 207.112 384.961 208.417 383.671 209.497C382.381 210.577 380.086 212.377 376.786 214.897C375.856 215.587 375.106 216.217 374.536 216.787C373.996 217.327 373.576 217.837 373.276 218.316C372.976 218.766 372.736 219.231 372.556 219.711C372.376 220.191 372.106 221.046 371.746 222.276C371.086 224.826 369.481 226.011 366.931 225.831C365.641 225.741 364.576 225.231 363.736 224.301C362.896 223.371 362.551 222.066 362.701 220.386C362.851 218.286 363.316 216.487 364.096 214.987C364.876 213.487 365.851 212.197 367.021 211.117C368.191 210.037 369.751 208.762 371.701 207.292C373.441 206.032 374.686 205.072 375.436 204.412C376.216 203.752 376.891 203.002 377.461 202.162C378.001 201.322 378.316 200.377 378.406 199.328C378.556 197.318 377.941 195.578 376.561 194.108C375.151 192.608 373.261 191.768 370.891 191.588C368.131 191.378 366.031 191.918 364.591 193.208C363.181 194.498 361.921 196.463 360.811 199.103C359.731 201.862 357.991 203.152 355.591 202.972C354.181 202.882 353.041 202.297 352.171 201.217C351.271 200.167 350.866 199.058 350.956 197.888Z" fill="white"/>
<path d="M80.8224 95.4732C79.4124 95.4132 78.2124 94.9032 77.2224 93.9433C76.2324 92.9833 75.7674 91.6934 75.8274 90.0735C75.9174 88.6336 76.4874 87.4486 77.5374 86.5187C78.6174 85.5888 79.8924 85.1688 81.3624 85.2588C82.8024 85.3188 83.9874 85.8737 84.9174 86.9237C85.8774 87.9436 86.3124 89.1736 86.2224 90.6135C86.1324 92.2034 85.5474 93.4333 84.4674 94.3033C83.3874 95.1732 82.1724 95.5632 80.8224 95.4732Z" fill="white"/>
<path d="M66.7365 54.6155C66.8565 52.5156 67.6515 50.4157 69.1215 48.3158C70.6215 46.2159 72.7065 44.521 75.3765 43.2311C78.0765 41.9411 81.1815 41.3862 84.6915 41.5662C87.9315 41.7162 90.7665 42.4511 93.1965 43.771C95.5965 45.091 97.4265 46.8159 98.6865 48.9458C99.9465 51.0756 100.501 53.3405 100.351 55.7404C100.261 57.6303 99.7965 59.2652 98.9565 60.6451C98.1165 62.025 97.1265 63.21 95.9865 64.1999C94.8765 65.1899 92.8815 66.8398 90.0015 69.1497C89.2215 69.7796 88.5765 70.3496 88.0665 70.8596C87.5865 71.3695 87.2265 71.8345 86.9865 72.2545C86.7465 72.6745 86.5515 73.0944 86.4015 73.5144C86.2515 73.9344 86.0265 74.6844 85.7265 75.7643C85.1865 78.0742 83.7915 79.1691 81.5415 79.0491C80.3715 78.9891 79.4115 78.5541 78.6615 77.7442C77.9115 76.9642 77.5665 75.8243 77.6265 74.3244C77.7465 72.4645 78.1215 70.8596 78.7515 69.5096C79.4115 68.1597 80.2515 66.9898 81.2715 65.9998C82.2915 65.0399 83.6565 63.8849 85.3665 62.535C86.8665 61.3651 87.9465 60.4801 88.6065 59.8802C89.2965 59.2802 89.8815 58.5902 90.3615 57.8103C90.8115 57.0603 91.0665 56.2354 91.1265 55.3354C91.2165 53.5355 90.6315 51.9906 89.3715 50.7007C88.1115 49.4107 86.4165 48.7058 84.2865 48.5858C81.8265 48.4658 79.9815 48.9908 78.7515 50.1607C77.5215 51.3306 76.4415 53.1005 75.5115 55.4704C74.6415 57.9603 73.1415 59.1452 71.0115 59.0252C69.7515 58.9652 68.7165 58.4702 67.9065 57.5403C67.0665 56.6103 66.6765 55.6354 66.7365 54.6155Z" fill="white"/>
<path d="M119.385 230.826C118.485 230.766 117.72 230.421 117.09 229.791C116.49 229.161 116.22 228.336 116.28 227.316C116.37 226.386 116.76 225.636 117.45 225.066C118.14 224.496 118.95 224.241 119.88 224.301C120.78 224.391 121.53 224.766 122.13 225.426C122.7 226.086 122.955 226.881 122.895 227.811C122.805 228.831 122.415 229.611 121.725 230.151C121.035 230.661 120.255 230.886 119.385 230.826Z" fill="white"/>
<path d="M111.016 204.592C111.136 203.272 111.676 201.952 112.636 200.632C113.596 199.313 114.946 198.263 116.686 197.483C118.426 196.703 120.406 196.388 122.626 196.538C124.696 196.718 126.496 197.243 128.026 198.113C129.526 198.983 130.666 200.107 131.446 201.487C132.196 202.837 132.511 204.277 132.391 205.807C132.301 207.007 131.986 208.042 131.446 208.912C130.876 209.782 130.231 210.532 129.511 211.162C128.791 211.762 127.486 212.767 125.596 214.177C125.086 214.597 124.681 214.957 124.381 215.257C124.051 215.557 123.811 215.842 123.661 216.112C123.481 216.382 123.346 216.652 123.256 216.922C123.166 217.192 123.016 217.672 122.806 218.361C122.416 219.801 121.501 220.476 120.061 220.386C119.341 220.326 118.741 220.041 118.261 219.531C117.781 218.991 117.586 218.257 117.676 217.327C117.766 216.127 118.021 215.107 118.441 214.267C118.891 213.427 119.446 212.692 120.106 212.062C120.766 211.462 121.651 210.742 122.761 209.902C123.721 209.182 124.426 208.642 124.876 208.282C125.296 207.892 125.671 207.472 126.001 207.022C126.301 206.542 126.481 206.002 126.541 205.402C126.631 204.292 126.271 203.302 125.461 202.432C124.681 201.592 123.631 201.127 122.311 201.037C120.721 200.917 119.536 201.217 118.756 201.937C117.946 202.687 117.226 203.797 116.596 205.267C115.996 206.857 115.021 207.592 113.671 207.472C112.861 207.412 112.201 207.082 111.691 206.482C111.211 205.882 110.986 205.252 111.016 204.592Z" fill="white"/>
<path d="M300.331 243.965C299.461 243.905 298.711 243.56 298.081 242.93C297.451 242.3 297.181 241.475 297.271 240.455C297.331 239.555 297.706 238.805 298.396 238.205C299.086 237.635 299.896 237.38 300.826 237.44C301.756 237.53 302.506 237.905 303.076 238.565C303.676 239.255 303.931 240.05 303.841 240.95C303.781 241.97 303.406 242.75 302.716 243.29C301.996 243.83 301.201 244.055 300.331 243.965Z" fill="white"/>
<path d="M292.006 217.777C292.096 216.427 292.636 215.092 293.626 213.772C294.586 212.452 295.936 211.402 297.676 210.622C299.416 209.842 301.396 209.542 303.616 209.722C305.656 209.872 307.441 210.382 308.971 211.252C310.501 212.122 311.641 213.247 312.391 214.627C313.171 215.977 313.501 217.417 313.381 218.946C313.291 220.176 312.961 221.211 312.391 222.051C311.851 222.921 311.221 223.671 310.501 224.301C309.751 224.901 308.446 225.906 306.586 227.316C306.076 227.736 305.656 228.096 305.326 228.396C305.026 228.726 304.786 229.011 304.606 229.251C304.456 229.521 304.336 229.791 304.246 230.061C304.126 230.331 303.961 230.811 303.751 231.501C303.391 232.941 302.491 233.616 301.051 233.526C300.301 233.466 299.701 233.181 299.251 232.671C298.771 232.131 298.576 231.396 298.666 230.466C298.726 229.266 298.981 228.246 299.431 227.406C299.881 226.566 300.436 225.846 301.096 225.246C301.756 224.616 302.641 223.896 303.751 223.086C304.711 222.336 305.401 221.781 305.821 221.421C306.271 221.031 306.661 220.611 306.991 220.161C307.291 219.681 307.456 219.141 307.486 218.541C307.576 217.432 307.231 216.457 306.451 215.617C305.671 214.777 304.606 214.297 303.256 214.177C301.696 214.057 300.511 214.372 299.701 215.122C298.921 215.842 298.216 216.952 297.586 218.451C296.986 220.011 295.996 220.731 294.616 220.611C293.836 220.551 293.191 220.221 292.681 219.621C292.171 219.021 291.946 218.406 292.006 217.777Z" fill="white"/>
<path d="M365.58 101.413C364.68 101.413 363.9 101.128 363.24 100.558C362.58 99.988 362.25 99.193 362.25 98.1731C362.25 97.2431 362.565 96.4632 363.195 95.8332C363.855 95.2032 364.65 94.8882 365.58 94.8882C366.51 94.8882 367.29 95.2032 367.92 95.8332C368.55 96.4632 368.865 97.2431 368.865 98.1731C368.865 99.193 368.535 99.988 367.875 100.558C367.215 101.128 366.45 101.413 365.58 101.413Z" fill="white"/>
<path d="M355.275 75.8993C355.275 74.5494 355.71 73.1844 356.58 71.8045C357.45 70.4246 358.725 69.2846 360.405 68.3847C362.085 67.4547 364.035 66.9898 366.255 66.9898C368.325 66.9898 370.155 67.3798 371.745 68.1597C373.335 68.9097 374.55 69.9446 375.39 71.2645C376.26 72.5545 376.695 73.9644 376.695 75.4943C376.695 76.7242 376.455 77.7892 375.975 78.6891C375.465 79.5891 374.88 80.369 374.22 81.029C373.53 81.689 372.315 82.7989 370.575 84.3588C370.095 84.8088 369.705 85.1988 369.405 85.5288C369.105 85.8587 368.88 86.1587 368.73 86.4287C368.58 86.7287 368.475 87.0137 368.415 87.2837C368.325 87.5537 368.205 88.0336 368.055 88.7236C367.785 90.2235 366.93 90.9735 365.49 90.9735C364.77 90.9735 364.155 90.7185 363.645 90.2085C363.135 89.7285 362.88 89.0236 362.88 88.0936C362.88 86.8937 363.06 85.8587 363.42 84.9888C363.81 84.1188 364.305 83.3539 364.905 82.6939C365.535 82.0339 366.36 81.239 367.38 80.309C368.31 79.5291 368.97 78.9291 369.36 78.5091C369.78 78.1192 370.125 77.6692 370.395 77.1592C370.665 76.6792 370.8 76.1393 370.8 75.5393C370.8 74.3994 370.38 73.4394 369.54 72.6595C368.7 71.8795 367.605 71.4895 366.255 71.4895C364.695 71.4895 363.54 71.8945 362.79 72.7045C362.04 73.4844 361.41 74.6394 360.9 76.1693C360.42 77.7592 359.505 78.5541 358.155 78.5541C357.345 78.5541 356.67 78.2842 356.13 77.7442C355.56 77.1742 355.275 76.5592 355.275 75.8993Z" fill="white"/>
<path fill-rule="evenodd" clip-rule="evenodd" d="M399.51 269.164H236.835C233.955 269.164 231.57 266.779 231.57 263.899V26.942C231.57 24.0621 233.955 21.6773 236.835 21.6773H399.51C402.435 21.6773 404.82 24.0621 404.82 26.942V263.899C404.82 266.779 402.435 269.164 399.51 269.164ZM236.835 21.9022C234.09 21.9022 231.795 24.1521 231.795 26.942V263.899C231.795 266.689 234.09 268.939 236.835 268.939H399.51C402.3 268.939 404.595 266.689 404.595 263.899V26.942C404.595 24.1521 402.3 21.9022 399.51 21.9022H236.835Z" fill="white"/>
<path fill-rule="evenodd" clip-rule="evenodd" d="M211.95 269.164H49.2748C46.3498 269.164 44.0098 266.779 44.0098 263.899V26.942C44.0098 24.0621 46.3498 21.6773 49.2748 21.6773H211.95C214.875 21.6773 217.215 24.0621 217.215 26.942V263.899C217.215 266.779 214.875 269.164 211.95 269.164ZM49.2748 21.9022C46.4848 21.9022 44.2348 24.1521 44.2348 26.942V263.899C44.2348 266.689 46.4848 268.939 49.2748 268.939H211.95C214.74 268.939 216.99 266.689 216.99 263.899V26.942C216.99 24.1521 214.74 21.9022 211.95 21.9022H49.2748Z" fill="white"/>
<path d="M450 324.331H0V324.106H450V324.331Z" fill="white"/>
<path d="M46.4844 336.975H60.9744V337.2H46.4844V336.975Z" fill="white"/>
<path d="M153.314 334.5H201.509V334.725H153.314V334.5Z" fill="white"/>
<path d="M61.875 345.299H94.5V345.524H61.875V345.299Z" fill="white"/>
<path d="M340.516 334.41H379.396V334.635H340.516V334.41Z" fill="white"/>
<path d="M387.406 334.41H393.121V334.635H387.406V334.41Z" fill="white"/>
<path d="M284.58 339.99H333.09V340.215H284.58V339.99Z" fill="white"/>
</svg>
