<svg width="26" height="26" viewBox="0 0 26 26" fill="none" xmlns="http://www.w3.org/2000/svg">
<g clip-path="url(#clip0_122_2980)">
<path d="M12.5898 2.09814C6.79526 2.09814 2.09814 6.79527 2.09814 12.5898C2.09814 17.8262 5.93495 22.1666 10.951 22.9545V15.6219H8.28613V12.5898H10.951V10.2785C10.951 7.64929 12.5164 6.19724 14.9137 6.19724C16.0615 6.19724 17.2617 6.40183 17.2617 6.40183V8.98278H15.9398C14.6357 8.98278 14.2297 9.79169 14.2297 10.6216V12.5898H17.139L16.6742 15.6219H14.2297V22.9545C19.2447 22.1677 23.0815 17.8252 23.0815 12.5898C23.0815 6.79527 18.3844 2.09814 12.5898 2.09814Z" fill="#74787B"/>
</g>
<defs>
<clipPath id="clip0_122_2980">
<rect width="25.18" height="25.18" fill="white"/>
</clipPath>
</defs>
</svg>
