<svg width="40" height="40" viewBox="0 0 40 40" fill="none" xmlns="http://www.w3.org/2000/svg">
<g clip-path="url(#clip0_206_2589)">
<path d="M20.8451 19.453H19.1545C18.4123 19.453 17.8092 18.8499 17.8092 18.1077C17.8092 17.3655 18.4123 16.7624 19.1545 16.7624H21.0811C21.5764 16.7624 22.0357 17.0499 22.2514 17.4968C22.4014 17.8077 22.7748 17.9374 23.0857 17.7874C23.3967 17.6374 23.5264 17.264 23.3764 16.953C22.9529 16.078 22.0529 15.5124 21.0811 15.5124H20.6232V14.4937C20.6232 14.1483 20.3436 13.8687 19.9982 13.8687C19.6529 13.8687 19.3732 14.1483 19.3732 14.4937V15.5124H19.1529C17.7217 15.5124 16.5576 16.6765 16.5576 18.1077C16.5576 19.539 17.7217 20.703 19.1529 20.703H20.8436C21.5857 20.703 22.1889 21.3062 22.1889 22.0483C22.1889 22.7905 21.5857 23.3937 20.8436 23.3937H18.917C18.4217 23.3937 17.9623 23.1062 17.7467 22.6593C17.5967 22.3483 17.2232 22.2187 16.9123 22.3687C16.6014 22.5187 16.4717 22.8921 16.6217 23.203C17.0451 24.078 17.9451 24.6437 18.917 24.6437H19.3748V25.6624C19.3748 26.0077 19.6545 26.2874 19.9998 26.2874C20.3451 26.2874 20.6248 26.0077 20.6248 25.6624V24.6437H20.8451C22.2764 24.6437 23.4404 23.4796 23.4404 22.0483C23.4404 20.6171 22.2764 19.453 20.8451 19.453Z" fill="#858585"/>
<path d="M17.3738 13.0279C17.227 12.7154 16.8551 12.5826 16.5426 12.7295C14.5317 13.6764 12.9817 15.4279 12.2863 17.5357C12.1785 17.8639 12.3567 18.217 12.6848 18.3248C12.7504 18.3467 12.816 18.356 12.8801 18.356C13.1426 18.356 13.3863 18.1889 13.4738 17.9264C14.0613 16.1435 15.3738 14.6623 17.0754 13.8607C17.3879 13.7139 17.5207 13.3404 17.3738 13.0295V13.0279Z" fill="#858585"/>
<path d="M37.4172 17.4468C36.1813 17.4468 35.1453 18.3046 34.8625 19.4546H30.6C30.5453 18.5202 30.3687 17.6187 30.0875 16.7655H34.5719C34.9172 16.7655 35.1969 16.4858 35.1969 16.1405V12.639C36.3469 12.3577 37.2047 11.3202 37.2047 10.0843C37.2047 8.63272 36.0234 7.45146 34.5719 7.45146C33.1203 7.45146 31.9391 8.63272 31.9391 10.0843C31.9391 11.3202 32.7969 12.3562 33.9469 12.639V15.5155H29.5875C29.1891 14.6812 28.6828 13.9062 28.0891 13.2093H29.6844C30.0297 13.2093 30.3094 12.9296 30.3094 12.5843V6.57959C31.4594 6.29834 32.3172 5.26084 32.3172 4.0249C32.3172 2.57334 31.1359 1.39209 29.6844 1.39209C28.2328 1.39209 27.0516 2.57334 27.0516 4.0249C27.0516 5.26084 27.9094 6.29678 29.0594 6.57959V11.9593H26.8344C24.9859 10.4015 22.6016 9.45928 20 9.45928C17.3984 9.45928 15.0141 10.4015 13.1656 11.9593H10.9906V6.57959C12.1406 6.29834 12.9984 5.26084 12.9984 4.0249C12.9984 2.57334 11.8172 1.39209 10.3656 1.39209C8.91406 1.39209 7.73281 2.57334 7.73281 4.0249C7.73281 5.26084 8.59062 6.29678 9.74063 6.57959V12.5843C9.74063 12.9296 10.0203 13.2093 10.3656 13.2093H11.9109C11.3172 13.9062 10.8109 14.6812 10.4125 15.5155H6.10313V12.639C7.25313 12.3577 8.11094 11.3202 8.11094 10.0843C8.11094 8.63272 6.92969 7.45146 5.47813 7.45146C4.02656 7.45146 2.84531 8.63272 2.84531 10.0843C2.84531 11.3202 3.70312 12.3562 4.85313 12.639V16.1405C4.85313 16.4858 5.13281 16.7655 5.47813 16.7655H9.9125C9.63125 17.6202 9.45469 18.5218 9.4 19.4546H5.1875C4.90625 18.3046 3.86875 17.4468 2.63281 17.4468C1.18125 17.4468 0 18.628 0 20.0796C0 21.5312 1.18125 22.7124 2.63281 22.7124C3.86875 22.7124 4.90469 21.8546 5.1875 20.7046H9.4C9.45469 21.639 9.63125 22.5405 9.9125 23.3937H5.47813C5.13281 23.3937 4.85313 23.6733 4.85313 24.0187V27.5202C3.70312 27.8015 2.84531 28.839 2.84531 30.0749C2.84531 31.5265 4.02656 32.7077 5.47813 32.7077C6.92969 32.7077 8.11094 31.5265 8.11094 30.0749C8.11094 28.839 7.25313 27.803 6.10313 27.5202V24.6437H10.4125C10.8109 25.478 11.3172 26.2515 11.9109 26.9499H10.3656C10.0203 26.9499 9.74063 27.2296 9.74063 27.5749V33.5796C8.59062 33.8608 7.73281 34.8983 7.73281 36.1343C7.73281 37.5858 8.91406 38.7671 10.3656 38.7671C11.8172 38.7671 12.9984 37.5858 12.9984 36.1343C12.9984 34.8983 12.1406 33.8624 10.9906 33.5796V28.1999H13.1656C15.0141 29.7577 17.3984 30.6999 20 30.6999C22.6016 30.6999 24.9859 29.7577 26.8344 28.1999H29.0594V33.5796C27.9094 33.8608 27.0516 34.8983 27.0516 36.1343C27.0516 37.5858 28.2328 38.7671 29.6844 38.7671C31.1359 38.7671 32.3172 37.5858 32.3172 36.1343C32.3172 34.8983 31.4594 33.8624 30.3094 33.5796V27.5749C30.3094 27.2296 30.0297 26.9499 29.6844 26.9499H28.0891C28.6828 26.253 29.1891 25.478 29.5875 24.6437H33.9469V27.5202C32.7969 27.8015 31.9391 28.839 31.9391 30.0749C31.9391 31.5265 33.1203 32.7077 34.5719 32.7077C36.0234 32.7077 37.2047 31.5265 37.2047 30.0749C37.2047 28.839 36.3469 27.803 35.1969 27.5202V24.0187C35.1969 23.6733 34.9172 23.3937 34.5719 23.3937H30.0875C30.3687 22.539 30.5453 21.6374 30.6 20.7046H34.8625C35.1437 21.8546 36.1813 22.7124 37.4172 22.7124C38.8688 22.7124 40.05 21.5312 40.05 20.0796C40.05 18.628 38.8688 17.4468 37.4172 17.4468ZM33.1891 10.0843C33.1891 9.32178 33.8094 8.70146 34.5719 8.70146C35.3344 8.70146 35.9547 9.32178 35.9547 10.0843C35.9547 10.8468 35.3344 11.4671 34.5719 11.4671C33.8094 11.4671 33.1891 10.8468 33.1891 10.0843ZM28.3016 4.0249C28.3016 3.2624 28.9219 2.64209 29.6844 2.64209C30.4469 2.64209 31.0672 3.2624 31.0672 4.0249C31.0672 4.7874 30.4469 5.40771 29.6844 5.40771C28.9219 5.40771 28.3016 4.7874 28.3016 4.0249ZM8.98281 4.0249C8.98281 3.2624 9.60312 2.64209 10.3656 2.64209C11.1281 2.64209 11.7484 3.2624 11.7484 4.0249C11.7484 4.7874 11.1281 5.40771 10.3656 5.40771C9.60312 5.40771 8.98281 4.7874 8.98281 4.0249ZM4.09531 10.0843C4.09531 9.32178 4.71563 8.70146 5.47813 8.70146C6.24063 8.70146 6.86094 9.32178 6.86094 10.0843C6.86094 10.8468 6.24063 11.4671 5.47813 11.4671C4.71563 11.4671 4.09531 10.8468 4.09531 10.0843ZM6.85938 30.0749C6.85938 30.8374 6.23906 31.4577 5.47656 31.4577C4.71406 31.4577 4.09375 30.8374 4.09375 30.0749C4.09375 29.3124 4.71406 28.6921 5.47656 28.6921C6.23906 28.6921 6.85938 29.3124 6.85938 30.0749ZM11.7469 36.1343C11.7469 36.8968 11.1266 37.5171 10.3641 37.5171C9.60156 37.5171 8.98125 36.8968 8.98125 36.1343C8.98125 35.3718 9.60156 34.7515 10.3641 34.7515C11.1266 34.7515 11.7469 35.3718 11.7469 36.1343ZM31.0656 36.1343C31.0656 36.8968 30.4453 37.5171 29.6828 37.5171C28.9203 37.5171 28.3 36.8968 28.3 36.1343C28.3 35.3718 28.9203 34.7515 29.6828 34.7515C30.4453 34.7515 31.0656 35.3718 31.0656 36.1343ZM35.9531 30.0749C35.9531 30.8374 35.3328 31.4577 34.5703 31.4577C33.8078 31.4577 33.1875 30.8374 33.1875 30.0749C33.1875 29.3124 33.8078 28.6921 34.5703 28.6921C35.3328 28.6921 35.9531 29.3124 35.9531 30.0749ZM2.63281 21.4608C1.87031 21.4608 1.25 20.8405 1.25 20.078C1.25 19.3155 1.87031 18.6952 2.63281 18.6952C3.39531 18.6952 4.01562 19.3155 4.01562 20.078C4.01562 20.8405 3.39531 21.4608 2.63281 21.4608ZM13.9766 27.2483C13.9094 27.139 13.8109 27.0515 13.6906 26.9999C12.775 26.164 12.0281 25.1499 11.4984 24.0124C11.4969 23.8374 11.4234 23.6812 11.3062 23.5687C10.8984 22.5562 10.6625 21.4562 10.6359 20.3062C10.6641 20.2358 10.6797 20.1593 10.6797 20.078C10.6797 19.9968 10.6625 19.9218 10.6359 19.8499C10.6641 18.6999 10.8984 17.5999 11.3062 16.5874C11.4234 16.4749 11.4969 16.3171 11.4984 16.1437C12.0266 15.0062 12.775 13.9921 13.6906 13.1562C13.8094 13.1046 13.9078 13.0171 13.9766 12.9077C15.6062 11.5358 17.7078 10.7062 20.0016 10.7062C23.8312 10.7062 27.1312 13.0171 28.5828 16.3171C28.5984 16.3687 28.6187 16.4171 28.6469 16.4608C29.1141 17.5733 29.3734 18.7952 29.3734 20.0765C29.3734 21.3577 29.1141 22.5796 28.6469 23.6921C28.6203 23.7358 28.5984 23.7843 28.5828 23.8358C27.1312 27.1358 23.8328 29.4468 20.0016 29.4468C17.7094 29.4468 15.6078 28.6187 13.9766 27.2452V27.2483ZM37.4188 21.4608C36.6562 21.4608 36.0359 20.8405 36.0359 20.078C36.0359 19.3155 36.6562 18.6952 37.4188 18.6952C38.1812 18.6952 38.8016 19.3155 38.8016 20.078C38.8016 20.8405 38.1812 21.4608 37.4188 21.4608Z" fill="#858585"/>
</g>
<defs>
<clipPath id="clip0_206_2589">
<rect width="40" height="40" fill="white"/>
</clipPath>
</defs>
</svg>
