<svg width="14" height="14" viewBox="0 0 14 14" fill="none" xmlns="http://www.w3.org/2000/svg">
<path d="M6.99967 13.6666C3.31777 13.6666 0.333008 10.6818 0.333008 6.99998C0.333008 3.31808 3.31777 0.333313 6.99967 0.333313C10.6815 0.333313 13.6663 3.31808 13.6663 6.99998C13.6663 10.6818 10.6815 13.6666 6.99967 13.6666ZM6.99967 12.3333C9.94521 12.3333 12.333 9.94551 12.333 6.99998C12.333 4.05446 9.94521 1.66665 6.99967 1.66665C4.05415 1.66665 1.66634 4.05446 1.66634 6.99998C1.66634 9.94551 4.05415 12.3333 6.99967 12.3333ZM7.66634 6.99998H10.333V8.33331H6.33301V3.66665H7.66634V6.99998Z" fill="#808080"/>
</svg>
