<svg width="40" height="40" viewBox="0 0 40 40" fill="none" xmlns="http://www.w3.org/2000/svg">
<path d="M20.608 8.364H22.04V6.08H20.608V8.364ZM37.636 23.964C37.4582 23.6433 37.2184 23.3611 36.9306 23.1339C36.6429 22.9066 36.3128 22.7388 35.9596 22.6402C35.6065 22.5416 35.2372 22.5141 34.8733 22.5594C34.5095 22.6047 34.1582 22.7218 33.84 22.904L33.104 23.352V17.2H29.02V2H17.1V8.2L10.648 10.12V26.072L7.87198 27.672L7.62398 27.308C7.39617 26.9526 7.04263 26.6963 6.63404 26.5903C6.22544 26.4842 5.79187 26.5363 5.41998 26.736L2.35598 28.476C2.20196 28.5807 2.08932 28.7359 2.03747 28.9148C1.98563 29.0937 1.99783 29.2851 2.07198 29.456C2.11554 29.5411 2.17597 29.6164 2.24957 29.6773C2.32317 29.7383 2.40842 29.7836 2.50011 29.8106C2.5918 29.8375 2.68801 29.8455 2.78289 29.8341C2.87777 29.8226 2.96933 29.792 3.05198 29.744L6.11598 28C6.15906 27.968 6.21304 27.9542 6.2662 27.9617C6.31937 27.9692 6.36744 27.9973 6.39998 28.04L11.912 37.6C12.0016 37.7708 12.1554 37.899 12.3396 37.9564C12.5238 38.0138 12.7232 37.9956 12.894 37.906C13.0648 37.8164 13.193 37.6625 13.2504 37.4784C13.3077 37.2942 13.2896 37.0948 13.2 36.924L8.58398 28.924L12.8 26.48C14.268 25.62 15.288 25.704 16.924 26.192L25.144 28.4C25.3159 28.4421 25.4778 28.5178 25.6203 28.6228C25.7628 28.7278 25.883 28.86 25.9742 29.0117C26.0653 29.1635 26.1254 29.3318 26.1511 29.5069C26.1769 29.682 26.1676 29.8605 26.124 30.032C25.92 30.808 25.1 31.092 24.368 30.972L18.036 30.068C17.8511 30.0556 17.668 30.1109 17.5209 30.2235C17.3737 30.3361 17.2724 30.4983 17.236 30.68C17.2172 30.8662 17.27 31.0525 17.3837 31.2011C17.4974 31.3497 17.6634 31.4494 17.848 31.48L24.164 32.4C25.592 32.604 27.104 31.868 27.512 30.4C27.667 29.7076 27.5647 28.9824 27.224 28.36L34.532 24.152C34.6832 24.0563 34.8526 23.993 35.0294 23.966C35.2063 23.939 35.3868 23.949 35.5597 23.9952C35.7325 24.0414 35.8939 24.1229 36.0337 24.2346C36.1735 24.3462 36.2887 24.4856 36.372 24.644C36.82 25.376 36.412 26.112 35.8 26.56L24.572 34.72C23.916 35.292 23.508 35.496 22.04 35.292C20.284 35.088 15.752 34.352 14.24 34.76C14.152 34.7818 14.0693 34.821 13.9968 34.8754C13.9243 34.9298 13.8635 34.9982 13.818 35.0766C13.7725 35.155 13.7432 35.2417 13.7318 35.3316C13.7205 35.4215 13.7273 35.5128 13.752 35.6C13.8002 35.7809 13.9156 35.9367 14.0746 36.0355C14.2337 36.1343 14.4244 36.1688 14.608 36.132C15.712 35.804 20.448 36.532 21.836 36.704C23.224 36.876 24.284 36.824 25.468 35.844L36.668 27.688C37.976 26.708 38.384 25.156 37.648 23.932L37.636 23.964ZM31.676 18.644V24.152L29.02 25.664V23.264H30.696V21.828H29.02V18.628L31.676 18.644ZM15.3 24.4V14.852H13.872V24.52C13.2442 24.6871 12.6405 24.9344 12.076 25.256V11.2L17.1 9.688V24.724C16.5085 24.5722 15.907 24.4626 15.3 24.396V24.4ZM18.528 25.136V3.428H27.6V26.48L26.212 27.28C26.0001 27.1412 25.764 27.0435 25.516 26.992L18.528 25.136ZM24.08 22.644H25.508V20.36H24.08V22.644ZM20.608 22.644H22.04V20.36H20.608V22.644ZM24.08 17.872H25.508V15.628H24.08V17.872ZM20.608 17.872H22.04V15.628H20.608V17.872ZM24.08 13.096H25.508V10.852H24.08V13.096ZM20.608 13.096H22.04V10.852H20.608V13.096ZM24.08 8.364H25.508V6.08H24.08V8.364Z" fill="#858585"/>
</svg>
