<svg width="82" height="84" viewBox="0 0 82 84" fill="none" xmlns="http://www.w3.org/2000/svg">
<path d="M31.4781 82.8624C34.531 83.6041 37.7191 84.0002 41.0002 84.0002C44.2812 84.0002 47.4693 83.6041 50.5222 82.8624L72.1044 69.2637C77.7853 62.3314 81.1953 53.4668 81.1953 43.805C81.1953 21.6059 63.1995 3.60986 41.0002 3.60986C18.8009 3.60986 0.805176 21.6059 0.805176 43.805C0.805176 53.4668 4.21522 62.3316 9.89604 69.2637L31.4781 82.8624Z" fill="#142766"/>
<path d="M9.896 34.4756V69.2637C11.4083 71.1091 13.0821 72.8168 14.8948 74.3666L26.8747 81.4436C28.3691 82.0047 29.9054 82.4803 31.4784 82.8624V52.3399C31.4784 47.081 35.7416 42.8178 41.0003 42.8178C46.2591 42.8178 50.5223 47.081 50.5223 52.3399V82.8624C52.0953 82.4803 53.6318 82.0045 55.1262 81.4434L66.8227 74.6051C68.7444 72.9925 70.5141 71.2048 72.1047 69.2637V34.4756H9.896Z" fill="#FFB332"/>
<path d="M9.896 69.2637C11.4083 71.1091 13.0821 72.8168 14.8948 74.3666L20.405 77.6217V48.7766C18.6827 47.0543 20.405 45.4568 20.405 45.4568L21.3244 38.0676C20.0734 35.9143 22.178 34.731 22.178 34.731L20.9894 34.4756H9.896V69.2637Z" fill="#FF9D33"/>
<path d="M49.2615 4.67332C49.1449 2.08294 46.9907 0 44.3729 0H37.6273C35.0096 0 32.8554 2.08294 32.7388 4.67332H49.2615Z" fill="#FFDD40"/>
<path d="M41.0001 0H37.6273C35.0096 0 32.8554 2.08294 32.7388 4.67332H41.1598C41.1107 4.61787 41.0585 4.56143 41.0001 4.50302C38.5061 2.00895 41.0001 0 41.0001 0Z" fill="#FFC839"/>
<path d="M53.0545 9.16509V5.93306C53.0545 5.14327 52.4141 4.50293 51.6243 4.50293H30.3759C29.5861 4.50293 28.9458 5.14327 28.9458 5.93306V9.16509H53.0545Z" fill="#FFC839"/>
<path d="M36.9491 7.7955V5.87252C36.9491 5.11619 37.5624 4.50293 38.3187 4.50293H30.3759C29.5861 4.50293 28.9458 5.14327 28.9458 5.93306V9.16509H38.3187C37.5622 9.16493 36.9491 8.55183 36.9491 7.7955Z" fill="#FFB332"/>
<path d="M66.3186 20.2315V10.9966C66.3186 9.79711 65.3462 8.82471 64.1467 8.82471H17.853C16.6536 8.82471 15.6812 9.79711 15.6812 10.9966V20.2315H66.3186Z" fill="#FFC839"/>
<path d="M37.4173 8.82471H17.8533C16.6539 8.82471 15.6816 9.79711 15.6816 10.9966V20.2315H28.7333C28.7691 20.1188 28.7892 20.0052 28.7892 19.8911C28.7892 17.2183 31.5804 16.9922 31.5804 16.9922L37.4173 11.7235C35.7096 10.0158 37.4173 8.82471 37.4173 8.82471Z" fill="#FFB332"/>
<path d="M50.4201 11.7236H31.5802C30.1252 11.7236 28.9458 12.9031 28.9458 14.358C28.9458 15.8129 30.1252 16.9923 31.5802 16.9923H50.4199C51.8748 16.9923 53.0543 15.8129 53.0543 14.358C53.0545 12.9031 51.875 11.7236 50.4201 11.7236Z" fill="#FFB332"/>
<path d="M35.2968 14.358C35.2968 13.0678 36.2028 11.9906 37.4127 11.7236H31.5802C30.1252 11.7236 28.9458 12.9031 28.9458 14.358C28.9458 15.8129 30.1252 16.9923 31.5802 16.9923H37.4127C36.2028 16.7254 35.2968 15.6482 35.2968 14.358Z" fill="#FF9D33"/>
<path d="M58.5883 16.4853C59.7633 16.4853 60.7157 15.5328 60.7157 14.3579C60.7157 13.1829 59.7633 12.2305 58.5883 12.2305C57.4134 12.2305 56.4609 13.1829 56.4609 14.3579C56.4609 15.5328 57.4134 16.4853 58.5883 16.4853Z" fill="#FFB332"/>
<path d="M23.4121 16.4853C24.587 16.4853 25.5395 15.5328 25.5395 14.3579C25.5395 13.1829 24.587 12.2305 23.4121 12.2305C22.2371 12.2305 21.2847 13.1829 21.2847 14.3579C21.2847 15.5328 22.2371 16.4853 23.4121 16.4853Z" fill="#FF9D33"/>
<path d="M69.6727 24.5528V21.3208C69.6727 20.531 69.0324 19.8906 68.2426 19.8906H13.7573C12.9675 19.8906 12.3271 20.531 12.3271 21.3208V24.5528H69.6727Z" fill="#FFB332"/>
<path d="M27.6398 23.4035V21.0399C27.6398 20.4051 28.1543 19.8906 28.7889 19.8906H13.7573C12.9675 19.8906 12.3271 20.531 12.3271 21.3208V24.5528H28.7889C28.1543 24.5528 27.6398 24.0383 27.6398 23.4035Z" fill="#FF9D33"/>
<path d="M70.6744 24.2124H11.3261C10.5363 24.2124 9.896 24.8527 9.896 25.6425V30.3897H72.1046V25.6425C72.1046 24.8526 71.4644 24.2124 70.6744 24.2124Z" fill="#FFC839"/>
<path d="M20.9138 28.1506V26.4514C20.9138 25.3134 21.7535 24.374 22.8466 24.2124H11.3256C10.5358 24.2124 9.89551 24.8527 9.89551 25.6425V30.3897H22.8466C21.7536 30.2279 20.9138 29.2885 20.9138 28.1506Z" fill="#FFB332"/>
<path d="M73.3322 34.731H8.66798C7.39863 34.731 6.36963 33.702 6.36963 32.4326C6.36963 31.1633 7.39863 30.1343 8.66798 30.1343H73.3324C74.6017 30.1343 75.6307 31.1633 75.6307 32.4326C75.6307 33.702 74.6017 34.731 73.3322 34.731Z" fill="#FFDD40"/>
<path d="M20.3363 32.4326C20.3363 31.3083 21.1243 30.3694 22.1777 30.1343H8.66798C7.39863 30.1343 6.36963 31.1633 6.36963 32.4326C6.36963 33.702 7.39863 34.731 8.66798 34.731H22.1779C21.1243 34.4959 20.3363 33.5571 20.3363 32.4326Z" fill="#FFC839"/>
<path d="M25.6182 48.7764H15.9064C15.1256 48.7764 14.4927 49.4093 14.4927 50.1901V74.0182C18.107 77.1917 22.295 79.7263 26.8815 81.4474V52.3396C26.8815 51.6719 26.9288 51.0152 27.0197 50.3722C27.1388 49.5274 26.4714 48.7764 25.6182 48.7764Z" fill="#FFC839"/>
<path d="M20.2621 50.1901C20.2621 49.4093 20.8951 48.7764 21.6758 48.7764H15.9064C15.1256 48.7764 14.4927 49.4093 14.4927 50.1901V74.0182C16.2821 75.5894 18.2126 77.0035 20.2621 78.2404V50.1901Z" fill="#FFB332"/>
<path d="M66.0942 48.7764H56.3824C55.5293 48.7764 54.8618 49.5274 54.9811 50.3722C55.0718 51.0152 55.1191 51.6719 55.1191 52.3396V81.4473C59.7056 79.7261 63.8937 77.1915 67.5079 74.018V50.1901C67.5079 49.4093 66.875 48.7764 66.0942 48.7764Z" fill="#FFC839"/>
<path d="M66.0942 48.7764H56.3824C55.5293 48.7764 54.8618 49.5274 54.9811 50.3722C55.0718 51.0152 55.1191 51.6719 55.1191 52.3396V81.4473C59.7056 79.7261 63.8937 77.1915 67.5079 74.018V50.1901C67.5079 49.4093 66.875 48.7764 66.0942 48.7764Z" fill="#FFDD40"/>
<path d="M61.2011 78.5565V50.1901C61.2011 49.4093 61.834 48.7764 62.6148 48.7764H56.3819C55.5288 48.7764 54.8614 49.5274 54.9806 50.3722C55.0714 51.0152 55.1186 51.6719 55.1186 52.3396V81.4473C57.2375 80.6522 59.2697 79.6816 61.2011 78.5565Z" fill="#FFC839"/>
<path d="M61.5955 37.9209C59.518 37.9209 57.8276 39.6112 57.8276 41.6888C57.8276 43.7663 59.518 45.4566 61.5955 45.4566C63.6732 45.4566 65.3635 43.7663 65.3635 41.6888C65.3635 39.6112 63.6732 37.9209 61.5955 37.9209Z" fill="#FFC839"/>
<path d="M61.5954 39.8047C60.5565 39.8047 59.7114 40.6499 59.7114 41.6886C59.7114 42.7273 60.5567 43.5725 61.5954 43.5725C62.6342 43.5725 63.4795 42.7273 63.4795 41.6886C63.4795 40.6499 62.6342 39.8047 61.5954 39.8047Z" fill="#FFDD40"/>
<path d="M20.4051 37.9209C18.3275 37.9209 16.6372 39.6112 16.6372 41.6888C16.6372 43.7663 18.3275 45.4566 20.4051 45.4566C22.4826 45.4566 24.1729 43.7663 24.1729 41.6888C24.1729 39.6112 22.4826 37.9209 20.4051 37.9209Z" fill="#FFC839"/>
<path d="M23.0776 56.0293H18.2973C17.7947 56.0293 17.3872 56.4367 17.3872 56.9394V62.1562C17.3872 62.6587 17.7946 63.0663 18.2973 63.0663H23.0776C23.5801 63.0663 23.9876 62.6587 23.9876 62.1562V56.9394C23.9876 56.4367 23.5801 56.0293 23.0776 56.0293Z" fill="#FFB332"/>
<path d="M20.6873 62.1562V56.9394C20.6873 56.4368 21.0947 56.0293 21.5974 56.0293H18.2973C17.7947 56.0293 17.3872 56.4367 17.3872 56.9394V62.1562C17.3872 62.6587 17.7946 63.0663 18.2973 63.0663H21.5974C21.0947 63.0661 20.6873 62.6587 20.6873 62.1562Z" fill="#FF9D33"/>
<path d="M58.9232 56.0293H63.7035C64.2061 56.0293 64.6136 56.4367 64.6136 56.9394V62.1562C64.6136 62.6587 64.2062 63.0663 63.7035 63.0663H58.9232C58.4206 63.0663 58.0132 62.6587 58.0132 62.1562V56.9394C58.0133 56.4367 58.4207 56.0293 58.9232 56.0293Z" fill="#FFC839"/>
<path d="M61.3135 62.1562V56.9394C61.3135 56.4368 61.7208 56.0293 62.2234 56.0293H58.9232C58.4207 56.0293 58.0132 56.4367 58.0132 56.9394V62.1562C58.0132 62.6587 58.4206 63.0663 58.9232 63.0663H62.2234C61.7208 63.0661 61.3135 62.6587 61.3135 62.1562Z" fill="#FFB332"/>
<path d="M31.4783 54.4122H9.89604C9.19073 54.4122 8.61914 53.8406 8.61914 53.1353C8.61914 52.43 9.19073 51.8584 9.89604 51.8584H31.4783C32.1836 51.8584 32.7552 52.43 32.7552 53.1353C32.7552 53.8406 32.1836 54.4122 31.4783 54.4122Z" fill="#FFB332"/>
<path d="M31.4783 67.2374H9.89604C9.19073 67.2374 8.61914 66.6658 8.61914 65.9605C8.61914 65.2552 9.19073 64.6836 9.89604 64.6836H31.4783C32.1836 64.6836 32.7552 65.2552 32.7552 65.9605C32.7552 66.6658 32.1836 67.2374 31.4783 67.2374Z" fill="#FFB332"/>
<path d="M31.4782 73.877H14.3335C15.3515 74.7803 16.4151 75.6331 17.5214 76.4307H31.4782C32.1835 76.4307 32.7551 75.8592 32.7551 75.1538C32.7551 74.4485 32.1835 73.877 31.4782 73.877Z" fill="#FFB332"/>
<path d="M19.3378 53.1353C19.3378 52.43 19.9094 51.8584 20.6147 51.8584H9.89604C9.19073 51.8584 8.61914 52.43 8.61914 53.1353C8.61914 53.8406 9.19073 54.4122 9.89604 54.4122H20.6147C19.9094 54.4122 19.3378 53.8406 19.3378 53.1353Z" fill="#FF9D33"/>
<path d="M19.3378 65.9605C19.3378 65.2552 19.9094 64.6836 20.6147 64.6836H9.89604C9.19073 64.6836 8.61914 65.2552 8.61914 65.9605C8.61914 66.6658 9.19073 67.2374 9.89604 67.2374H20.6147C19.9094 67.2374 19.3378 66.6658 19.3378 65.9605Z" fill="#FF9D33"/>
<path d="M19.3377 75.1538C19.3377 74.4485 19.9093 73.877 20.6146 73.877H14.3335C15.3515 74.7803 16.4151 75.6331 17.5214 76.4307H20.6146C19.9093 76.4306 19.3377 75.859 19.3377 75.1538Z" fill="#FF9D33"/>
<path d="M72.1044 54.4122H50.522C49.8167 54.4122 49.2451 53.8406 49.2451 53.1353C49.2451 52.43 49.8167 51.8584 50.522 51.8584H72.1043C72.8096 51.8584 73.3812 52.43 73.3812 53.1353C73.3812 53.8406 72.8097 54.4122 72.1044 54.4122Z" fill="#FFC839"/>
<path d="M72.1044 67.2374H50.522C49.8167 67.2374 49.2451 66.6658 49.2451 65.9605C49.2451 65.2552 49.8167 64.6836 50.522 64.6836H72.1043C72.8096 64.6836 73.3812 65.2552 73.3812 65.9605C73.3813 66.6658 72.8097 67.2374 72.1044 67.2374Z" fill="#FFC839"/>
<path d="M50.522 73.877C49.8167 73.877 49.2451 74.4485 49.2451 75.1538C49.2451 75.8592 49.8167 76.4307 50.522 76.4307H64.4788C65.5852 75.6331 66.6489 74.7803 67.6667 73.877H50.522Z" fill="#FFC839"/>
<path d="M60.6498 53.1353C60.6498 52.43 61.2214 51.8584 61.9267 51.8584H50.522C49.8167 51.8584 49.2451 52.43 49.2451 53.1353C49.2451 53.8406 49.8167 54.4122 50.522 54.4122H61.9267C61.2214 54.4122 60.6498 53.8406 60.6498 53.1353Z" fill="#FFB332"/>
<path d="M60.6498 65.9605C60.6498 65.2552 61.2214 64.6836 61.9267 64.6836H50.522C49.8167 64.6836 49.2451 65.2552 49.2451 65.9605C49.2451 66.6658 49.8167 67.2374 50.522 67.2374H61.9267C61.2214 67.2374 60.6498 66.6658 60.6498 65.9605Z" fill="#FFB332"/>
<path d="M60.6498 75.1543C60.6498 74.449 61.2214 73.8774 61.9267 73.8774H50.522C49.8167 73.8774 49.2451 74.449 49.2451 75.1543C49.2451 75.8596 49.8167 76.4312 50.522 76.4312H61.9267C61.2214 76.4311 60.6498 75.8595 60.6498 75.1543Z" fill="#FFB332"/>
<path d="M20.4049 39.8047C19.3661 39.8047 18.521 40.6499 18.521 41.6886C18.521 42.7273 19.3662 43.5725 20.4049 43.5725C21.4438 43.5725 22.289 42.7273 22.289 41.6886C22.289 40.6499 21.4438 39.8047 20.4049 39.8047Z" fill="#FFDD40"/>
</svg>
