<svg width="22" height="22" viewBox="0 0 22 22" fill="none" xmlns="http://www.w3.org/2000/svg">
<path d="M11.0007 20.1666C5.93804 20.1666 1.83398 16.0625 1.83398 11C1.83398 5.93737 5.93804 1.83331 11.0007 1.83331C16.0632 1.83331 20.1673 5.93737 20.1673 11C20.1673 16.0625 16.0632 20.1666 11.0007 20.1666ZM11.0007 18.3333C15.0508 18.3333 18.334 15.0501 18.334 11C18.334 6.94989 15.0508 3.66665 11.0007 3.66665C6.95056 3.66665 3.66732 6.94989 3.66732 11C3.66732 15.0501 6.95056 18.3333 11.0007 18.3333ZM10.084 6.41665H11.9173V8.24998H10.084V6.41665ZM10.084 10.0833H11.9173V15.5833H10.084V10.0833Z" fill="black"/>
</svg>
