<svg width="25" height="25" viewBox="0 0 25 25" fill="none" xmlns="http://www.w3.org/2000/svg">
<path d="M17.3599 2.58984H7.35986C4.59986 2.58984 2.35986 4.82984 2.35986 7.58984V17.5898C2.35986 20.3498 4.59986 22.5898 7.35986 22.5898H17.3599C20.1199 22.5898 22.3599 20.3498 22.3599 17.5898V7.58984C22.3599 4.82984 20.1199 2.58984 17.3599 2.58984ZM12.3599 17.5898C9.59986 17.5898 7.35986 15.3498 7.35986 12.5898C7.35986 9.82984 9.59986 7.58984 12.3599 7.58984C15.1199 7.58984 17.3599 9.82984 17.3599 12.5898C17.3599 15.3498 15.1199 17.5898 12.3599 17.5898ZM17.7099 8.20984C17.1599 8.20984 16.7099 7.75984 16.7099 7.20984C16.7099 6.65984 17.1599 6.20984 17.7099 6.20984C18.2599 6.20984 18.7099 6.65984 18.7099 7.20984C18.7099 7.75984 18.2599 8.20984 17.7099 8.20984Z" fill="#74787B"/>
<path d="M12.3599 15.5898C14.0167 15.5898 15.3599 14.2467 15.3599 12.5898C15.3599 10.933 14.0167 9.58984 12.3599 9.58984C10.703 9.58984 9.35986 10.933 9.35986 12.5898C9.35986 14.2467 10.703 15.5898 12.3599 15.5898Z" fill="#74787B"/>
</svg>
