<svg width="26" height="26" viewBox="0 0 26 26" fill="none" xmlns="http://www.w3.org/2000/svg">
<path d="M22.8423 22.6621V15.2844C22.8423 11.6585 22.0617 8.88867 17.8315 8.88867C15.7919 8.88867 14.4322 9.99659 13.8782 11.0542H13.8278V9.21601H9.82422V22.6621H14.0041V15.9894C14.0041 14.2268 14.3314 12.5398 16.4969 12.5398C18.6372 12.5398 18.6624 14.529 18.6624 16.0902V22.637H22.8423V22.6621Z" fill="#74787B"/>
<path d="M3.02539 9.21582H7.20527V22.6619H3.02539V9.21582Z" fill="#74787B"/>
<path d="M5.11552 2.51807C3.78098 2.51807 2.69824 3.60081 2.69824 4.93535C2.69824 6.26989 3.78098 7.37781 5.11552 7.37781C6.45006 7.37781 7.5328 6.26989 7.5328 4.93535C7.5328 3.60081 6.45006 2.51807 5.11552 2.51807Z" fill="#74787B"/>
</svg>
