<svg width="32" height="32" viewBox="0 0 32 32" fill="none" xmlns="http://www.w3.org/2000/svg">
<path d="M11.6018 22.9342C11.963 22.3733 12.1753 21.7079 12.1753 20.9949C12.1753 19.0049 10.5561 17.3857 8.56609 17.3857C6.57928 17.3857 4.96004 19.0049 4.96004 20.9949C4.96004 22.9849 6.57928 24.6009 8.56609 24.6009C9.15231 24.6009 9.70368 24.4583 10.1917 24.2112L11.9376 25.9572L13.015 24.3474L11.6018 22.9342ZM8.56609 22.6997C7.62497 22.6997 6.8613 21.936 6.8613 20.9949C6.8613 20.0538 7.62497 19.2869 8.56609 19.2869C9.50722 19.2869 10.2741 20.0538 10.2741 20.9949C10.2741 21.936 9.50722 22.6997 8.56609 22.6997ZM31.8755 10.0753C31.8755 7.45161 30.8552 4.98315 28.9983 3.12626C26.9988 1.12677 24.3434 0.172972 21.7196 0.264866C19.6916 0.328241 17.6826 1.0222 16.0032 2.33407C16 2.33723 16 2.33724 16 2.33724C14.2794 0.987343 12.1721 0.249023 9.94767 0.249023C7.32394 0.249023 4.85864 1.27253 3.00175 3.12943C1.14803 4.98315 0.124512 7.45161 0.124512 10.0753C0.124512 12.2966 0.859673 14.4039 2.21273 16.1245C0.859673 17.8483 0.124512 19.9555 0.124512 22.1768C0.124512 24.8006 1.14803 27.269 3.00175 29.1228C4.85864 30.9797 7.32394 32 9.94767 32C12.1721 32 14.2794 31.2648 16 29.915C17.6953 31.2427 19.7265 31.9366 21.7735 31.9905C21.8654 31.9968 21.9604 31.9968 22.0523 31.9968C24.5652 31.9968 27.0843 31.0399 28.9983 29.1228C30.8552 27.269 31.8755 24.8006 31.8755 22.1768C31.8755 19.9555 31.1403 17.8451 29.7905 16.1245C31.1403 14.4039 31.8755 12.2966 31.8755 10.0753ZM2.02577 10.0753C2.02577 7.95862 2.84965 5.96863 4.3453 4.47298C5.84413 2.97732 7.83094 2.15028 9.94767 2.15028C11.6366 2.15028 13.2432 2.67629 14.5836 3.6491L9.53891 8.69377L3.52142 14.7081C2.55178 13.3677 2.02577 11.7611 2.02577 10.0753ZM13.671 25.0034L13.015 24.3474L11.6018 22.9342C11.963 22.3733 12.1753 21.7079 12.1753 20.9949C12.1753 19.0049 10.5561 17.3857 8.56609 17.3857C6.57928 17.3857 4.96004 19.0049 4.96004 20.9949C4.96004 22.9849 6.57928 24.6009 8.56609 24.6009C9.15231 24.6009 9.70368 24.4583 10.1917 24.2112L11.9376 25.9572L14.5772 28.5999C14.5804 28.6031 14.5836 28.6031 14.5836 28.6031C13.2432 29.5759 11.6366 30.0987 9.94767 30.0987C7.83094 30.0987 5.84413 29.2749 4.3453 27.7792C2.84965 26.2836 2.02577 24.2936 2.02577 22.1768C2.02577 20.0601 2.84965 18.0701 4.3453 16.5745L10.8096 10.1102L16 4.91978L20.9274 9.8472C20.601 10.3891 20.4109 11.0228 20.4109 11.6978C20.4109 13.6877 22.027 15.307 24.017 15.307C26.007 15.307 27.6262 13.6877 27.6262 11.6978C27.6262 9.71094 26.007 8.0917 24.017 8.0917C23.3959 8.0917 22.8097 8.25014 22.2963 8.52899L17.4164 3.6491C18.5889 2.80304 19.9451 2.31505 21.3267 2.19147C21.5675 2.16612 21.8115 2.15662 22.0523 2.15662C24.0803 2.15662 26.1083 2.92662 27.6547 4.47298C29.1504 5.96863 29.9742 7.95862 29.9742 10.0753C29.9742 12.1921 29.1504 14.1821 27.6547 15.6777L16 27.3292L13.671 25.0034ZM10.2741 20.9949C10.2741 21.936 9.50722 22.6997 8.56609 22.6997C7.62497 22.6997 6.8613 21.936 6.8613 20.9949C6.8613 20.0538 7.62497 19.2869 8.56609 19.2869C9.50722 19.2869 10.2741 20.0538 10.2741 20.9949ZM22.3122 11.6978C22.3122 10.7566 23.0758 9.99296 24.017 9.99296C24.9581 9.99296 25.7249 10.7566 25.7249 11.6978C25.7249 12.6389 24.9581 13.4057 24.017 13.4057C23.0758 13.4057 22.3122 12.6389 22.3122 11.6978ZM29.9742 22.1768C29.9742 24.2936 29.1504 26.2836 27.6547 27.7792C26.1559 29.2749 24.1659 30.0987 22.0523 30.0987C21.9573 30.0987 21.8654 30.0956 21.7735 30.0924C20.1859 30.0385 18.6808 29.5189 17.4164 28.6031L28.4786 17.5409C29.4482 18.8813 29.9742 20.4879 29.9742 22.1768ZM11.6018 22.9342C11.963 22.3733 12.1753 21.7079 12.1753 20.9949C12.1753 19.0049 10.5561 17.3857 8.56609 17.3857C6.57928 17.3857 4.96004 19.0049 4.96004 20.9949C4.96004 22.9849 6.57928 24.6009 8.56609 24.6009C9.15231 24.6009 9.70368 24.4583 10.1917 24.2112L11.9376 25.9572L13.015 24.3474L11.6018 22.9342ZM8.56609 22.6997C7.62497 22.6997 6.8613 21.936 6.8613 20.9949C6.8613 20.0538 7.62497 19.2869 8.56609 19.2869C9.50722 19.2869 10.2741 20.0538 10.2741 20.9949C10.2741 21.936 9.50722 22.6997 8.56609 22.6997Z" fill="url(#paint0_linear_138_848)"/>
<path d="M15.9999 27.329C15.1338 28.1753 14.5834 28.6028 14.5834 28.6028C14.5834 28.6028 14.5803 28.6028 14.5771 28.5996L11.9375 25.9569L13.0149 24.3472L13.6708 25.0031L15.9999 27.329Z" fill="url(#paint1_linear_138_848)"/>
<path d="M21.7735 30.0923V31.9904C19.7265 31.9366 17.6953 31.2426 16 29.9149C16 29.9149 16.7161 29.3033 17.4164 28.603C18.6808 29.5188 20.1859 30.0385 21.7735 30.0923Z" fill="url(#paint2_linear_138_848)"/>
<path d="M16.0002 4.9196L10.8097 10.11C10.4136 9.67908 9.95734 9.16574 9.53906 8.69359L14.5837 3.64893C14.5837 3.64893 15.2713 4.19078 16.0002 4.9196Z" fill="url(#paint3_linear_138_848)"/>
<path d="M21.7196 0.264648L21.3267 2.19126C19.9451 2.31484 18.5889 2.80283 17.4164 3.64888C16.5228 2.75529 16 2.33702 16 2.33702C16 2.33702 16 2.33702 16.0032 2.33385C17.6826 1.02198 19.6916 0.328024 21.7196 0.264648Z" fill="url(#paint4_linear_138_848)"/>
<defs>
<linearGradient id="paint0_linear_138_848" x1="-1.65886" y1="-1.5983" x2="38.4944" y2="12.8325" gradientUnits="userSpaceOnUse">
<stop stop-color="#06F7C4"/>
<stop offset="0.309258" stop-color="#4359FF"/>
</linearGradient>
<linearGradient id="paint1_linear_138_848" x1="14.9596" y1="27.6868" x2="12.9783" y2="25.5998" gradientUnits="userSpaceOnUse">
<stop stop-color="#2284C6"/>
<stop offset="1" stop-color="#2284C6" stop-opacity="0"/>
</linearGradient>
<linearGradient id="paint2_linear_138_848" x1="17.3111" y1="29.4057" x2="20.361" y2="30.8317" gradientUnits="userSpaceOnUse">
<stop stop-color="#2284C6"/>
<stop offset="1" stop-color="#2284C6" stop-opacity="0"/>
</linearGradient>
<linearGradient id="paint3_linear_138_848" x1="15.0378" y1="4.63349" x2="12.1067" y2="7.44576" gradientUnits="userSpaceOnUse">
<stop stop-color="#2284C6"/>
<stop offset="1" stop-color="#2284C6" stop-opacity="0"/>
</linearGradient>
<linearGradient id="paint4_linear_138_848" x1="16.9823" y1="2.70874" x2="20.25" y2="1.42143" gradientUnits="userSpaceOnUse">
<stop stop-color="#2284C6"/>
<stop offset="1" stop-color="#2284C6" stop-opacity="0"/>
</linearGradient>
</defs>
</svg>
