<svg width="60" height="60" viewBox="0 0 60 60" fill="none" xmlns="http://www.w3.org/2000/svg">
<path fill-rule="evenodd" clip-rule="evenodd" d="M48.416 43.9857C48.0991 43.9857 47.8423 43.7288 47.8423 43.4119C47.8423 43.095 48.0991 42.8382 48.416 42.8382H55.161C55.4779 42.8382 55.7348 43.095 55.7348 43.4119C55.7348 43.7288 55.4779 43.9857 55.161 43.9857H48.416ZM39.7266 29.4263V27.1588H39.7254C39.7254 26.9144 39.5673 26.6875 39.321 26.6119L35.4416 25.4082C35.3048 24.9719 35.1504 24.5457 34.9785 24.1313C34.8048 23.7125 34.6123 23.3013 34.4023 22.8988L36.2766 19.3369C36.4135 19.1157 36.386 18.8213 36.1941 18.6294L34.6185 17.0538L37.4398 14.595H45.6585V19.7775C45.6585 20.0944 45.9154 20.3513 46.2323 20.3513H57.3448C57.6616 20.3513 57.9185 20.0944 57.9185 19.7775V8.26503C57.9185 7.94816 57.6616 7.69128 57.3448 7.69128H46.2316C45.9148 7.69128 45.6579 7.94816 45.6579 8.26503V13.4475H37.2273C37.066 13.4475 36.9204 13.5138 36.816 13.6213L33.8073 16.2438L32.176 14.6119L32.1754 14.6125C32.0029 14.44 31.731 14.3913 31.5035 14.5113L27.9066 16.4044C27.5048 16.1938 27.0935 16.0019 26.6748 15.8282C26.2604 15.6563 25.8341 15.5019 25.3979 15.365L24.2066 11.5269C24.1485 11.2707 23.9204 11.08 23.6466 11.08H17.9641V11.0813C17.7191 11.0813 17.4929 11.2394 17.4173 11.4857L16.2135 15.365C15.7773 15.5019 15.351 15.6563 14.9366 15.8282C14.5179 16.0019 14.1066 16.1944 13.7048 16.4044L10.1429 14.53C9.92164 14.3932 9.62727 14.4207 9.43539 14.6125L5.41727 18.6307L5.41789 18.6319C5.24477 18.8044 5.19664 19.0763 5.31602 19.3038L7.20914 22.9007C6.99852 23.3025 6.80664 23.7132 6.63289 24.1325C6.46102 24.5469 6.30602 24.9732 6.16977 25.41L2.33164 26.5994C2.07539 26.6569 1.88477 26.8857 1.88477 27.1588V32.8413H1.88602C1.88602 33.0857 2.04414 33.3125 2.29039 33.3882L6.16977 34.5919C6.30664 35.0288 6.46102 35.4544 6.63289 35.8688C6.80664 36.2875 6.99914 36.6988 7.20977 37.1013L5.33539 40.6625C5.19852 40.8838 5.22602 41.1782 5.41789 41.37L9.43602 45.3882L9.43727 45.3875C9.60977 45.56 9.88164 45.6088 10.1091 45.4894L13.706 43.5963C14.1079 43.8063 14.5191 43.9988 14.9379 44.1725C15.3523 44.3444 15.7785 44.4988 16.2154 44.6357L17.4066 48.4744C17.4641 48.73 17.6929 48.9213 17.9666 48.9213H23.6491V48.9194C23.8935 48.9194 24.1204 48.7613 24.196 48.515L25.4004 44.635C25.8366 44.4988 26.2629 44.3438 26.6773 44.1719C27.096 43.9982 27.5073 43.8057 27.9091 43.5957L31.471 45.47C31.6923 45.6069 31.9866 45.5794 32.1785 45.3875L33.8104 43.7557L36.8191 46.3775C36.9235 46.4844 37.0691 46.5513 37.2304 46.5513H45.661V51.7338C45.661 52.0507 45.9179 52.3075 46.2348 52.3075H57.3473C57.6641 52.3075 57.921 52.0507 57.921 51.7338V40.2213C57.921 39.9044 57.6641 39.6475 57.3473 39.6475H46.2316C45.9148 39.6475 45.6579 39.9044 45.6579 40.2213V45.4038H37.4391L34.6179 42.945L36.1935 41.3694L36.1929 41.3688C36.3654 41.1963 36.4141 40.9244 36.2948 40.6969L34.4016 37.1C34.6123 36.6982 34.8041 36.2869 34.9779 35.8682C35.1498 35.4538 35.3048 35.0275 35.441 34.5913L39.2798 33.4C39.5354 33.3425 39.7266 33.1138 39.7266 32.84V30.5732H45.8554V35.7557C45.8554 36.0725 46.1123 36.3294 46.4291 36.3294H57.5416C57.8585 36.3294 58.1154 36.0725 58.1154 35.7557V24.2438C58.1154 23.9269 57.8585 23.67 57.5416 23.67H46.4291C46.1123 23.67 45.8554 23.9269 45.8554 24.2438V29.4263H39.7266ZM18.8216 27.4932H22.7185C23.0354 27.4932 23.2923 27.75 23.2923 28.0669V31.9644C23.2923 32.2813 23.0354 32.5382 22.7185 32.5382H18.8216C18.5048 32.5382 18.2479 32.2813 18.2479 31.9644V28.0669C18.2479 27.75 18.5054 27.4932 18.8216 27.4932ZM22.1454 28.6407V31.39H19.396V28.6407H22.1454ZM15.8923 28.1532H14.3129C13.996 28.1532 13.7391 27.8963 13.7391 27.5794C13.7391 27.2625 13.996 27.0057 14.3129 27.0057H15.8923V25.7107C15.8923 25.3938 16.1491 25.1369 16.466 25.1369H17.761V23.5288C17.761 23.2119 18.0179 22.955 18.3348 22.955C18.6516 22.955 18.9085 23.2119 18.9085 23.5288V25.1369H20.1966V23.5288C20.1966 23.2119 20.4535 22.955 20.7704 22.955C21.0873 22.955 21.3441 23.2119 21.3441 23.5288V25.1369H22.6323V23.5288C22.6323 23.2119 22.8891 22.955 23.206 22.955C23.5229 22.955 23.7798 23.2119 23.7798 23.5288V25.1369H25.0748C25.3916 25.1369 25.6485 25.3938 25.6485 25.7107V27.0057H27.2985C27.6154 27.0057 27.8723 27.2625 27.8723 27.5794C27.8723 27.8963 27.6154 28.1532 27.2985 28.1532H25.6485V29.4413H27.2985C27.6154 29.4413 27.8723 29.6982 27.8723 30.015C27.8723 30.3319 27.6154 30.5888 27.2985 30.5888H25.6485V31.8769H27.2985C27.6154 31.8769 27.8723 32.1338 27.8723 32.4507C27.8723 32.7675 27.6154 33.0244 27.2985 33.0244H25.6485V34.3194C25.6485 34.6363 25.3916 34.8932 25.0748 34.8932H23.7798V36.4707C23.7798 36.7875 23.5229 37.0444 23.206 37.0444C22.8891 37.0444 22.6323 36.7875 22.6323 36.4707V34.8938H21.3441V36.4713C21.3441 36.7882 21.0873 37.045 20.7704 37.045C20.4535 37.045 20.1966 36.7882 20.1966 36.4713V34.8938H18.9085V36.4713C18.9085 36.7882 18.6516 37.045 18.3348 37.045C18.0179 37.045 17.761 36.7882 17.761 36.4713V34.8938H16.466C16.1491 34.8938 15.8923 34.6369 15.8923 34.32V33.025H14.3129C13.996 33.025 13.7391 32.7682 13.7391 32.4513C13.7391 32.1344 13.996 31.8775 14.3129 31.8775H15.8923V30.5894H14.3129C13.996 30.5894 13.7391 30.3325 13.7391 30.0157C13.7391 29.6988 13.996 29.4419 14.3129 29.4419H15.8923V28.1532ZM24.501 26.2844V27.5794V30.015V32.4507V33.7457H23.206H20.7704H18.3348H17.0398V32.4507V30.015V27.5794V26.2844H18.3348H20.7704H23.206H24.501ZM20.806 18.8288C23.891 18.8288 26.6835 20.0794 28.7054 22.1007C30.7273 24.1225 31.9773 26.915 31.9773 30C31.9773 33.085 30.7266 35.8775 28.7054 37.8994C26.6841 39.9207 23.891 41.1713 20.806 41.1713C17.721 41.1713 14.9285 39.9207 12.9066 37.8994C10.8848 35.8775 9.63477 33.085 9.63477 30C9.63477 26.915 10.8854 24.1225 12.9066 22.1007C14.9279 20.0788 17.721 18.8288 20.806 18.8288ZM27.8935 22.9119C29.7073 24.7257 30.8291 27.2319 30.8291 30C30.8291 32.7682 29.7073 35.2738 27.8935 37.0882C26.0798 38.9025 23.5735 40.0238 20.8054 40.0238C18.0373 40.0238 15.5316 38.9019 13.7173 37.0882C11.9035 35.2744 10.7816 32.7682 10.7816 30C10.7816 27.2319 11.9035 24.7263 13.7173 22.9119C15.531 21.0982 18.0373 19.9763 20.8054 19.9763C23.5735 19.9763 26.0798 21.0982 27.8935 22.9119ZM18.386 12.2263H23.226L24.3948 15.9913C24.456 16.19 24.6154 16.3319 24.8041 16.3788C25.2848 16.52 25.7629 16.6888 26.236 16.885C26.7116 17.0819 27.1766 17.3057 27.6291 17.5538C27.8104 17.6538 28.0223 17.6444 28.1898 17.5488L31.6635 15.7207L35.0854 19.1425L33.2479 22.6344C33.1548 22.8113 33.1635 23.0138 33.2529 23.1769C33.501 23.6294 33.7248 24.0944 33.9216 24.57C34.121 25.05 34.2923 25.5357 34.4341 26.0232C34.4898 26.215 34.6373 26.3557 34.8154 26.4107L38.5804 27.5794V30V32.42L34.8154 33.5888C34.6166 33.65 34.4748 33.8094 34.4279 33.9982C34.2866 34.4788 34.1179 34.9569 33.921 35.4307C33.7241 35.9063 33.5004 36.3707 33.2523 36.8232C33.1529 37.0044 33.1616 37.2163 33.2573 37.3838L35.0854 40.8575L31.6635 44.2794L28.1716 42.4419C27.9948 42.3494 27.7923 42.3575 27.6291 42.4463C27.1766 42.695 26.7116 42.9182 26.236 43.1157C25.756 43.315 25.2704 43.4863 24.7829 43.6282C24.5904 43.6838 24.4504 43.8319 24.3954 44.0094L23.2266 47.7744H18.3866L17.2179 44.0094C17.1566 43.8107 16.9966 43.6688 16.8085 43.6219C16.3279 43.4807 15.8498 43.3119 15.3766 43.1157C14.901 42.9188 14.436 42.695 13.9841 42.4469C13.8029 42.3475 13.591 42.3563 13.4235 42.4519L9.94977 44.28L6.52727 40.8582L8.36477 37.3663C8.45789 37.19 8.44914 36.9869 8.36039 36.8238C8.11227 36.3713 7.88852 35.9063 7.69164 35.4307C7.49227 34.95 7.32102 34.465 7.17914 33.9775C7.12352 33.7857 6.97602 33.645 6.79789 33.59L3.03289 32.4213V27.5807L6.79789 26.4125C6.99664 26.3513 7.13852 26.1919 7.18539 26.0032C7.32664 25.5225 7.49539 25.0444 7.69227 24.5707C7.88914 24.095 8.11289 23.63 8.36102 23.1782C8.46039 22.9969 8.45164 22.785 8.35602 22.6175L6.52789 19.1438L9.94977 15.7219L13.4416 17.5594C13.6185 17.6525 13.821 17.6438 13.9841 17.555C14.436 17.3069 14.9016 17.0832 15.3773 16.8863C15.8573 16.6869 16.3429 16.5157 16.8304 16.3738C17.0223 16.3182 17.1629 16.1707 17.2179 15.9925L18.386 12.2263ZM56.771 8.83878V19.2038H46.8054V14.0213V8.83878H56.771ZM48.416 17.1619C48.0991 17.1619 47.8423 16.905 47.8423 16.5882C47.8423 16.2713 48.0991 16.0144 48.416 16.0144H55.161C55.4779 16.0144 55.7348 16.2713 55.7348 16.5882C55.7348 16.905 55.4779 17.1619 55.161 17.1619H48.416ZM48.416 14.595C48.0991 14.595 47.8423 14.3382 47.8423 14.0213C47.8423 13.7044 48.0991 13.4475 48.416 13.4475H55.161C55.4779 13.4475 55.7348 13.7044 55.7348 14.0213C55.7348 14.3382 55.4779 14.595 55.161 14.595H48.416ZM48.416 12.0282C48.0991 12.0282 47.8423 11.7713 47.8423 11.4544C47.8423 11.1375 48.0991 10.8807 48.416 10.8807H55.161C55.4779 10.8807 55.7348 11.1375 55.7348 11.4544C55.7348 11.7713 55.4779 12.0282 55.161 12.0282H48.416ZM56.9685 24.8175V35.1825H47.0035V24.8175H56.9685ZM48.6135 33.1407C48.2966 33.1407 48.0398 32.8838 48.0398 32.5669C48.0398 32.25 48.2966 31.9932 48.6135 31.9932H55.3585C55.6754 31.9932 55.9323 32.25 55.9323 32.5669C55.9323 32.8838 55.6754 33.1407 55.3585 33.1407H48.6135ZM48.6135 30.5738C48.2966 30.5738 48.0398 30.3169 48.0398 30C48.0398 29.6832 48.2966 29.4263 48.6135 29.4263H55.3585C55.6754 29.4263 55.9323 29.6832 55.9323 30C55.9323 30.3169 55.6754 30.5738 55.3585 30.5738H48.6135ZM48.6135 28.0069C48.2966 28.0069 48.0398 27.75 48.0398 27.4332C48.0398 27.1163 48.2966 26.8594 48.6135 26.8594H55.3585C55.6754 26.8594 55.9323 27.1163 55.9323 27.4332C55.9323 27.75 55.6754 28.0069 55.3585 28.0069H48.6135ZM56.771 40.7963H46.8054V45.9788V51.1613H56.7704L56.771 40.7963ZM48.416 49.1194C48.0991 49.1194 47.8423 48.8625 47.8423 48.5457C47.8423 48.2288 48.0991 47.9719 48.416 47.9719H55.161C55.4779 47.9719 55.7348 48.2288 55.7348 48.5457C55.7348 48.8625 55.4779 49.1194 55.161 49.1194H48.416ZM48.416 46.5525C48.0991 46.5525 47.8423 46.2957 47.8423 45.9788C47.8423 45.6619 48.0991 45.405 48.416 45.405H55.161C55.4779 45.405 55.7348 45.6619 55.7348 45.9788C55.7348 46.2957 55.4779 46.5525 55.161 46.5525H48.416Z" fill="#474747"/>
</svg>
