<svg width="60" height="60" viewBox="0 0 60 60" fill="none" xmlns="http://www.w3.org/2000/svg">
<path d="M55 19.375H50.625V15.625H55C55.1658 15.625 55.3247 15.5592 55.4419 15.4419C55.5592 15.3247 55.625 15.1658 55.625 15C55.625 14.8342 55.5592 14.6753 55.4419 14.5581C55.3247 14.4408 55.1658 14.375 55 14.375H50.625V13.75C50.6243 13.2529 50.4265 12.7765 50.075 12.425C49.7235 12.0735 49.2471 11.8757 48.75 11.875H48.125V7.5C48.125 7.33424 48.0592 7.17527 47.9419 7.05806C47.8247 6.94085 47.6658 6.875 47.5 6.875C47.3342 6.875 47.1753 6.94085 47.0581 7.05806C46.9408 7.17527 46.875 7.33424 46.875 7.5V11.875H43.125V7.5C43.125 7.33424 43.0592 7.17527 42.9419 7.05806C42.8247 6.94085 42.6658 6.875 42.5 6.875C42.3342 6.875 42.1753 6.94085 42.0581 7.05806C41.9408 7.17527 41.875 7.33424 41.875 7.5V11.875H41.25C40.7529 11.8757 40.2765 12.0735 39.925 12.425C39.5735 12.7765 39.3757 13.2529 39.375 13.75V14.375H35C34.8342 14.375 34.6753 14.4408 34.5581 14.5581C34.4408 14.6753 34.375 14.8342 34.375 15C34.375 15.1658 34.4408 15.3247 34.5581 15.4419C34.6753 15.5592 34.8342 15.625 35 15.625H39.375V19.375H35C34.8342 19.375 34.6753 19.4408 34.5581 19.5581C34.4408 19.6753 34.375 19.8342 34.375 20C34.375 20.1658 34.4408 20.3247 34.5581 20.4419C34.6753 20.5592 34.8342 20.625 35 20.625H39.375V21.25C39.3757 21.7471 39.5735 22.2235 39.925 22.575C40.2765 22.9265 40.7529 23.1243 41.25 23.125H41.875V27.5C41.875 27.6658 41.9408 27.8247 42.0581 27.9419C42.1753 28.0592 42.3342 28.125 42.5 28.125C42.6658 28.125 42.8247 28.0592 42.9419 27.9419C43.0592 27.8247 43.125 27.6658 43.125 27.5V23.125H46.875V27.5C46.875 27.6658 46.9408 27.8247 47.0581 27.9419C47.1753 28.0592 47.3342 28.125 47.5 28.125C47.6658 28.125 47.8247 28.0592 47.9419 27.9419C48.0592 27.8247 48.125 27.6658 48.125 27.5V23.125H48.75C49.2471 23.1243 49.7235 22.9265 50.075 22.575C50.4265 22.2235 50.6243 21.7471 50.625 21.25V20.625H55C55.1658 20.625 55.3247 20.5592 55.4419 20.4419C55.5592 20.3247 55.625 20.1658 55.625 20C55.625 19.8342 55.5592 19.6753 55.4419 19.5581C55.3247 19.4408 55.1658 19.375 55 19.375ZM49.375 21.25C49.375 21.4158 49.3092 21.5747 49.1919 21.6919C49.0747 21.8092 48.9158 21.875 48.75 21.875H41.25C41.0842 21.875 40.9253 21.8092 40.8081 21.6919C40.6908 21.5747 40.625 21.4158 40.625 21.25V13.75C40.625 13.5842 40.6908 13.4253 40.8081 13.3081C40.9253 13.1908 41.0842 13.125 41.25 13.125H48.75C48.9158 13.125 49.0747 13.1908 49.1919 13.3081C49.3092 13.4253 49.375 13.5842 49.375 13.75V21.25Z" fill="#474747"/>
<path d="M32.5 24.375H7.5C6.67142 24.3757 5.87699 24.7052 5.2911 25.2911C4.7052 25.877 4.37573 26.6714 4.375 27.5V35C4.37573 35.8286 4.7052 36.623 5.2911 37.2089C5.87699 37.7948 6.67142 38.1243 7.5 38.125H10C10.1658 38.125 10.3247 38.0592 10.4419 37.9419C10.5592 37.8247 10.625 37.6658 10.625 37.5V35.625H32.5C33.3286 35.6243 34.123 35.2948 34.7089 34.7089C35.2948 34.123 35.6243 33.3286 35.625 32.5V27.5C35.6243 26.6714 35.2948 25.877 34.7089 25.2911C34.123 24.7052 33.3286 24.3757 32.5 24.375ZM34.375 32.5C34.3741 32.997 34.1762 33.4734 33.8248 33.8248C33.4734 34.1762 32.997 34.3741 32.5 34.375H10C9.83424 34.375 9.67527 34.4408 9.55806 34.5581C9.44085 34.6753 9.375 34.8342 9.375 35V36.875H7.5C7.003 36.8741 6.52663 36.6762 6.1752 36.3248C5.82377 35.9734 5.62593 35.497 5.625 35V27.5C5.62573 27.0029 5.82351 26.5265 6.17498 26.175C6.52645 25.8235 7.00294 25.6257 7.5 25.625H32.5C32.9971 25.6257 33.4736 25.8235 33.825 26.175C34.1765 26.5265 34.3743 27.0029 34.375 27.5V32.5Z" fill="#474747"/>
<path d="M32.5 39.375H7.5C6.67142 39.3757 5.87699 39.7052 5.2911 40.2911C4.7052 40.877 4.37573 41.6714 4.375 42.5V47.5C4.37573 48.3286 4.7052 49.123 5.2911 49.7089C5.87699 50.2948 6.67142 50.6243 7.5 50.625H29.375V52.5C29.375 52.6658 29.4408 52.8247 29.5581 52.9419C29.6753 53.0592 29.8342 53.125 30 53.125H32.5C33.3286 53.1243 34.123 52.7948 34.7089 52.2089C35.2948 51.623 35.6243 50.8286 35.625 50V42.5C35.6243 41.6714 35.2948 40.877 34.7089 40.2911C34.123 39.7052 33.3286 39.3757 32.5 39.375ZM34.375 50C34.3741 50.497 34.1762 50.9734 33.8248 51.3248C33.4734 51.6762 32.997 51.8741 32.5 51.875H30.625V50C30.625 49.8342 30.5592 49.6753 30.4419 49.5581C30.3247 49.4408 30.1658 49.375 30 49.375H7.5C7.003 49.3741 6.52663 49.1762 6.1752 48.8248C5.82377 48.4734 5.62593 47.997 5.625 47.5V42.5C5.62593 42.003 5.82377 41.5266 6.1752 41.1752C6.52663 40.8238 7.003 40.6259 7.5 40.625H32.5C32.997 40.6259 33.4734 40.8238 33.8248 41.1752C34.1762 41.5266 34.3741 42.003 34.375 42.5V50Z" fill="#474747"/>
<path d="M15 29.375H10C9.83424 29.375 9.67527 29.4408 9.55806 29.5581C9.44085 29.6753 9.375 29.8342 9.375 30C9.375 30.1658 9.44085 30.3247 9.55806 30.4419C9.67527 30.5592 9.83424 30.625 10 30.625H15C15.1658 30.625 15.3247 30.5592 15.4419 30.4419C15.5592 30.3247 15.625 30.1658 15.625 30C15.625 29.8342 15.5592 29.6753 15.4419 29.5581C15.3247 29.4408 15.1658 29.375 15 29.375Z" fill="#474747"/>
<path d="M25 29.375H20C19.8342 29.375 19.6753 29.4408 19.5581 29.5581C19.4408 29.6753 19.375 29.8342 19.375 30C19.375 30.1658 19.4408 30.3247 19.5581 30.4419C19.6753 30.5592 19.8342 30.625 20 30.625H25C25.1658 30.625 25.3247 30.5592 25.4419 30.4419C25.5592 30.3247 25.625 30.1658 25.625 30C25.625 29.8342 25.5592 29.6753 25.4419 29.5581C25.3247 29.4408 25.1658 29.375 25 29.375Z" fill="#474747"/>
<path d="M30 44.375H20C19.8342 44.375 19.6753 44.4408 19.5581 44.5581C19.4408 44.6753 19.375 44.8342 19.375 45C19.375 45.1658 19.4408 45.3247 19.5581 45.4419C19.6753 45.5592 19.8342 45.625 20 45.625H30C30.1658 45.625 30.3247 45.5592 30.4419 45.4419C30.5592 45.3247 30.625 45.1658 30.625 45C30.625 44.8342 30.5592 44.6753 30.4419 44.5581C30.3247 44.4408 30.1658 44.375 30 44.375Z" fill="#474747"/>
<path d="M15 44.375H10C9.83424 44.375 9.67527 44.4408 9.55806 44.5581C9.44085 44.6753 9.375 44.8342 9.375 45C9.375 45.1658 9.44085 45.3247 9.55806 45.4419C9.67527 45.5592 9.83424 45.625 10 45.625H15C15.1658 45.625 15.3247 45.5592 15.4419 45.4419C15.5592 45.3247 15.625 45.1658 15.625 45C15.625 44.8342 15.5592 44.6753 15.4419 44.5581C15.3247 44.4408 15.1658 44.375 15 44.375Z" fill="#474747"/>
<path d="M20 20.625C20.1658 20.625 20.3247 20.5592 20.4419 20.4419C20.5592 20.3247 20.625 20.1658 20.625 20V17.5C20.6257 17.0029 20.8235 16.5265 21.175 16.175C21.5265 15.8235 22.0029 15.6257 22.5 15.625H30C30.1658 15.625 30.3247 15.5592 30.4419 15.4419C30.5592 15.3247 30.625 15.1658 30.625 15C30.625 14.8342 30.5592 14.6753 30.4419 14.5581C30.3247 14.4408 30.1658 14.375 30 14.375H22.5C21.6714 14.3757 20.877 14.7052 20.2911 15.2911C19.7052 15.877 19.3757 16.6714 19.375 17.5V20C19.375 20.1658 19.4408 20.3247 19.5581 20.4419C19.6753 20.5592 19.8342 20.625 20 20.625Z" fill="#474747"/>
<path d="M45 31.875C44.8342 31.875 44.6753 31.9408 44.5581 32.0581C44.4408 32.1753 44.375 32.3342 44.375 32.5V42.5C44.3741 42.997 44.1762 43.4734 43.8248 43.8248C43.4734 44.1762 42.997 44.3741 42.5 44.375H40C39.8342 44.375 39.6753 44.4408 39.5581 44.5581C39.4408 44.6753 39.375 44.8342 39.375 45C39.375 45.1658 39.4408 45.3247 39.5581 45.4419C39.6753 45.5592 39.8342 45.625 40 45.625H42.5C43.3286 45.6243 44.123 45.2948 44.7089 44.7089C45.2948 44.123 45.6243 43.3286 45.625 42.5V32.5C45.625 32.3342 45.5592 32.1753 45.4419 32.0581C45.3247 31.9408 45.1658 31.875 45 31.875Z" fill="#474747"/>
</svg>
