<svg width="499" height="374" viewBox="0 0 499 374" fill="none" xmlns="http://www.w3.org/2000/svg">
<path d="M432.997 167.886L432.994 167.899L386.084 159.878L326.508 177.504L301.063 168.116C297.519 168.994 294.347 169.875 291.478 170.763V170.762C291.478 170.762 199.592 185.444 210.659 266.76L262.008 267.99C263.434 272.4 263.536 271.334 264.569 273.969L282.96 334.763H433.458L434.856 285.163L480.528 314.556C486.171 318.188 493.662 314.546 494.275 307.863C496.21 286.755 498.542 249.606 498.577 248.643C500.984 181.074 432.997 167.886 432.997 167.886Z" fill="#5E80E6"/>
<path d="M266.91 282.703C266.465 282.703 266.058 282.403 265.942 281.952L256.793 246.304C256.656 245.769 256.978 245.224 257.513 245.086C258.048 244.95 258.593 245.271 258.731 245.806L267.88 281.454C268.017 281.989 267.694 282.534 267.16 282.672C267.076 282.693 266.993 282.703 266.91 282.703Z" fill="#121936"/>
<path d="M442.543 289.163C442.33 289.163 442.116 289.096 441.935 288.956L413.879 267.372C410.438 265.096 408.188 261.373 407.762 257.199L404.87 228.867C404.814 228.317 405.214 227.827 405.764 227.77C406.304 227.72 406.804 228.114 406.861 228.663L409.753 256.995C410.117 260.57 412.045 263.76 415.042 265.744L443.154 287.369C443.592 287.706 443.673 288.334 443.338 288.771C443.139 289.029 442.843 289.163 442.543 289.163Z" fill="#121936"/>
<path d="M365.82 73.1977L351.954 72.7157C345.17 72.4797 339.165 76.4177 336.415 82.2057L339.1 42.8437C339.1 42.8437 325.228 50.8777 307.022 40.3587C307.022 40.3587 286.083 33.4137 279.525 49.6067C279.509 49.7677 279.487 49.9287 279.476 50.0907L275.446 108.605C273.972 130.01 288.594 148.681 308.69 152.035L313.372 175.27C316.827 192.416 333.907 203.572 351.328 200.062L352.051 199.916C369.472 196.406 384.359 183.239 380.904 166.093L367.206 109.214L370.417 109.325C380.347 109.67 388.755 101.828 389.101 91.8977L389.147 90.5727C389.319 85.6347 387.27 81.1197 383.916 77.9607C381.089 75.2987 377.339 73.5957 373.176 73.4517L365.82 73.1977Z" fill="#FFAA89"/>
<path d="M308.986 152.721C308.986 152.721 344.129 148.541 347.901 135.156C347.901 135.156 352.647 153.83 312.25 170.715L308.986 152.721Z" fill="#FF6A48"/>
<path d="M369.937 120.566C369.937 120.566 369.912 115.35 372.594 109.479L357.334 108.949L369.937 120.566Z" fill="#121936"/>
<path d="M366.843 32.0777C366.843 32.0777 376.352 15.4907 350.919 3.51467C325.487 -8.46133 316.124 14.0097 316.124 14.0097C316.124 14.0097 313.089 -6.57433 282.312 3.39667C251.534 13.3667 278.844 51.5147 278.844 51.5147C279.047 50.8427 279.278 50.2137 279.524 49.6077C286.082 33.4137 307.021 40.3597 307.021 40.3597C325.228 50.8787 339.099 42.8447 339.099 42.8447L336.715 77.7947C335.682 84.7817 334.307 94.0277 333.322 100.641C332.687 104.907 328.232 107.451 324.23 105.839L302.204 96.9647C301.153 96.5417 300.012 96.3927 298.888 96.5317L281.484 98.6927C278.338 99.0837 275.902 101.633 275.654 104.793L274.345 121.477C272.894 139.966 287.734 155.661 306.275 155.248L315.989 155.031C316.65 155.016 317.306 154.903 317.934 154.696L320.375 154.556C345.32 153.121 361.108 127.158 350.904 104.349C350.045 103.147 349.608 101.693 349.664 100.216L350.675 74.7197C350.702 74.0327 350.622 73.3667 350.45 72.7387C350.947 72.7107 351.447 72.6977 351.953 72.7157L365.819 73.1977L373.174 73.4527C377.336 73.5977 381.087 75.2997 383.914 77.9617C388.318 66.9067 392.165 56.0037 393.286 49.2307C396.321 30.9077 366.843 32.0777 366.843 32.0777Z" fill="#121936"/>
<path d="M374.734 97.3197C374.546 97.3197 374.357 97.2677 374.189 97.1577L368.389 93.3757C368.144 93.2157 367.982 92.9577 367.944 92.6677C367.906 92.3777 367.996 92.0867 368.191 91.8697L374.39 84.9727C374.762 84.5627 375.393 84.5287 375.803 84.8977C376.213 85.2667 376.247 85.8997 375.878 86.3097L370.459 92.3387L375.28 95.4827C375.743 95.7847 375.874 96.4037 375.572 96.8667C375.38 97.1607 375.061 97.3197 374.734 97.3197Z" fill="#FF6A48"/>
<path d="M281.877 79.2077C281.443 81.2427 282.741 83.2437 284.775 83.6777C286.81 84.1117 288.811 82.8137 289.245 80.7787C289.679 78.7437 288.381 76.7427 286.346 76.3087C284.312 75.8747 282.311 77.1727 281.877 79.2077Z" fill="#121936"/>
<path d="M308.922 80.0287C308.942 82.1097 310.644 83.7797 312.725 83.7607C314.805 83.7407 316.476 82.0387 316.456 79.9577C316.436 77.8777 314.734 76.2067 312.654 76.2267C310.573 76.2457 308.902 77.9477 308.922 80.0287Z" fill="#121936"/>
<path d="M316.308 84.1897C316.308 84.1897 313.11 81.5556 309.664 84.2186L316.308 84.1897Z" fill="#FFA386"/>
<path d="M309.665 85.2177C309.365 85.2177 309.069 85.0837 308.873 84.8287C308.535 84.3917 308.615 83.7637 309.053 83.4257C312.278 80.9347 315.624 82.3297 316.944 83.4167C317.371 83.7677 317.431 84.3987 317.08 84.8247C316.731 85.2487 316.103 85.3117 315.677 84.9647C315.569 84.8777 313.026 82.8847 310.277 85.0087C310.093 85.1497 309.878 85.2177 309.665 85.2177Z" fill="#FF6A48"/>
<path d="M282.056 86.0917C281.788 86.0917 281.519 85.9837 281.322 85.7707C280.947 85.3647 280.972 84.7317 281.378 84.3577C284.327 81.6327 287.588 82.8457 288.9 83.8667C289.335 84.2057 289.414 84.8337 289.075 85.2697C288.736 85.7047 288.111 85.7837 287.676 85.4477C287.418 85.2517 285.115 83.6277 282.736 85.8257C282.543 86.0047 282.299 86.0917 282.056 86.0917Z" fill="#FF6A48"/>
<path d="M282.624 92.0477C275.656 92.0477 269.988 85.5567 269.988 77.5777C269.988 69.5987 275.656 63.1077 282.624 63.1077C289.592 63.1077 295.26 69.5987 295.26 77.5777C295.259 85.5567 289.591 92.0477 282.624 92.0477ZM282.624 65.1087C276.76 65.1087 271.988 70.7027 271.988 77.5787C271.988 84.4547 276.759 90.0487 282.624 90.0487C288.488 90.0487 293.26 84.4547 293.26 77.5787C293.259 70.7017 288.488 65.1087 282.624 65.1087Z" fill="white"/>
<path d="M297.555 71.3517V84.4357H290.755C289.008 84.4357 287.592 85.8517 287.592 87.5987V89.0297C287.592 92.4507 290.366 95.2247 293.787 95.2247H299.982" fill="#FFAA89"/>
<path d="M299.982 96.2257H293.787C289.819 96.2257 286.592 92.9977 286.592 89.0307V87.5997C286.592 85.3037 288.459 83.4357 290.755 83.4357H296.556V71.3517C296.556 70.7997 297.003 70.3517 297.556 70.3517C298.109 70.3517 298.556 70.7997 298.556 71.3517V85.4357H290.755C289.563 85.4357 288.592 86.4067 288.592 87.5997V89.0307C288.592 91.8957 290.923 94.2257 293.787 94.2257H299.982C300.535 94.2257 300.982 94.6737 300.982 95.2257C300.982 95.7777 300.535 96.2257 299.982 96.2257Z" fill="#FF6A48"/>
<path d="M313.111 91.1367C306.143 91.1367 300.475 84.6457 300.475 76.6667C300.475 68.6877 306.143 62.1967 313.111 62.1967C320.079 62.1967 325.748 68.6877 325.748 76.6667C325.748 84.6457 320.079 91.1367 313.111 91.1367ZM313.111 64.1967C307.247 64.1967 302.475 69.7907 302.475 76.6667C302.475 83.5427 307.246 89.1367 313.111 89.1367C318.976 89.1367 323.748 83.5427 323.748 76.6667C323.748 69.7907 318.976 64.1967 313.111 64.1967Z" fill="white"/>
<path d="M323.263 63.1567C322.051 63.3437 320.675 62.8407 319.318 62.4307C317.96 61.9897 316.585 61.5797 315.378 61.2667C314.168 60.9517 312.767 60.6377 311.366 60.3607C309.981 60.0557 308.527 59.8217 307.575 59.0717C306.652 58.3626 306.557 56.9957 308.188 55.7697C309.734 54.5657 313.178 53.7147 317.183 54.7467C321.178 55.7967 323.721 58.2067 324.438 59.9997C325.214 61.8547 324.428 62.9917 323.263 63.1567Z" fill="#121936"/>
<path d="M277.246 59.0927C278.157 59.4557 279.285 59.2407 280.387 59.1047C281.494 58.9407 282.609 58.8077 283.582 58.7317C284.557 58.6547 285.68 58.6097 286.798 58.5967C287.907 58.5567 289.06 58.5907 289.894 58.0897C290.7 57.6197 290.954 56.4357 289.857 55.0917C288.823 53.7807 286.278 52.4677 283.05 52.7147C279.828 52.9787 277.548 54.6747 276.757 56.1297C275.912 57.6287 276.368 58.7557 277.246 59.0927Z" fill="#121936"/>
<path d="M301.475 76.4557H296.322C295.769 76.4557 295.322 76.0077 295.322 75.4557C295.322 74.9037 295.769 74.4557 296.322 74.4557H301.475C302.028 74.4557 302.475 74.9037 302.475 75.4557C302.475 76.0077 302.028 76.4557 301.475 76.4557Z" fill="white"/>
<path d="M324.747 75.9597C324.237 75.9597 323.802 75.5717 323.753 75.0537C323.7 74.5037 324.105 74.0157 324.654 73.9647L355.27 71.0747C355.819 71.0257 356.307 71.4267 356.359 71.9767C356.412 72.5267 356.007 73.0147 355.458 73.0657L324.842 75.9557C324.81 75.9587 324.778 75.9597 324.747 75.9597Z" fill="white"/>
<path d="M308.083 113.902C308.044 113.902 308.006 113.902 307.967 113.901L295.962 113.748C295.409 113.741 294.968 113.288 294.975 112.735C294.982 112.187 295.428 111.748 295.975 111.748C295.979 111.748 295.984 111.748 295.988 111.748L307.993 111.901C311.341 111.945 314.351 109.6 315.117 106.326L317.064 106.782C316.094 110.925 312.328 113.902 308.083 113.902Z" fill="#FF6A48"/>
<path d="M309.17 156.76L293.787 170.067L296.083 201.515C296.2 203.12 298.108 203.893 299.309 202.823L327.603 177.613L309.17 156.76Z" fill="white"/>
<path d="M376.647 148.43L326.334 177.461L346.535 211.385C347.471 212.957 349.594 213.312 350.99 212.129L399.934 170.685L376.647 148.43Z" fill="white"/>
<path d="M303.146 199.403L316.456 226.471L345.292 209.298L326.833 178.299L303.146 199.403Z" fill="#121936"/>
<path d="M148.622 60.6267L117.487 60.8447L76.8359 60.8427L76.9299 45.7677C76.9419 43.7437 76.7649 41.7617 76.4159 39.8407C70.9889 10.0427 27.3639 9.86768 21.6219 39.6067C21.2429 41.5687 21.0449 43.5957 21.0449 45.6687V63.7947H21.0629L21.1379 77.3077C21.2159 91.5907 11.9979 103.803 0.0348604 106.458C-0.25914 106.523 1.35887 106.554 2.91487 106.595C5.11187 106.653 6.85887 106.601 6.85887 106.601L122.982 106.752C137.283 106.652 148.804 93.4697 148.716 77.3077L148.622 60.6267Z" fill="#121936"/>
<path d="M243.043 60.4117C243.043 41.9047 231.365 26.1297 214.977 20.0417C211.017 18.2337 206.624 17.2067 201.988 17.1777L105.455 17.2887L105.462 17.2757H52.841C52.137 17.2757 51.442 17.3067 50.75 17.3517L48.957 17.3537V17.4127C49.091 17.4287 49.222 17.4527 49.355 17.4697C64.322 19.4577 75.971 31.8347 76.866 47.0827H76.849V347.118C76.849 361.685 88.785 373.494 103.509 373.494H242.988V252.441H243.042V60.4117H243.043Z" fill="white"/>
<path d="M218.891 179.065H105.629C105.076 179.065 104.629 178.618 104.629 178.065C104.629 177.513 105.076 177.065 105.629 177.065H218.891C219.444 177.065 219.891 177.513 219.891 178.065C219.891 178.617 219.444 179.065 218.891 179.065Z" fill="#121936"/>
<path d="M184.754 163.065H137.041C136.488 163.065 136.041 162.617 136.041 162.065C136.041 161.513 136.488 161.065 137.041 161.065H184.754C185.307 161.065 185.754 161.513 185.754 162.065C185.754 162.617 185.306 163.065 184.754 163.065Z" fill="#121936"/>
<path d="M218.891 202.55H105.629C105.076 202.55 104.629 202.103 104.629 201.55C104.629 200.997 105.076 200.55 105.629 200.55H218.891C219.444 200.55 219.891 200.997 219.891 201.55C219.891 202.103 219.444 202.55 218.891 202.55Z" fill="#121936"/>
<path d="M218.891 226.035H105.629C105.076 226.035 104.629 225.588 104.629 225.035C104.629 224.482 105.076 224.035 105.629 224.035H218.891C219.444 224.035 219.891 224.482 219.891 225.035C219.891 225.588 219.444 226.035 218.891 226.035Z" fill="#121936"/>
<path d="M218.891 248.016H105.629C105.076 248.016 104.629 247.569 104.629 247.016C104.629 246.463 105.076 246.016 105.629 246.016H218.891C219.444 246.016 219.891 246.463 219.891 247.016C219.891 247.568 219.444 248.016 218.891 248.016Z" fill="#121936"/>
<path d="M157.067 53.1397C155.713 48.9197 149.482 49.9067 149.499 54.3387C149.513 58.1097 144.682 59.6787 142.477 56.6207C139.886 53.0257 134.264 55.8897 135.649 60.0997C136.827 63.6807 132.718 66.6667 129.676 64.4397C126.101 61.8217 121.639 66.2827 124.258 69.8587C126.486 72.9007 123.5 77.0107 119.918 75.8317C115.708 74.4467 112.844 80.0677 116.439 82.6597C119.498 84.8647 117.928 89.6957 114.157 89.6817C109.725 89.6647 108.738 95.8967 112.958 97.2497C116.548 98.4017 116.548 103.482 112.958 104.633C108.738 105.987 109.725 112.218 114.157 112.201C117.928 112.187 119.497 117.018 116.439 119.223C112.844 121.814 115.708 127.436 119.918 126.05C123.499 124.871 126.485 128.981 124.258 132.023C121.64 135.599 126.101 140.06 129.676 137.441C132.718 135.213 136.828 138.199 135.649 141.781C134.264 145.991 139.885 148.855 142.477 145.26C144.682 142.201 149.513 143.771 149.499 147.541C149.482 151.973 155.714 152.96 157.067 148.74C158.219 145.15 163.299 145.15 164.45 148.74C165.804 152.96 172.035 151.973 172.018 147.541C172.004 143.771 176.835 142.201 179.04 145.26C181.632 148.855 187.253 145.991 185.868 141.781C184.689 138.2 188.799 135.213 191.841 137.441C195.417 140.059 199.878 135.598 197.259 132.023C195.031 128.981 198.017 124.871 201.599 126.05C205.809 127.435 208.673 121.814 205.078 119.223C202.019 117.018 203.589 112.187 207.36 112.201C211.792 112.218 212.779 105.986 208.559 104.633C204.969 103.481 204.969 98.4007 208.559 97.2497C212.779 95.8967 211.792 89.6647 207.36 89.6817C203.59 89.6957 202.02 84.8647 205.078 82.6597C208.673 80.0687 205.809 74.4467 201.599 75.8317C198.017 77.0107 195.032 72.9007 197.259 69.8587C199.877 66.2827 195.416 61.8217 191.841 64.4397C188.799 66.6677 184.689 63.6817 185.868 60.0997C187.253 55.8897 181.632 53.0257 179.04 56.6207C176.835 59.6797 172.004 58.1097 172.018 54.3387C172.035 49.9067 165.803 48.9197 164.45 53.1397C163.299 56.7297 158.219 56.7297 157.067 53.1397Z" fill="#FFD066"/>
<path d="M178.586 131.405H142.935C138.762 131.405 135.367 128.01 135.367 123.837V95.6517C135.367 91.4787 138.763 88.0837 142.935 88.0837H178.586C182.759 88.0837 186.154 91.4787 186.154 95.6517V123.837C186.154 128.01 182.759 131.405 178.586 131.405ZM142.934 91.0837C140.415 91.0837 138.366 93.1327 138.366 95.6517V123.837C138.366 126.356 140.416 128.405 142.934 128.405H178.585C181.104 128.405 183.153 126.356 183.153 123.837V95.6517C183.153 93.1327 181.103 91.0837 178.585 91.0837H142.934Z" fill="#121936"/>
<path d="M177.702 91.0837C176.874 91.0837 176.202 90.4127 176.202 89.5837V81.3937C176.202 75.9237 171.157 71.4747 164.957 71.4747H156.563C150.363 71.4747 145.318 75.9247 145.318 81.3937V89.5837C145.318 90.4127 144.646 91.0837 143.818 91.0837C142.99 91.0837 142.318 90.4127 142.318 89.5837V81.3937C142.318 74.2697 148.709 68.4747 156.563 68.4747H164.957C172.811 68.4747 179.202 74.2697 179.202 81.3937V89.5837C179.202 90.4127 178.53 91.0837 177.702 91.0837Z" fill="#121936"/>
<path d="M169.811 105.322C169.811 100.668 165.809 96.9037 160.901 96.9747C156.267 97.0417 152.444 100.593 152.27 105C152.159 107.793 153.493 110.293 155.615 111.883C156.072 112.226 156.351 112.74 156.351 113.294V115.583C156.351 116.564 157.187 117.36 158.218 117.36H163.856C164.887 117.36 165.723 116.564 165.723 115.583V113.296C165.723 112.743 165.999 112.227 166.456 111.885C168.499 110.356 169.811 107.985 169.811 105.322Z" fill="#121936"/>
<path d="M162.894 120.508C162.894 121.534 162.062 122.366 161.036 122.366C160.01 122.366 159.178 121.534 159.178 120.508C159.178 119.482 160.01 118.65 161.036 118.65C162.062 118.65 162.894 119.481 162.894 120.508Z" fill="#121936"/>
<path d="M161.037 122.616C159.875 122.616 158.93 121.67 158.93 120.508C158.93 119.345 159.875 118.4 161.037 118.4C162.199 118.4 163.145 119.346 163.145 120.508C163.145 121.67 162.199 122.616 161.037 122.616ZM161.037 118.9C160.15 118.9 159.43 119.622 159.43 120.508C159.43 121.395 160.151 122.116 161.037 122.116C161.924 122.116 162.645 121.395 162.645 120.508C162.645 119.621 161.924 118.9 161.037 118.9Z" fill="#FFD066"/>
<path d="M163.804 119.392H158.272C157.899 119.392 157.596 119.089 157.596 118.716V118.521C157.596 118.148 157.899 117.845 158.272 117.845H163.804C164.177 117.845 164.48 118.148 164.48 118.521V118.716C164.48 119.089 164.177 119.392 163.804 119.392Z" fill="#121936"/>
<path d="M163.804 119.642H158.272C157.761 119.642 157.346 119.226 157.346 118.716V118.521C157.346 118.011 157.761 117.595 158.272 117.595H163.804C164.315 117.595 164.73 118.01 164.73 118.521V118.716C164.73 119.226 164.315 119.642 163.804 119.642ZM158.272 118.095C158.038 118.095 157.846 118.286 157.846 118.521V118.716C157.846 118.951 158.037 119.142 158.272 119.142H163.804C164.038 119.142 164.23 118.951 164.23 118.716V118.521C164.23 118.286 164.039 118.095 163.804 118.095H158.272Z" fill="#FFD066"/>
<path d="M163.468 120.744H158.609C158.283 120.744 158.018 120.479 158.018 120.153V119.982C158.018 119.656 158.283 119.391 158.609 119.391H163.468C163.794 119.391 164.059 119.655 164.059 119.982V120.153C164.059 120.479 163.794 120.744 163.468 120.744Z" fill="#121936"/>
<path d="M163.468 120.994H158.609C158.145 120.994 157.768 120.617 157.768 120.153V119.982C157.768 119.518 158.145 119.141 158.609 119.141H163.468C163.932 119.141 164.309 119.518 164.309 119.982V120.153C164.308 120.617 163.931 120.994 163.468 120.994ZM158.608 119.642C158.42 119.642 158.267 119.795 158.267 119.983V120.154C158.267 120.342 158.42 120.495 158.608 120.495H163.467C163.655 120.495 163.808 120.342 163.808 120.154V119.983C163.808 119.795 163.655 119.642 163.467 119.642H158.608Z" fill="#FFD066"/>
<path d="M154.956 107.335C154.791 107.335 154.64 107.226 154.595 107.059C153.5 103.063 156.668 100.805 156.7 100.782C156.869 100.665 157.103 100.707 157.221 100.876C157.34 101.046 157.298 101.279 157.129 101.398C157.016 101.477 154.366 103.386 155.317 106.861C155.372 107.061 155.254 107.267 155.054 107.322C155.021 107.331 154.988 107.335 154.956 107.335Z" fill="#FFD066"/>
<path d="M113.065 65.6157C112.847 65.6157 112.627 65.5447 112.443 65.3977L103.006 57.8827C102.574 57.5387 102.503 56.9097 102.847 56.4777C103.191 56.0457 103.819 55.9747 104.252 56.3187L113.689 63.8337C114.121 64.1777 114.192 64.8067 113.848 65.2387C113.651 65.4867 113.359 65.6157 113.065 65.6157Z" fill="#121936"/>
<path d="M92.4019 101.393C91.9479 101.393 91.5379 101.082 91.4289 100.622C91.3029 100.084 91.6369 99.5457 92.1739 99.4197L103.918 96.6647C104.454 96.5377 104.993 96.8717 105.12 97.4097C105.246 97.9477 104.912 98.4857 104.375 98.6117L92.6309 101.367C92.5539 101.385 92.4779 101.393 92.4019 101.393Z" fill="#121936"/>
<path d="M105.803 82.3857C105.714 82.3857 105.625 82.3737 105.535 82.3487L93.9075 79.1357C93.3755 78.9887 93.0625 78.4377 93.2105 77.9057C93.3565 77.3727 93.9095 77.0627 94.4405 77.2077L106.068 80.4207C106.6 80.5677 106.913 81.1187 106.765 81.6507C106.644 82.0947 106.242 82.3857 105.803 82.3857Z" fill="#121936"/>
<path d="M216.075 100.503C215.559 100.503 215.122 100.107 215.079 99.5837C215.035 99.0337 215.445 98.5507 215.995 98.5067L228.018 97.5327C228.571 97.4847 229.051 97.8977 229.096 98.4487C229.14 98.9987 228.73 99.4817 228.18 99.5257L216.157 100.5C216.13 100.501 216.102 100.503 216.075 100.503Z" fill="#121936"/>
<path d="M214.562 82.3857C214.124 82.3857 213.721 82.0947 213.599 81.6517C213.452 81.1197 213.764 80.5687 214.296 80.4217L225.923 77.2087C226.451 77.0637 227.007 77.3737 227.153 77.9067C227.3 78.4387 226.988 78.9897 226.456 79.1367L214.829 82.3497C214.741 82.3737 214.651 82.3857 214.562 82.3857Z" fill="#121936"/>
<path d="M223.727 120.439C223.572 120.439 223.414 120.403 223.267 120.326L212.563 114.764C212.073 114.51 211.882 113.906 212.136 113.416C212.391 112.926 212.993 112.733 213.485 112.99L224.189 118.552C224.679 118.806 224.87 119.41 224.616 119.9C224.437 120.243 224.089 120.439 223.727 120.439Z" fill="#121936"/>
<path d="M209.81 66.1577C209.81 73.8527 203.614 80.3397 195.67 80.3397C187.769 80.3397 181.654 73.9347 181.654 66.2407C181.654 58.5467 187.809 52.0587 195.753 52.0587C203.655 52.0597 209.81 58.4227 209.81 66.1577ZM184.583 66.2467C184.583 72.3707 189.397 77.4186 195.661 77.4186C202.019 77.4186 206.881 72.2757 206.881 66.1527C206.881 60.0287 202.019 54.9807 195.755 54.9807C189.443 54.9807 184.583 60.1227 184.583 66.2467ZM200.392 63.3367C199.779 64.0727 198.689 64.2977 197.901 63.7527C197.323 63.3527 196.698 63.1217 196.128 63.1217C194.548 63.1217 193.383 64.3697 193.383 66.1167C193.383 67.9047 194.548 69.1527 196.128 69.1527C196.69 69.1527 197.347 68.9327 197.973 68.5497C198.698 68.1067 199.64 68.2507 200.221 68.8717L200.266 68.9207C201.029 69.7337 200.913 71.0697 199.975 71.6727C198.724 72.4767 197.263 72.9367 195.878 72.9367C191.843 72.9367 188.932 70.1097 188.932 66.1997C188.932 62.3317 191.927 59.5037 196.044 59.5037C197.376 59.5037 198.799 59.9287 199.995 60.6447C200.929 61.2027 201.089 62.5007 200.392 63.3367Z" fill="#121936"/>
<path d="M194.451 295.384V339.573C194.451 357.065 208.631 371.244 226.122 371.244H232.002C253.02 371.244 270.059 354.205 270.059 333.187C270.059 318.392 282.052 306.399 296.847 306.399H307.863C310.384 306.399 312.805 306.814 315.072 307.57V306.399H315.331V289.782C315.331 277.943 305.733 268.345 293.894 268.345H168.621V268.376C182.993 269.009 194.451 280.857 194.451 295.384Z" fill="#F4F2ED"/>
<path d="M462.009 344.901L461.778 327.837C461.778 315.998 452.18 306.4 440.341 306.4H315.329H315.07V307.571C324.118 310.588 330.644 319.12 330.644 329.182V339.947C330.644 358.475 345.664 373.495 364.192 373.495H485.854C472.145 370.799 462.198 358.87 462.009 344.901Z" fill="#FAF8F3"/>
<path d="M76.7832 347.337C76.7832 349.066 76.9712 350.751 77.3202 352.376C77.0042 350.685 76.8402 348.929 76.8502 347.119L76.7832 347.337Z" fill="#121936"/>
<path d="M330.644 339.948V329.183C330.644 319.121 324.118 310.589 315.07 307.572C312.804 306.816 310.382 306.401 307.861 306.401H296.845C282.05 306.401 270.057 318.394 270.057 333.189C270.057 354.207 253.018 371.246 232 371.246H226.12C208.629 371.246 194.449 357.066 194.449 339.575V295.386C194.449 280.858 182.991 269.011 168.619 268.378C168.218 268.36 167.816 268.347 167.41 268.347C149.159 268.347 134.363 283.143 134.363 301.394V337.572C134.363 356.17 119.286 371.246 100.689 371.246C89.2144 371.246 79.6324 363.161 77.3184 352.377C79.6184 364.685 90.1614 373.496 103.331 373.496H315.069H364.19C345.664 373.495 330.644 358.475 330.644 339.948Z" fill="#121936"/>
<path d="M107.601 214.09C102.864 203.941 92.033 211.395 84.97 214.989C81.773 216.941 78.826 218.684 76.059 220.295C76.598 216.486 77.13 212.633 76.322 208.795C76.062 207.559 75.558 206.208 74.453 205.606C73.604 205.143 72.58 205.25 71.768 205.659C70.955 206.068 70.314 206.741 69.702 207.417C63.996 213.718 51.186 235.323 51.186 235.323C48.765 240.511 47.124 246.331 46.366 252.074C44.163 268.767 59.354 284.026 75.349 280.712C77.313 280.305 79.034 279.666 80.297 278.706L107.19 259.405C112.332 256.127 112.896 247.935 108.116 247.855C112.689 246.493 117.105 243.275 114.483 237.565C113.381 234.264 110.828 233.777 108.105 234.202C112.248 232.847 115.975 230.684 114.14 225.801C112.872 220.263 108.387 220.082 104.195 221.078C106.904 219.808 108.963 217.735 107.601 214.09Z" fill="#FFA386"/>
<path d="M64.5142 228.047C64.1692 228.047 63.8342 227.869 63.6492 227.55C63.3722 227.073 63.5332 226.461 64.0102 226.183L78.5462 217.714C79.0232 217.436 79.6362 217.598 79.9132 218.075C80.1902 218.552 80.0292 219.164 79.5522 219.442L65.0162 227.911C64.8582 228.003 64.6852 228.047 64.5142 228.047Z" fill="#FF6A48"/>
<path d="M93.7058 228.047C93.3668 228.047 93.0358 227.875 92.8488 227.564C92.5638 227.09 92.7158 226.476 93.1888 226.191C94.2048 225.579 103.164 220.196 105.063 219.678C105.591 219.533 106.145 219.846 106.291 220.38C106.437 220.912 106.122 221.462 105.589 221.608C104.361 221.943 97.9658 225.647 94.2228 227.904C94.0588 228.001 93.8808 228.047 93.7058 228.047Z" fill="#FF6A48"/>
<path d="M99.1103 240.674C98.7653 240.674 98.4293 240.495 98.2443 240.175C97.9673 239.697 98.1303 239.085 98.6083 238.809L107.754 233.513C108.232 233.235 108.844 233.4 109.12 233.877C109.397 234.355 109.234 234.967 108.756 235.243L99.6103 240.539C99.4533 240.631 99.2803 240.674 99.1103 240.674Z" fill="#FF6A48"/>
<path d="M101.833 252.504C101.48 252.504 101.138 252.317 100.956 251.985C100.689 251.502 100.866 250.893 101.351 250.628L106.34 247.884C106.822 247.618 107.432 247.793 107.697 248.279C107.964 248.762 107.787 249.371 107.302 249.636L102.313 252.38C102.161 252.464 101.996 252.504 101.833 252.504Z" fill="#FF6A48"/>
<path d="M289.984 158.844L296.116 164.104C297.686 165.45 297.815 167.874 296.405 169.518L290.897 175.94C289.487 177.584 287.072 177.825 285.502 176.479L279.369 171.22C277.799 169.874 277.67 167.45 279.08 165.806L284.588 159.384C285.999 157.739 288.414 157.498 289.984 158.844Z" fill="#FF6A48"/>
<path d="M282.061 162.362L225.188 228.679L237.004 238.814L293.878 172.496L282.061 162.362Z" fill="#FFD066"/>
<path d="M225.291 228.784L236.89 238.732C236.94 238.775 237.12 238.929 236.847 238.903L218.615 248.303L225.127 228.852C225.153 228.778 225.241 228.741 225.291 228.784Z" fill="#FFAA89"/>
<path d="M221.026 241.335L225.178 244.896C225.196 244.911 225.26 244.966 225.163 244.957L218.637 248.322L220.968 241.36C220.976 241.332 221.008 241.319 221.026 241.335Z" fill="#233863"/>
<path d="M277.853 184.745C277.738 184.745 277.622 184.705 277.528 184.625C277.318 184.445 277.294 184.129 277.473 183.92L285.654 174.382C285.836 174.173 286.151 174.149 286.359 174.328C286.569 174.508 286.593 174.823 286.414 175.033L278.233 184.57C278.133 184.686 277.994 184.745 277.853 184.745Z" fill="white"/>
<path d="M257.76 198.687C257.645 198.687 257.529 198.647 257.435 198.567C257.225 198.387 257.201 198.071 257.38 197.862L280.966 170.361C281.148 170.152 281.464 170.128 281.671 170.307C281.881 170.487 281.905 170.802 281.726 171.012L258.14 198.513C258.041 198.627 257.901 198.687 257.76 198.687Z" fill="white"/>
<path d="M433.742 278.166L332.832 211.425L309.441 193.096C302.896 187.967 295.032 184.796 286.76 183.949L259.96 181.204C256.113 180.81 252.235 181.543 248.797 183.312L236.075 189.86C234.047 190.904 232.834 193.053 232.988 195.328L233.089 196.82L232.111 197.286C229.434 198.562 227.732 201.266 227.741 204.232L227.757 209.495L226.88 211.552C225.678 214.372 226.212 217.633 228.252 219.922L248.004 242.086C249.212 243.441 251.317 243.481 252.576 242.173C255.683 238.945 255.905 233.91 253.094 230.42L246.984 222.833L267.448 234.947C270.814 236.94 274.606 238.104 278.511 238.343L291.13 239.117L304.177 254.011L382.44 348.434C391.817 358.513 403.829 364.201 416.194 365.725C441.119 368.797 464.819 353.952 473.993 330.573L481.15 314.903L433.742 278.166Z" fill="#FFAA89"/>
<path d="M233.422 198.288C232.998 198.288 232.605 198.018 232.469 197.592C232.302 197.067 232.592 196.503 233.118 196.335L248.323 191.483C248.846 191.314 249.412 191.606 249.58 192.132C249.747 192.657 249.457 193.221 248.931 193.389L233.726 198.242C233.626 198.274 233.523 198.288 233.422 198.288Z" fill="#FF6A48"/>
<path d="M228.357 210.35C227.911 210.35 227.504 210.049 227.389 209.597C227.252 209.061 227.576 208.517 228.111 208.381L247.01 203.572C247.542 203.432 248.089 203.759 248.226 204.294C248.363 204.83 248.04 205.374 247.504 205.51L228.606 210.319C228.522 210.34 228.439 210.35 228.357 210.35Z" fill="#FF6A48"/>
<path d="M246.984 223.835C246.71 223.835 246.436 223.723 246.239 223.502L242.43 219.245C242.062 218.833 242.097 218.201 242.508 217.833C242.92 217.464 243.553 217.499 243.92 217.911L247.729 222.168C248.097 222.58 248.062 223.212 247.651 223.58C247.46 223.751 247.221 223.835 246.984 223.835Z" fill="#FF6A48"/>
<path d="M291.13 240.119C290.596 240.119 290.152 239.697 290.132 239.158C290.111 238.606 290.54 238.141 291.092 238.12L305.993 237.535C306.514 237.497 307.01 237.942 307.031 238.495C307.052 239.047 306.623 239.512 306.071 239.533L291.17 240.118C291.157 240.119 291.143 240.119 291.13 240.119Z" fill="#FF6A48"/>
</svg>
