<svg width="40" height="40" viewBox="0 0 40 40" fill="none" xmlns="http://www.w3.org/2000/svg">
<path d="M17.7545 29.3548C16.9089 29.3548 16.2215 28.668 16.2215 27.8224C16.2215 26.9768 16.9089 26.2901 17.7545 26.2901C18.6 26.2901 19.2875 26.9768 19.2875 27.8224C19.2875 28.668 18.6 29.3548 17.7545 29.3548ZM17.7545 27.5805C17.6209 27.5805 17.5119 27.6888 17.5119 27.8224C17.5119 28.0896 17.9971 28.0896 17.9971 27.8224C17.9971 27.6888 17.8881 27.5805 17.7545 27.5805ZM23.5172 29.3548C22.6716 29.3548 21.9848 28.668 21.9848 27.8224C21.9848 26.9768 22.6716 26.2901 23.5172 26.2901C24.3628 26.2901 25.0496 26.9768 25.0496 27.8224C25.0496 28.668 24.3628 29.3548 23.5172 29.3548ZM23.5172 27.5805C23.3836 27.5805 23.2753 27.6888 23.2753 27.8224C23.2753 28.0896 23.7592 28.0896 23.7592 27.8224C23.7592 27.6888 23.6508 27.5805 23.5172 27.5805ZM28.3436 14.6398C28.0576 14.2668 27.6228 14.0532 27.1528 14.0532H12.4928L12.1108 12.6248C11.9174 11.8996 11.2583 11.3936 10.5079 11.3936H9.54639C9.18976 11.3936 8.90118 11.6822 8.90118 12.0388C8.90118 12.3955 9.18976 12.684 9.54639 12.684H10.5079C10.6749 12.684 10.821 12.7968 10.8645 12.9581L13.9463 24.4805C14.1718 25.3248 14.9399 25.9145 15.8138 25.9145H26.1573C26.5139 25.9145 26.8025 25.6259 26.8025 25.2693C26.8025 24.9127 26.5139 24.6241 26.1573 24.6241H15.8138C15.5234 24.6241 15.2675 24.4275 15.1926 24.1478L14.9573 23.2682H17.0929H23.1807H24.669C25.8372 23.2682 26.8642 22.4793 27.1667 21.3502L28.6045 15.9422C28.7255 15.4873 28.6297 15.0128 28.3436 14.6398ZM27.3204 15.4262C27.3443 15.457 27.3809 15.5219 27.3569 15.6108L26.7173 18.0158H24.4511L24.8105 15.3436H27.1528C27.2435 15.3436 27.2965 15.3953 27.3204 15.4262ZM23.1498 18.0158H20.7789V15.3436H23.5097L23.1498 18.0158ZM19.4885 15.3436V18.0158H17.1198L16.7577 15.3436H19.4885ZM15.4554 15.3436L15.8174 18.0158H13.5558L12.8398 15.3436H15.4554ZM15.9922 19.3062L16.3542 21.9778H14.6173L13.9015 19.3062H15.9922ZM17.2948 19.3062H19.4885V21.9778H17.6568L17.2948 19.3062ZM20.7789 21.9778V19.3062H22.976L22.6162 21.9778H20.7789ZM24.669 21.9778H23.918L24.2774 19.3062H26.3742L25.9191 21.0175C25.7679 21.5833 25.2537 21.9778 24.669 21.9778ZM10.9275 4.36405C10.9275 4.02995 10.6571 3.7596 10.323 3.7596H3.68572C3.35163 3.7596 3.08128 4.02995 3.08128 4.36405C3.08128 4.69815 3.35162 4.96849 3.68572 4.96849H10.323C10.6571 4.96849 10.9275 4.69815 10.9275 4.36405ZM29.1551 4.36397C29.1551 4.72031 28.8663 5.00918 28.5099 5.00918C28.1536 5.00918 27.8647 4.72031 27.8647 4.36397C27.8647 4.00764 28.1536 3.71877 28.5099 3.71877C28.8663 3.71877 29.1551 4.00764 29.1551 4.36397ZM31.1717 3.71877C30.8154 3.71877 30.5265 4.00764 30.5265 4.36398C30.5265 4.72032 30.8154 5.00919 31.1717 5.00919C31.5281 5.00919 31.8169 4.72032 31.8169 4.36398C31.8169 4.00764 31.5281 3.71877 31.1717 3.71877ZM33.8335 3.71877C33.4772 3.71877 33.1883 4.00764 33.1883 4.36398C33.1883 4.72032 33.4772 5.00919 33.8335 5.00919C34.1899 5.00919 34.4788 4.72032 34.4788 4.36398C34.4788 4.00764 34.1899 3.71877 33.8335 3.71877ZM39.5276 31.9129L37.5488 30.2446C37.5501 30.2048 37.5563 30.1658 37.5563 30.1259V4.91963C37.5563 2.9821 35.975 1.40088 34.0375 1.40088H3.51875C1.58126 1.40088 0 2.98211 0 4.91963V30.1259C0 32.0634 1.58127 33.6446 3.51875 33.6446H30.605L30.6057 36.0614C30.6057 36.5818 30.898 37.0418 31.3693 37.2623C31.8368 37.4803 32.3799 37.4123 32.7794 37.0808L33.9879 36.0765L34.6609 37.5219C34.8688 37.973 35.2418 38.3158 35.708 38.4859C35.916 38.5616 36.1327 38.5994 36.347 38.5994C36.6141 38.5994 36.8813 38.5414 37.1308 38.4255C37.5807 38.2163 37.9234 37.8433 38.0936 37.377C38.2637 36.9095 38.2423 36.4041 38.0318 35.9555L37.3601 34.5089L38.9064 34.2329C39.418 34.1409 39.8187 33.7716 39.9536 33.2689C40.0884 32.7673 39.9246 32.2469 39.5276 31.9129ZM1.28749 4.91963C1.28749 3.69462 2.28748 2.69463 3.51875 2.69463H34.0375C35.2687 2.69463 36.2688 3.69462 36.2688 4.91963V6.03211H1.28749V4.91963ZM30.6031 27.239L30.6046 32.3509H3.51875C2.28748 32.3509 1.28749 31.3509 1.28749 30.1259V7.32586H36.2688V29.1655L32.7819 26.2258C32.3825 25.8881 31.8406 25.82 31.3693 26.038C30.8968 26.2573 30.6031 26.7172 30.6031 27.239ZM38.6783 32.9626L36.3079 33.386C36.1113 33.4213 35.9412 33.5461 35.8492 33.7238C35.756 33.9014 35.7522 34.1119 35.8366 34.2934L36.8624 36.5012C36.9267 36.6373 36.9329 36.7923 36.8813 36.9347C36.8283 37.0771 36.7237 37.1917 36.5876 37.256C36.449 37.319 36.2928 37.3266 36.1517 37.2736C36.008 37.222 35.8945 37.1174 35.8303 36.9788L34.8045 34.7735C34.7201 34.592 34.5563 34.4597 34.361 34.4156C34.3143 34.4055 34.2664 34.4005 34.2198 34.4005C34.0711 34.4005 33.9249 34.4521 33.8077 34.5492L31.8961 36.0614L31.9503 27.2112L38.6959 32.8984L38.6783 32.9626Z" fill="#858585"/>
</svg>
