<svg width="40" height="40" viewBox="0 0 40 40" fill="none" xmlns="http://www.w3.org/2000/svg">
<g clip-path="url(#clip0_206_2502)">
<path d="M13.1793 11.4375C8.65906 11.4375 4.99463 15.1019 4.99463 19.6222C4.99463 24.1424 8.65906 27.8068 13.1793 27.8068C17.6995 27.8068 21.364 24.1424 21.364 19.6222C21.364 15.1019 17.6995 11.4375 13.1793 11.4375ZM19.2365 16.5529H16.2868C16.0047 15.1394 15.5641 13.9968 15.1142 13.1154C16.9167 13.6532 18.3963 14.9031 19.2365 16.5529ZM15.2255 19.6222C15.2255 20.2311 15.1798 20.7904 15.1172 21.3273H11.2417C11.1787 20.7904 11.133 20.231 11.133 19.6222C11.133 19.013 11.178 18.4537 11.2403 17.917H15.1185C15.1805 18.4537 15.2255 19.0131 15.2255 19.6222ZM12.9808 12.8216C13.0481 12.8196 13.1113 12.8016 13.1793 12.8016C13.2479 12.8016 13.3114 12.8199 13.3797 12.8219C13.8916 13.6072 14.5141 14.8495 14.891 16.5529H11.4678C11.8465 14.8436 12.4712 13.6019 12.9808 12.8216ZM11.2444 13.1154C10.7961 13.995 10.3552 15.1388 10.0728 16.5529H7.12205C7.96234 14.9031 9.44197 13.6536 11.2444 13.1154ZM6.35874 19.6222C6.35874 19.03 6.45832 18.4652 6.60087 17.917H9.86561C9.80866 18.4572 9.76902 19.0191 9.76902 19.6222C9.76902 20.2256 9.80969 20.7868 9.86757 21.3273H6.60087C6.45832 20.7791 6.35874 20.2144 6.35874 19.6222ZM7.12205 22.6914H10.0761C10.3612 24.1081 10.8024 25.2605 11.2424 26.1284C9.44095 25.5902 7.962 24.3406 7.12205 22.6914ZM13.3774 26.4228C13.3102 26.4248 13.2472 26.4427 13.1793 26.4427C13.1113 26.4427 13.0484 26.4247 12.9808 26.4228C12.492 25.6708 11.8552 24.4257 11.4696 22.6914H14.8892C14.5041 24.4246 13.868 25.6691 13.3774 26.4228ZM15.1168 26.1284C15.5575 25.2596 15.9984 24.1082 16.2828 22.6914H19.2365C18.3966 24.3405 16.9179 25.5899 15.1168 26.1284ZM16.4914 21.3273C16.549 20.7868 16.5896 20.2256 16.5896 19.6222C16.5896 19.0191 16.5503 18.4572 16.4933 17.917H19.7577C19.9003 18.4652 19.9999 19.0301 19.9999 19.6222C19.9999 20.2144 19.9003 20.7791 19.7577 21.3273H16.4914Z" fill="#858585"/>
<path d="M20 31.8992H6.35889V33.2633H20V31.8992Z" fill="#858585"/>
<path d="M29.4964 22.0731L28.79 24.7083L30.1076 25.0614L30.814 22.4262L29.4964 22.0731Z" fill="#858585"/>
<path d="M28.0839 27.3408L25.6128 36.5637L26.9304 36.9168L29.4015 27.6938L28.0839 27.3408Z" fill="#858585"/>
<path d="M37.0746 4.33037L21.2631 0.0936121C21.0266 0.0302662 20.7891 0 20.5554 0C19.3508 8.52569e-05 18.2485 0.803973 17.9218 2.02281L16.4958 7.34506H2.26645C1.51312 7.34506 0.902344 7.95575 0.902344 8.70917V35.9914C0.902344 36.7448 1.51312 37.3555 2.26645 37.3555H18.022L27.5422 39.9064C27.7787 39.9697 28.016 40 28.2499 40C29.4545 40 30.5568 39.196 30.8835 37.9772L39.0038 7.67168C39.3939 6.21634 38.53 4.72034 37.0746 4.33037ZM2.26645 35.9914V8.70917H22.7281C23.4804 8.70917 24.0922 9.32114 24.0922 10.0733V34.6273C24.0922 35.3794 23.4804 35.9914 22.7281 35.9914H2.26645ZM37.6864 7.31863L29.566 37.6241C29.4061 38.2199 28.865 38.636 28.2498 38.636C28.1313 38.636 28.012 38.6201 27.8951 38.5887L23.1384 37.3141C24.4488 37.1151 25.4563 35.9935 25.4563 34.6274V23.813L26.1549 24.0003L26.8613 21.365L25.5435 21.0119L25.4563 21.3379V10.4976C25.8815 10.6116 26.3724 10.7431 26.8483 10.8707L28.4616 16.1449L29.5909 16.4475L29.484 11.5769C30.2256 11.7757 30.983 11.9785 31.4791 12.1115L32.356 13.6578L33.109 13.8595L32.9795 11.7065L34.1682 9.90669L33.4152 9.70497L31.8828 10.6057C31.3863 10.4728 30.6293 10.2699 29.8873 10.0711L32.4154 5.9066L31.286 5.60394L27.2519 9.36496C26.4586 9.15242 25.5931 8.92035 25.1242 8.79485C24.6646 7.93597 23.7698 7.34514 22.728 7.34514H17.9077L19.2391 2.37603C19.399 1.78034 19.9402 1.36428 20.5553 1.3642C20.6739 1.3642 20.7931 1.38005 20.91 1.41143L36.7215 5.64819C37.0735 5.74248 37.3676 5.96824 37.5498 6.28378C37.7321 6.59923 37.7806 6.96677 37.6864 7.31863Z" fill="#858585"/>
<path d="M29.1414 18.467L28.7925 19.7856L30.0887 20.1287L30.4377 18.81L29.1414 18.467Z" fill="#858585"/>
<path d="M31.7303 19.155L31.3813 20.4736L32.6776 20.8166L33.0265 19.498L31.7303 19.155Z" fill="#858585"/>
<path d="M26.5525 17.7815L26.2036 19.1001L27.4999 19.4431L27.8488 18.1245L26.5525 17.7815Z" fill="#858585"/>
</g>
<defs>
<clipPath id="clip0_206_2502">
<rect width="40" height="40" fill="white"/>
</clipPath>
</defs>
</svg>
