<svg width="215" height="348" viewBox="0 0 215 348" fill="none" xmlns="http://www.w3.org/2000/svg">
<path d="M0.451172 93.4416C0.451172 79.2824 4.80117 64.9431 13.5012 50.4239C22.2312 35.9047 34.9512 23.8754 51.6612 14.3359C68.3712 4.79644 87.8712 0.0267029 110.161 0.0267029C130.861 0.0267029 149.146 4.01649 165.016 11.996C180.856 19.9756 193.096 30.82 201.736 44.5293C210.376 58.2385 214.696 73.1327 214.696 89.2118C214.696 101.871 212.236 112.971 207.316 122.51C202.396 132.049 196.546 140.284 189.766 147.214C182.956 154.143 170.776 165.798 153.226 182.177C148.366 186.796 144.466 190.861 141.526 194.371C138.616 197.881 136.441 201.076 135.001 203.956C133.561 206.865 132.451 209.775 131.671 212.685C130.891 215.595 129.721 220.695 128.161 227.984C125.431 243.493 116.926 251.248 102.646 251.248C95.2062 251.248 88.9512 248.713 83.8812 243.643C78.8112 238.574 76.2762 231.044 76.2762 221.055C76.2762 208.545 78.1362 197.716 81.8562 188.566C85.5762 179.387 90.5112 171.332 96.6612 164.403C102.811 157.473 111.091 149.239 121.501 139.699C130.651 131.359 137.266 125.075 141.346 120.845C145.396 116.585 148.816 111.846 151.606 106.626C154.396 101.436 155.791 95.7815 155.791 89.6618C155.791 77.7524 151.546 67.688 143.056 59.4684C134.536 51.2789 123.571 47.1841 110.161 47.1841C94.4412 47.1841 82.8612 51.3239 75.4212 59.6034C68.0112 67.853 61.7262 80.0323 56.5662 96.1414C51.7062 112.971 42.4962 121.385 28.9362 121.385C20.9262 121.385 14.1762 118.445 8.68617 112.566C3.19617 106.686 0.451172 100.311 0.451172 93.4416Z" fill="#407BFF"/>
<g opacity="0.2">
<path d="M150.481 158.373C146.701 137.224 142.786 128.675 137.701 124.49C133.711 128.42 128.311 133.489 121.501 139.699C112.741 147.739 105.496 154.848 99.7656 161.028C101.926 188.791 105.031 228.254 105.076 228.569L106.921 250.978C114.871 249.988 120.691 246.148 124.381 239.459C123.706 231.089 122.176 227.849 122.176 227.849C122.176 227.849 124.111 199.456 125.956 177.362C128.521 186.182 131.041 196.036 134.371 205.305C134.581 204.855 134.791 204.405 135.001 203.956C136.441 201.076 138.616 197.881 141.526 194.371C144.466 190.861 148.366 186.796 153.226 182.177C153.676 181.727 154.126 181.322 154.621 180.872C152.866 171.917 151.291 163.458 150.481 158.373Z" fill="black"/>
</g>
<g opacity="0.2">
<path d="M160.832 128.36L152.462 104.916C152.192 105.516 151.907 106.086 151.607 106.626C149.957 109.746 148.082 112.671 145.982 115.4L154.217 130.925C153.722 131.689 153.092 132.949 153.182 134.299C153.362 136.504 152.912 138.304 153.182 139.924C153.407 141.544 154.577 139.699 155.027 138.574C155.477 137.449 155.972 136.189 156.737 136.639C157.547 137.089 161.462 143.929 162.632 144.424C163.802 144.919 163.532 143.614 163.532 143.614C163.532 143.614 164.522 145.279 165.287 145.054C165.467 144.964 165.827 144.514 165.512 143.704C164.747 141.904 162.947 138.124 162.947 138.124C163.037 138.349 165.602 142.849 166.052 143.434C166.682 144.244 167.402 144.334 167.852 143.974C168.482 143.434 165.512 137.764 165.557 137.449C165.557 137.449 167.177 140.734 168.257 140.824C169.337 140.869 168.437 138.709 167.267 136.954C166.232 135.379 164.567 131.959 163.352 130.43C162.542 129.44 161.732 128.72 160.832 128.36Z" fill="black"/>
</g>
<g opacity="0.2">
<path fill-rule="evenodd" clip-rule="evenodd" d="M66.1072 73.1027C64.3072 76.4325 62.5972 80.0773 60.9772 84.0371C60.1222 78.5474 59.5372 73.4177 59.3572 71.3028H59.2672C59.2672 71.3028 56.7472 62.9783 56.6122 62.0783C56.5672 61.5383 58.7272 59.6484 60.7972 58.0735V54.6537C57.4222 54.2487 54.6322 50.5589 54.3172 45.8792C54.0022 40.7945 56.7922 36.4747 60.5272 36.2497C60.7372 36.2197 60.9622 36.2197 61.2022 36.2497C61.1722 36.2497 61.1422 36.2497 61.1122 36.2497C61.1722 36.2497 61.2322 36.2497 61.2922 36.2497C61.2622 36.2497 61.2322 36.2497 61.2022 36.2497C61.4122 36.1897 61.6372 36.1597 61.8772 36.1597C65.6122 35.9347 68.8522 39.8495 69.1672 44.9792C69.4822 50.064 66.7372 54.3387 63.0022 54.5637C62.9122 54.5937 62.8072 54.6087 62.6872 54.6087V56.6786C63.3172 56.2286 63.8122 55.9136 64.0372 55.8236C65.1172 55.3287 65.5672 57.0386 65.1622 57.5785C65.1622 57.6085 65.2072 57.6536 65.2972 57.7135C66.4222 58.5685 66.6022 60.1884 65.6572 61.2234C65.6572 61.2234 65.9722 61.3583 66.1972 61.9883C66.6922 63.2932 65.4322 64.6432 65.4322 64.6432C65.4322 64.6432 66.4672 69.6379 65.2522 70.2679C65.1922 70.2979 65.1472 70.3279 65.1172 70.3579L66.1072 73.1027ZM62.2822 54.5637C62.2222 54.5637 62.1622 54.5637 62.1022 54.5637C62.1322 54.5637 62.1622 54.5637 62.1922 54.5637C62.2222 54.5637 62.2522 54.5637 62.2822 54.5637Z" fill="black"/>
</g>
<g opacity="0.2">
<path d="M101.118 26.1703C101.088 26.1703 101.058 26.1703 101.028 26.1703C100.488 26.0803 99.9329 26.0503 99.3629 26.0803C97.2929 25.9453 95.5379 25.7653 90.5879 27.6102C84.7379 29.9951 82.2179 34.6298 81.4979 38.2296C81.0929 43.1793 82.0379 46.9141 82.3079 51.8639L82.6679 51.3239C82.6679 51.8039 82.6829 52.2838 82.7129 52.7638C82.7129 53.0338 82.7579 53.3038 82.8029 53.5288C89.8229 49.299 98.9129 47.1841 110.163 47.1841C110.763 47.1841 111.363 47.1991 111.963 47.2291C111.843 47.0491 111.693 46.8991 111.513 46.7792C111.873 45.4742 112.188 44.1243 112.458 42.8194C112.683 41.6044 112.773 40.3445 112.683 39.0846C114.438 39.7145 116.148 40.9745 116.823 42.5044C117.723 44.5293 118.488 46.1492 119.523 47.9041C126.723 49.104 133.068 51.7139 138.558 55.7337C140.943 55.2837 143.238 54.4737 145.218 52.9888C148.143 50.7839 150.123 46.5542 148.908 42.8644C147.738 43.9893 146.163 44.4843 144.633 44.2593C145.938 42.9094 146.478 40.7045 145.983 38.7696C140.943 40.7945 134.913 43.2693 130.053 40.7045C127.848 39.5345 126.408 36.9697 124.653 35.0798C122.853 33.1899 120.918 31.3 118.533 30.58C116.598 29.9501 112.818 31.165 110.793 32.8749C110.478 32.2899 110.118 31.75 109.713 31.21C107.823 29.3201 104.853 26.6653 101.118 26.1703Z" fill="black"/>
</g>
<path d="M103.501 361.222C94.5314 361.222 86.7164 358.207 80.0564 352.177C73.3964 346.118 70.0664 337.658 70.0664 326.799C70.0664 317.169 73.2914 309.07 79.7414 302.5C86.1914 295.9 94.1114 292.601 103.501 292.601C112.741 292.601 120.511 295.9 126.811 302.5C133.111 309.07 136.261 317.169 136.261 326.799C136.261 337.508 132.961 345.923 126.361 352.042C119.761 358.162 112.141 361.222 103.501 361.222Z" fill="#407BFF"/>
<g opacity="0.2">
<path d="M105.301 301.285C104.401 300.43 103.096 300.25 101.836 300.16C98.3712 299.98 95.1762 300.475 91.8462 301.42C86.8962 303.31 82.6662 307.09 80.2362 311.77C77.8062 316.494 77.1312 322.074 78.3912 327.249C78.9762 329.589 80.5512 332.198 82.9362 332.108C84.5562 332.018 85.7712 330.759 86.8512 329.589C89.3712 326.739 91.8912 323.904 94.4112 321.084C98.1912 316.809 102.016 312.535 104.896 307.63C106.021 305.65 106.921 302.905 105.301 301.285Z" fill="white"/>
</g>
</svg>
