<svg width="40" height="40" viewBox="0 0 40 40" fill="none" xmlns="http://www.w3.org/2000/svg">
<g clip-path="url(#clip0_206_2278)">
<path d="M28.3931 2.88907C19.4414 -4.07336 6.31641 2.33837 6.31641 13.6963C6.31641 19.2034 9.59305 24.1507 14.6639 26.3001C14.9613 26.4263 15.3055 26.2876 15.4318 25.9893C15.5581 25.6915 15.4189 25.3476 15.121 25.2214C10.4841 23.256 7.48797 18.7322 7.48797 13.6964C7.48797 3.30298 19.4954 -2.5468 27.6738 3.81376C27.9293 4.01243 28.2971 3.96657 28.4957 3.71103C28.6944 3.45564 28.6484 3.08767 28.3931 2.88907Z" fill="#858585"/>
<path d="M29.9777 4.33209C29.7561 4.09615 29.3855 4.08451 29.1496 4.306C28.9138 4.5274 28.9021 4.89818 29.1235 5.13404C31.3087 7.46139 32.512 10.5023 32.512 13.6962C32.512 18.732 29.5158 23.2558 24.8789 25.2215C24.2932 25.4696 24.4744 26.3467 25.1077 26.3467C25.1841 26.3467 25.2616 26.3318 25.3361 26.3001C30.4071 24.1506 33.6836 19.2033 33.6836 13.6962C33.6836 10.203 32.3674 6.87748 29.9777 4.33209Z" fill="#858585"/>
<path d="M20.0002 3.81738C14.5528 3.81738 10.1211 8.24903 10.1211 13.6963C10.1211 17.5665 12.3582 20.9816 15.7151 22.6001C16.0075 22.7409 16.357 22.6175 16.4971 22.3268C16.6377 22.0355 16.5152 21.6852 16.2239 21.5448C13.2283 20.1005 11.2927 17.0198 11.2927 13.6964C11.2927 8.89505 15.199 4.98903 20.0003 4.98903C24.8015 4.98903 28.7076 8.8952 28.7076 13.6964C28.7076 17.02 26.7721 20.1006 23.7764 21.5448C23.485 21.6853 23.3626 22.0353 23.5032 22.3268C23.6436 22.6184 23.9939 22.7405 24.2851 22.6001C27.635 20.9852 29.8791 17.5741 29.8791 13.6963C29.8791 8.24903 25.4475 3.81738 20.0002 3.81738Z" fill="#858585"/>
<path d="M20 7.67603C16.6803 7.67603 13.9795 10.3767 13.9795 13.6963C13.9795 15.7598 15.0193 17.6567 16.7613 18.7706C16.859 18.8332 16.9682 18.863 17.0764 18.863C17.2695 18.863 17.4586 18.7675 17.5704 18.5928C17.7447 18.3202 17.665 17.9579 17.3925 17.7837C15.989 16.8862 15.1511 15.3582 15.1511 13.6965C15.1511 11.0228 17.3264 8.84767 20 8.84767C22.6736 8.84767 24.8488 11.0229 24.8488 13.6965C24.8488 15.3581 24.0108 16.886 22.6073 17.7836C22.1143 18.0989 22.342 18.8629 22.9235 18.8629C23.4181 18.8629 26.0205 16.9944 26.0205 13.6964C26.0204 10.3767 23.3196 7.67603 20 7.67603Z" fill="#858585"/>
<path d="M28.3974 35.5987H27.7081V34.9869C27.7081 34.1471 27.0248 33.4638 26.1851 33.4638H25.8794C25.6422 32.6508 20.9941 16.7245 20.7422 15.8616C21.5508 15.5597 22.1283 14.7797 22.1283 13.8671C22.1283 12.6937 21.1735 11.739 20.0001 11.739C18.8266 11.739 17.8719 12.6937 17.8719 13.8671C17.8719 14.7797 18.4493 15.5596 19.2579 15.8615L14.1204 33.4637H13.8148C12.975 33.4637 12.2918 34.147 12.2918 34.9868V35.5986H11.6026C10.7453 35.5986 10.0479 36.296 10.0479 37.1532V38.4452C10.0479 39.3024 10.7454 39.9998 11.6026 39.9998H24.4541C24.7776 39.9998 25.0398 39.7377 25.0398 39.4141C25.0398 39.0906 24.7776 38.8283 24.4541 38.8283H11.6029C11.3916 38.8283 11.2197 38.6565 11.2197 38.4452V37.1534C11.2197 36.9422 11.3915 36.7703 11.6029 36.7703C12.0814 36.7703 28.3056 36.7703 28.3974 36.7703C28.6086 36.7703 28.7805 36.9421 28.7805 37.1534V38.4453C28.7805 38.6566 28.6087 38.8284 28.3974 38.8284H26.6673C26.3437 38.8284 26.0815 39.0907 26.0815 39.4142C26.0815 39.7378 26.3437 40 26.6673 40H28.3974C29.2547 40 29.952 39.3025 29.952 38.4453V37.1534C29.9521 36.2961 29.2547 35.5987 28.3974 35.5987ZM23.639 29.9685L20.996 28.0459L22.7133 26.7966L23.639 29.9685ZM21.9174 24.0697L20.8894 23.1698L21.499 22.6362L21.9174 24.0697ZM19.0436 13.8672C19.0436 13.3398 19.4727 12.9107 20.0002 12.9107C20.5277 12.9107 20.9569 13.3398 20.9569 13.8672C20.9569 14.3947 20.5278 14.8239 20.0002 14.8239C19.4728 14.8239 19.0436 14.3947 19.0436 13.8672ZM20.0002 17.5004L21.1371 21.3959L20.0001 22.3912L18.8633 21.396L20.0002 17.5004ZM18.5013 22.6362L19.1108 23.1697L18.083 24.0696L18.5013 22.6362ZM20.0001 23.9483L22.1047 25.7907L20.0002 27.3215L17.8957 25.7906L20.0001 23.9483ZM17.287 26.7966L19.0044 28.0459L16.3612 29.9685L17.287 26.7966ZM15.9369 35.5987H13.4636V34.9869C13.4636 34.7931 13.6212 34.6354 13.815 34.6354H15.5854C15.7792 34.6354 15.9369 34.793 15.9369 34.9869V35.5987ZM22.8916 34.9869V35.5987H17.1083V34.9869C17.1083 34.1471 16.4251 33.4638 15.5853 33.4638H15.341L15.8244 31.8079L20.0001 28.7703L24.1758 31.8079L24.6591 33.4639H24.4147C23.5749 33.4639 22.8916 34.1471 22.8916 34.9869ZM26.5366 35.5987H24.0632V34.9869C24.0632 34.7931 24.2208 34.6354 24.4147 34.6354H26.1851C26.3789 34.6354 26.5366 34.793 26.5366 34.9869V35.5987Z" fill="#858585"/>
</g>
<defs>
<clipPath id="clip0_206_2278">
<rect width="40" height="40" fill="white"/>
</clipPath>
</defs>
</svg>
