<svg width="22" height="22" viewBox="0 0 22 22" fill="none" xmlns="http://www.w3.org/2000/svg">
<path d="M11 12.375C10.2406 12.375 9.62502 11.7594 9.62502 11C9.62502 10.2406 10.2406 9.62505 11 9.62505C11.7594 9.62505 12.375 10.2406 12.375 11C12.375 11.7594 11.7594 12.375 11 12.375ZM10.5163 15.1199C10.6763 15.3129 10.8377 15.499 11 15.6777C11.1623 15.499 11.3237 15.3129 11.4837 15.1199C11.3234 15.1233 11.1622 15.125 11 15.125C10.8378 15.125 10.6765 15.1233 10.5163 15.1199ZM8.68761 15.0052C7.95228 14.9275 7.25026 14.8136 6.59239 14.6681C6.52423 14.9886 6.472 15.2995 6.43633 15.5985C6.26322 17.05 6.50565 17.9315 6.875 18.1447C7.24434 18.3579 8.12895 18.1271 9.29942 17.2515C9.5405 17.0711 9.78369 16.8705 10.0272 16.6511C9.57222 16.1542 9.12257 15.6032 8.68761 15.0052ZM15.4076 14.6681C14.7497 14.8136 14.0477 14.9275 13.3124 15.0052C12.8774 15.6032 12.4277 16.1542 11.9728 16.6511C12.2163 16.8705 12.4594 17.0711 12.7006 17.2515C13.871 18.1271 14.7557 18.3579 15.125 18.1447C15.4943 17.9315 15.7368 17.05 15.5636 15.5985C15.528 15.2995 15.4757 14.9886 15.4076 14.6681ZM16.7373 14.3124C17.2658 16.7315 16.9875 18.6571 15.8125 19.3355C14.6374 20.0139 12.8307 19.2921 11 17.6248C9.16925 19.2921 7.36252 20.0139 6.1875 19.3355C5.01247 18.6571 4.73419 16.7315 5.26276 14.3124C2.90349 13.5607 1.375 12.3568 1.375 11C1.375 9.6432 2.90349 8.43941 5.26276 7.68762C4.73419 5.26854 5.01247 3.34292 6.1875 2.66452C7.36252 1.98613 9.16925 2.70793 11 4.37523C12.8307 2.70793 14.6374 1.98613 15.8125 2.66452C16.9875 3.34292 17.2658 5.26854 16.7373 7.68762C19.0965 8.43941 20.625 9.6432 20.625 11C20.625 12.3568 19.0965 13.5607 16.7373 14.3124ZM10.0272 5.3489C9.78369 5.1296 9.5405 4.9289 9.29942 4.74851C8.12895 3.87287 7.24434 3.64207 6.875 3.85531C6.50565 4.06856 6.26322 4.95005 6.43633 6.4015C6.472 6.70051 6.52423 7.01145 6.59239 7.33198C7.25026 7.18649 7.95228 7.07255 8.68761 6.99484C9.12257 6.3969 9.57222 5.84588 10.0272 5.3489ZM13.3124 6.99484C14.0477 7.07255 14.7497 7.18649 15.4076 7.33198C15.4757 7.01145 15.528 6.70051 15.5636 6.4015C15.7368 4.95005 15.4943 4.06856 15.125 3.85531C14.7557 3.64207 13.871 3.87287 12.7006 4.74851C12.4594 4.9289 12.2163 5.1296 11.9728 5.3489C12.4277 5.84588 12.8774 6.3969 13.3124 6.99484ZM11.4837 6.88014C11.3237 6.68718 11.1623 6.50106 11 6.32231C10.8377 6.50106 10.6763 6.68718 10.5163 6.88014C10.6765 6.87674 10.8378 6.87502 11 6.87502C11.1622 6.87502 11.3234 6.87674 11.4837 6.88014ZM7.67391 13.4788C7.59085 13.3418 7.50874 13.203 7.42764 13.0625C7.34654 12.922 7.26741 12.7815 7.19024 12.6411C7.10313 12.8761 7.02265 13.1089 6.94898 13.3388C7.18492 13.3901 7.42681 13.4367 7.67391 13.4788ZM9.44526 13.6928C9.95218 13.7305 10.4721 13.75 11 13.75C11.5279 13.75 12.0478 13.7305 12.5547 13.6928C12.8408 13.2726 13.1176 12.8322 13.3816 12.375C13.6455 11.9178 13.8886 11.4578 14.1094 11C13.8886 10.5422 13.6455 10.0822 13.3816 9.62505C13.1176 9.16782 12.8408 8.72737 12.5547 8.30721C12.0478 8.26951 11.5279 8.25002 11 8.25002C10.4721 8.25002 9.95218 8.26951 9.44526 8.30721C9.1592 8.72737 8.88239 9.16782 8.61843 9.62505C8.35446 10.0822 8.11142 10.5422 7.89061 11C8.11142 11.4578 8.35446 11.9178 8.61843 12.375C8.88239 12.8322 9.1592 13.2726 9.44526 13.6928ZM14.8098 9.35894C14.8969 9.12391 14.9773 8.89107 15.051 8.66117C14.8151 8.61001 14.5732 8.56329 14.3261 8.52121C14.4091 8.65827 14.4912 8.79705 14.5724 8.93752C14.6535 9.07798 14.7326 9.21851 14.8098 9.35894ZM5.61958 9.01694C5.3079 9.11817 5.01251 9.22841 4.73573 9.34702C3.39218 9.92287 2.75 10.5735 2.75 11C2.75 11.4265 3.39218 12.0772 4.73573 12.653C5.01251 12.7716 5.3079 12.8819 5.61958 12.9831C5.82251 12.3406 6.07486 11.6756 6.37522 11C6.07486 10.3244 5.82251 9.65942 5.61958 9.01694ZM6.94898 8.66117C7.02265 8.89107 7.10313 9.12391 7.19024 9.35894C7.26741 9.21851 7.34654 9.07798 7.42764 8.93752C7.50874 8.79705 7.59085 8.65827 7.67391 8.52121C7.42681 8.56329 7.18492 8.61001 6.94898 8.66117ZM16.3804 12.9831C16.6921 12.8819 16.9875 12.7716 17.2642 12.653C18.6078 12.0772 19.25 11.4265 19.25 11C19.25 10.5735 18.6078 9.92287 17.2642 9.34702C16.9875 9.22841 16.6921 9.11817 16.3804 9.01694C16.1774 9.65942 15.9252 10.3244 15.6248 11C15.9252 11.6756 16.1774 12.3406 16.3804 12.9831ZM15.051 13.3388C14.9773 13.1089 14.8969 12.8761 14.8098 12.6411C14.7326 12.7815 14.6535 12.922 14.5724 13.0625C14.4912 13.203 14.4091 13.3418 14.3261 13.4788C14.5732 13.4367 14.8151 13.3901 15.051 13.3388Z" fill="black"/>
</svg>
