<svg width="18" height="18" viewBox="0 0 18 18" fill="none" xmlns="http://www.w3.org/2000/svg">
<path d="M8.16663 0.666668C12.3066 0.666668 15.6666 4.02667 15.6666 8.16667C15.6666 12.3067 12.3066 15.6667 8.16663 15.6667C4.02663 15.6667 0.666626 12.3067 0.666626 8.16667C0.666626 4.02667 4.02663 0.666668 8.16663 0.666668ZM8.16663 14C11.3895 14 14 11.3896 14 8.16667C14 4.94375 11.3895 2.33333 8.16663 2.33333C4.94371 2.33333 2.33329 4.94375 2.33329 8.16667C2.33329 11.3896 4.94371 14 8.16663 14ZM15.2377 14.0592L17.5947 16.4162L16.4162 17.5947L14.0592 15.2378L15.2377 14.0592Z" fill="white"/>
</svg>
