<svg width="20" height="20" viewBox="0 0 20 20" fill="none" xmlns="http://www.w3.org/2000/svg">
<path d="M9.17059 1.66663L15.2525 3.56722C15.6003 3.67593 15.8373 3.99813 15.8373 4.36262V5.83329H17.5039C17.9642 5.83329 18.3373 6.20639 18.3373 6.66663V13.3333C18.3373 13.7935 17.9642 14.1666 17.5039 14.1666L14.8205 14.1675C14.4983 14.5923 14.1062 14.9681 13.6539 15.2765L9.17059 18.3333L4.68722 15.2765C3.3212 14.345 2.50391 12.7986 2.50391 11.1453V4.36262C2.50391 3.99813 2.74078 3.67593 3.08868 3.56722L9.17059 1.66663ZM9.17059 3.41163L4.17057 4.97496V11.1453C4.17057 12.1827 4.65322 13.157 5.46925 13.7856L5.62612 13.8994L9.17059 16.3158L12.3223 14.1666H8.33726C7.87701 14.1666 7.50391 13.7935 7.50391 13.3333V6.66663C7.50391 6.20639 7.87701 5.83329 8.33726 5.83329H14.1706V4.97496L9.17059 3.41163ZM9.17059 9.99996V12.5H16.6706V9.99996H9.17059ZM9.17059 8.33329H16.6706V7.49996H9.17059V8.33329Z" fill="black"/>
</svg>
