<svg width="22" height="22" viewBox="0 0 22 22" fill="none" xmlns="http://www.w3.org/2000/svg">
<path d="M4.58333 4.22067V12.6398C4.58333 13.8658 5.19603 15.0106 6.2161 15.6907L11 18.88L15.7839 15.6907C16.804 15.0106 17.4167 13.8658 17.4167 12.6398V4.22067L11 2.79474L4.58333 4.22067ZM3.46781 2.5905L11 0.916687L18.5322 2.5905C18.9516 2.68371 19.25 3.0557 19.25 3.48534V12.6398C19.25 14.4788 18.3309 16.1961 16.8008 17.2161L11 21.0834L5.19915 17.2161C3.66906 16.1961 2.75 14.4788 2.75 12.6398V3.48534C2.75 3.0557 3.0484 2.68371 3.46781 2.5905ZM11 12.375L8.30598 13.7914L8.8205 10.7915L6.64099 8.66703L9.65296 8.22936L11 5.50002L12.347 8.22936L15.359 8.66703L13.1795 10.7915L13.694 13.7914L11 12.375Z" fill="black"/>
</svg>
