<svg width="40" height="40" viewBox="0 0 40 40" fill="none" xmlns="http://www.w3.org/2000/svg">
<g clip-path="url(#clip0_206_2300)">
<path d="M34.3782 0H32.6584C31.9024 0 31.9024 1.17204 32.6584 1.17204H34.3782C36.1542 1.17204 37.5992 2.61178 37.5992 4.38141V17.9437C37.5992 19.7134 36.1543 21.1531 34.3782 21.1531H32.4277C32.299 21.1531 32.1739 21.1955 32.0716 21.2737L28.4925 24.0114V21.7392C28.4925 21.4155 28.2302 21.1531 27.9065 21.1531H20.7742C20.1901 21.1531 19.6288 20.999 19.1337 20.7059V14.1274C19.1337 12.8952 18.5061 11.8066 17.5531 11.1625V4.38141C17.5531 2.61178 18.9981 1.17204 20.7742 1.17204H28.986C29.7419 1.17204 29.7419 0 28.986 0H20.7742C18.3518 0 16.3811 1.96552 16.3811 4.38141V10.6474C16.1127 10.5833 15.8332 10.5484 15.5455 10.5484H4.81767C2.83918 10.5484 1.22949 12.1539 1.22949 14.1274V15.3928C1.22949 16.1487 2.40154 16.1487 2.40154 15.3928V14.1274C2.40154 12.8002 3.48537 11.7204 4.81767 11.7204H15.5455C16.8778 11.7204 17.9618 12.8002 17.9618 14.1274V20.9392C17.9547 20.9909 17.955 21.043 17.9618 21.0944V24.8224C17.9618 24.8961 17.9573 24.9695 17.9507 25.0424H16.7421C15.4104 25.0424 14.3003 26.0036 14.0701 27.2668C14.0168 27.2869 13.9656 27.315 13.9182 27.3515L11.2971 29.3753V27.8154C11.2971 27.4918 11.0348 27.2294 10.7111 27.2294H4.81767C3.48537 27.2294 2.40154 26.1496 2.40154 24.8224V18.909C2.40154 18.1531 1.22949 18.1531 1.22949 18.909V24.8225C1.22949 26.796 2.83918 28.4015 4.81767 28.4015H10.1252V30.5682C10.1252 31.0383 10.6959 31.3203 11.0694 31.0321L14.0256 28.7495V35.3423C14.0256 36.8367 15.2443 38.0523 16.7422 38.0523H20.3384V39.4198C20.3384 39.8897 20.9092 40.172 21.2825 39.8837L23.6545 38.0523H24.3552C25.8531 38.0523 27.0717 36.8366 27.0717 35.3423V34.3018C27.0717 33.5459 25.8997 33.5459 25.8997 34.3018V35.3423C25.8997 36.1904 25.2069 36.8803 24.3552 36.8803H23.4545C23.3249 36.8803 23.1989 36.9232 23.0964 37.0024L21.5104 38.2269V37.4662C21.5104 37.1426 21.2481 36.8802 20.9244 36.8802H16.7421C15.8905 36.8802 15.1976 36.1902 15.1976 35.3422V27.7525C15.1976 26.9044 15.8904 26.2146 16.7421 26.2146H24.3552C25.2068 26.2146 25.8997 26.9045 25.8997 27.7525V30.6294C25.8997 31.3853 27.0717 31.3853 27.0717 30.6294V27.7526C27.0717 26.2582 25.8531 25.0426 24.3552 25.0426H19.1271C19.1315 24.9694 19.1338 22.0095 19.1338 22.0095C19.6505 22.2173 20.2045 22.3253 20.7743 22.3253H27.3205V25.1975C27.3205 25.6664 27.8889 25.9488 28.2626 25.663L32.6262 22.3253H34.3783C36.8006 22.3253 38.7713 20.3597 38.7713 17.9438V4.38141C38.7713 1.96552 36.8005 0 34.3782 0Z" fill="#858585"/>
<path d="M29.0405 4.32972C28.2964 4.13977 27.5382 4.72767 27.5382 5.49653C27.5382 6.33658 27.2321 7.14615 26.6766 7.77569L25.062 9.60275C24.9574 9.44234 24.7768 9.33615 24.5711 9.33615H21.419C21.0953 9.33615 20.833 9.59853 20.833 9.92217V17.0142C20.833 17.3379 21.0953 17.6002 21.419 17.6002H24.5711C24.8079 17.6002 25.0113 17.4595 25.1038 17.2575C25.7419 17.6474 26.4814 17.8582 27.2338 17.8582H32.8043C33.6555 17.8582 34.3577 17.1195 34.3178 16.2705C34.3 15.8945 34.3194 10.8459 34.3194 10.7338C34.3194 9.89834 33.6397 9.21855 32.806 9.21855L29.9092 9.20988L30.0292 8.92586C30.5773 7.62778 30.4871 6.12256 29.7881 4.89918C29.6249 4.61336 29.3593 4.41122 29.0405 4.32972C29.3593 4.41122 28.7216 4.2483 29.0405 4.32972C29.3593 4.41122 28.2965 4.13977 29.0405 4.32972ZM23.985 16.4282H22.0051V10.5082H23.985V16.4282ZM32.8043 10.3905C32.9935 10.3905 33.1474 10.5444 33.1474 10.7337C33.1474 10.8452 33.1463 11.1478 33.1447 11.5581C33.136 13.8234 33.1303 15.9689 33.147 16.3255C33.1531 16.4542 33.0905 16.54 33.0527 16.5797C32.9872 16.6483 32.899 16.686 32.8043 16.686H27.2338C26.5698 16.686 25.9199 16.4559 25.4037 16.0381L25.1571 15.8384V11.265L27.5552 8.55143C28.3 7.70724 28.7102 6.62232 28.7102 5.49645C28.7102 5.46332 28.7555 5.45473 28.7705 5.48051C29.2895 6.38869 29.3564 7.50612 28.9495 8.46977L28.487 9.56517C28.4107 9.7459 28.4299 9.95272 28.538 10.1163C28.6462 10.28 28.829 10.3786 29.0251 10.3792L32.8043 10.3905Z" fill="#858585"/>
<path d="M6.24716 20.3545C5.92344 20.3545 5.66113 20.6168 5.66113 20.9405C5.66113 21.2641 5.92344 21.5265 6.24716 21.5265H7.97459L7.65189 23.4783C7.59907 23.7975 7.81519 24.0992 8.13446 24.152C8.16689 24.1574 8.199 24.16 8.23072 24.16C8.51233 24.16 8.76072 23.9565 8.80823 23.6695L9.1625 21.5266H10.5762L10.2535 23.4783C10.2007 23.7976 10.4168 24.0993 10.7361 24.1521C10.7685 24.1575 10.8006 24.1601 10.8323 24.1601C11.114 24.1601 11.3623 23.9565 11.4099 23.6695L11.7641 21.5267H14.1155C14.4392 21.5267 14.7015 21.2643 14.7015 20.9406C14.7015 20.617 14.4392 20.3546 14.1155 20.3546H11.9579L12.1943 18.925H14.1155C14.4392 18.925 14.7015 18.6626 14.7015 18.339C14.7015 18.0154 14.4392 17.753 14.1155 17.753H12.388L12.7107 15.8012C12.7636 15.482 12.5474 15.1803 12.2282 15.1274C11.9085 15.0745 11.6072 15.2908 11.5544 15.61L11.2001 17.7529H9.78642L10.1091 15.8011C10.1619 15.4819 9.94581 15.1802 9.62655 15.1274C9.3065 15.0744 9.00568 15.2907 8.95278 15.6099L8.59851 17.7528H6.24716C5.92344 17.7528 5.66113 18.0152 5.66113 18.3388C5.66113 18.6625 5.92344 18.9249 6.24716 18.9249H8.40473L8.16837 20.3545H6.24716ZM9.59272 18.9249H11.0064L10.7701 20.3545H9.35635L9.59272 18.9249Z" fill="#858585"/>
<path d="M20.5417 29.2383C20.0685 28.8487 19.439 28.695 18.8075 28.8485C17.9982 29.045 17.1816 29.8015 17.1816 31.0485C17.1816 31.8246 17.4649 32.4983 18.0475 33.1081C18.5235 33.6062 19.2103 34.0799 20.2744 34.644C20.3602 34.6896 20.4545 34.7123 20.5488 34.7123C20.6432 34.7123 20.7375 34.6896 20.8233 34.644C22.6797 33.6599 23.916 32.6719 23.916 31.0485C23.916 29.7947 23.0704 29.046 22.2323 28.8601C21.6027 28.7204 20.9923 28.8687 20.5417 29.2383ZM22.7439 31.0485C22.7439 31.9241 22.1631 32.5716 20.5488 33.4603C18.9345 32.5715 18.3536 31.924 18.3536 31.0485C18.3536 30.397 18.7308 30.0732 19.0839 29.9874C19.149 29.9716 19.2187 29.9627 19.2904 29.9627C19.556 29.9627 19.848 30.0854 20.028 30.4344C20.1306 30.6331 20.338 30.7562 20.5604 30.7516C20.7838 30.7471 20.9853 30.616 21.0798 30.4135C21.2694 30.007 21.6682 29.9355 21.9783 30.0044C22.3485 30.0863 22.7439 30.4038 22.7439 31.0485Z" fill="#858585"/>
</g>
<defs>
<clipPath id="clip0_206_2300">
<rect width="40" height="40" fill="white"/>
</clipPath>
</defs>
</svg>
