<svg width="40" height="40" viewBox="0 0 40 40" fill="none" xmlns="http://www.w3.org/2000/svg">
<g clip-path="url(#clip0_206_2532)">
<path d="M14.0533 29.9151C11.2854 29.6159 8.66514 28.5145 6.51459 26.7464C5.24265 22.7436 5.40008 18.4233 6.95997 14.5237C8.51987 10.624 11.3854 7.38706 15.0671 5.36574C15.7277 5.78588 16.3605 6.2483 16.9615 6.75012C15.4215 7.84412 14.2231 9.35219 13.5052 11.0995C11.5052 15.6445 11.8802 21.8826 14.4752 26.992C14.5275 27.0951 14.6073 27.1817 14.7058 27.2422C14.8044 27.3027 14.9177 27.3346 15.0333 27.3345C15.1401 27.3343 15.2449 27.3067 15.338 27.2545C15.431 27.2023 15.5092 27.1271 15.5649 27.0361C15.6207 26.9451 15.6523 26.8414 15.6566 26.7348C15.6609 26.6281 15.6378 26.5222 15.5896 26.427C13.1608 21.637 12.7915 15.8195 14.6521 11.6039C15.3105 9.97131 16.4544 8.58029 17.929 7.61887C20.423 10.0299 22.1708 13.1075 22.964 16.4845C23.0018 16.6459 23.1023 16.7857 23.2432 16.8731C23.3842 16.9605 23.5541 16.9883 23.7155 16.9504C23.877 16.9126 24.0168 16.8121 24.1041 16.6711C24.1915 16.5302 24.2193 16.3603 24.1815 16.1989C23.366 12.7385 21.6114 9.57033 19.1108 7.04324C20.1092 6.72101 21.1631 6.60744 22.2072 6.70958C23.2513 6.81172 24.2632 7.12739 25.1802 7.63699C27.5871 8.83512 28.9927 11.222 29.759 13.0601C29.7933 13.2514 29.839 13.4389 29.8658 13.6332C29.8887 13.7974 29.9759 13.9458 30.1081 14.0457C30.2404 14.1456 30.407 14.1889 30.5712 14.1661C30.7353 14.1432 30.8837 14.056 30.9836 13.9237C31.0836 13.7915 31.1268 13.6249 31.104 13.4607C30.6984 10.564 29.4879 7.83932 27.6102 5.59663C25.7325 3.35394 23.263 1.68333 20.4827 0.774896C17.7024 -0.133538 14.7229 -0.243322 11.8833 0.458037C9.04363 1.1594 6.45788 2.64373 4.42022 4.74216C2.38257 6.84058 0.974837 9.46882 0.357204 12.3278C-0.26043 15.1868 -0.0631622 18.1618 0.92656 20.9142C1.91628 23.6667 3.65872 26.086 5.9556 27.897C8.25249 29.708 11.0116 30.838 13.919 31.1582C14.0838 31.1761 14.249 31.1277 14.3782 31.0237C14.5073 30.9197 14.5899 30.7687 14.6077 30.6039C14.6255 30.439 14.5771 30.2738 14.4732 30.1447C14.3692 30.0155 14.2182 29.9329 14.0533 29.9151ZM27.7071 7.86574C27.1128 7.32963 26.4491 6.87578 25.734 6.51637C24.664 5.92763 23.4838 5.56643 22.2676 5.45544C21.0514 5.34444 19.8254 5.48605 18.6665 5.87137C18.479 5.93887 18.2983 6.02449 18.1171 6.10637C17.5576 5.61209 16.97 5.15069 16.3571 4.72449C18.3819 3.82005 20.5557 3.2955 22.7702 3.17699C24.7639 4.32689 26.456 5.93391 27.7071 7.86574ZM20.6165 2.15699C18.7028 2.46789 16.8471 3.0661 15.1121 3.93137C14.5289 3.58956 13.928 3.27871 13.3121 3.00012C13.7067 2.52028 13.9711 1.94684 14.0796 1.33512C14.5927 1.27922 15.1084 1.25084 15.6246 1.25012C17.3294 1.25103 19.0202 1.5582 20.6165 2.15699ZM8.96209 2.89324C9.60042 3.02578 10.2311 3.19269 10.8515 3.39324C9.3879 4.10841 7.81676 4.57821 6.20084 4.78387C7.04486 4.04876 7.9715 3.41429 8.96209 2.89324ZM10.8283 2.07637C11.4447 1.85625 12.0756 1.67916 12.7165 1.54637C12.5693 1.90127 12.3516 2.22257 12.0765 2.49074C11.6673 2.33824 11.2513 2.20012 10.8283 2.07637ZM4.76896 6.21762C7.20646 5.98637 10.3315 5.39199 12.3127 3.92387C12.8283 4.13949 13.3327 4.37574 13.8227 4.63637C10.3819 6.69039 7.66565 9.76449 6.05101 13.4321C4.43637 17.0997 4.00337 21.179 4.81209 25.1039C2.52366 22.4926 1.25844 19.1409 1.25051 15.6688C1.24259 12.1967 2.49248 8.83928 4.76896 6.21762Z" fill="#858585"/>
<path d="M39.1871 16.0575C39.1557 15.9742 39.1069 15.8987 39.0439 15.8359C38.981 15.773 38.9054 15.7243 38.8221 15.6931C35.6206 14.7147 32.2105 14.6428 28.9706 15.4854C25.7306 16.328 22.7876 18.0521 20.4684 20.4662C18.0538 22.7855 16.3294 25.7286 15.4866 28.9688C14.6438 32.209 14.7156 35.6194 15.694 38.8212C15.7254 38.9044 15.7742 38.98 15.8371 39.0428C15.9001 39.1056 15.9757 39.1543 16.059 39.1856C17.7654 39.7306 19.5484 39.9975 21.3396 39.9762C23.7812 39.9784 26.1979 39.4868 28.4446 38.5308C30.6912 37.5749 32.7213 36.1745 34.4127 34.4137C36.8275 32.0943 38.552 29.1509 39.3949 25.9105C40.2377 22.6701 40.1658 19.2595 39.1871 16.0575ZM33.5271 33.5275C26.3865 40.6675 18.3777 38.6187 16.7734 38.1093C16.1299 35.8495 15.9714 33.4791 16.3084 31.1537C17.3257 32.5862 18.4638 33.929 19.7102 35.1674C20.6035 36.063 21.5493 36.9045 22.5427 37.6875C22.6071 37.7398 22.6812 37.7788 22.7608 37.8022C22.8404 37.8257 22.9238 37.833 23.0063 37.8238C23.0887 37.8147 23.1685 37.7892 23.241 37.7489C23.3135 37.7085 23.3772 37.6542 23.4285 37.589C23.4798 37.5238 23.5176 37.449 23.5397 37.369C23.5617 37.2891 23.5677 37.2055 23.5571 37.1232C23.5466 37.0409 23.5198 36.9616 23.4782 36.8898C23.4367 36.818 23.3813 36.7551 23.3152 36.705C22.3612 35.9516 21.4525 35.1425 20.594 34.2818C19.103 32.8095 17.7822 31.1742 16.6565 29.4068C17.4562 26.3426 19.0807 23.5562 21.3534 21.3506C28.4934 14.2118 36.5034 16.26 38.1071 16.7693C38.7496 19.0231 38.9091 21.3871 38.5752 23.7068C37.5603 22.2778 36.4249 20.9384 35.1815 19.7031C34.2567 18.7761 33.2757 17.9069 32.244 17.1006C32.1132 16.9987 31.9473 16.953 31.7828 16.9734C31.6183 16.9939 31.4687 17.0789 31.3668 17.2096C31.2649 17.3404 31.2192 17.5063 31.2397 17.6708C31.2601 17.8353 31.3451 17.985 31.4759 18.0868C32.4659 18.8617 33.4074 19.6966 34.2952 20.5868C35.7853 22.057 37.106 23.6895 38.2327 25.4537C37.4336 28.5253 35.8058 31.3182 33.5271 33.5275Z" fill="#858585"/>
<path d="M32.4179 21.5775L31.2585 22.7363L30.3679 21.8456C30.3102 21.786 30.2413 21.7383 30.165 21.7056C30.0887 21.6728 30.0067 21.6556 29.9237 21.6549C29.8408 21.6541 29.7585 21.67 29.6817 21.7014C29.6048 21.7328 29.5351 21.7792 29.4764 21.8379C29.4177 21.8966 29.3713 21.9664 29.3399 22.0432C29.3084 22.12 29.2926 22.2023 29.2933 22.2853C29.2941 22.3683 29.3113 22.4503 29.3441 22.5265C29.3768 22.6028 29.4244 22.6717 29.4841 22.7294L30.3754 23.62L28.6666 25.3294L27.7754 24.4375C27.6575 24.3237 27.4996 24.2607 27.3357 24.2621C27.1719 24.2635 27.0151 24.3293 26.8992 24.4451C26.7834 24.561 26.7176 24.7178 26.7162 24.8816C26.7148 25.0455 26.7778 25.2034 26.8916 25.3213L27.7822 26.2119L26.0729 27.9206L25.1822 27.0313C25.0644 26.9174 24.9065 26.8544 24.7426 26.8559C24.5788 26.8573 24.422 26.923 24.3061 27.0389C24.1902 27.1548 24.1245 27.3115 24.1231 27.4754C24.1217 27.6393 24.1846 27.7971 24.2985 27.915L25.1879 28.8056L23.4785 30.515L22.5898 29.625C22.4719 29.5112 22.314 29.4482 22.1501 29.4496C21.9863 29.451 21.8295 29.5168 21.7136 29.6326C21.5977 29.7485 21.532 29.9053 21.5306 30.0691C21.5292 30.233 21.5922 30.3909 21.706 30.5088L22.596 31.3994L21.4379 32.5575C21.3782 32.6152 21.3306 32.6841 21.2978 32.7604C21.2651 32.8366 21.2478 32.9187 21.2471 33.0016C21.2464 33.0846 21.2622 33.1669 21.2936 33.2437C21.325 33.3206 21.3714 33.3903 21.4301 33.449C21.4888 33.5077 21.5586 33.5541 21.6354 33.5855C21.7122 33.617 21.7945 33.6328 21.8775 33.6321C21.9605 33.6313 22.0425 33.6141 22.1188 33.5813C22.195 33.5486 22.264 33.501 22.3216 33.4413L23.4804 32.2825L24.3022 33.1044C24.4194 33.2218 24.5785 33.2879 24.7444 33.2881C24.9103 33.2883 25.0695 33.2225 25.1869 33.1053C25.3044 32.9881 25.3705 32.8291 25.3706 32.6632C25.3708 32.4973 25.3051 32.3381 25.1879 32.2206L24.366 31.3988L26.0729 29.6875L26.8947 30.5094C26.9528 30.5674 27.0217 30.6134 27.0976 30.6448C27.1735 30.6762 27.2548 30.6924 27.3368 30.6923C27.4189 30.6923 27.5002 30.6761 27.5761 30.6447C27.6519 30.6132 27.7208 30.5672 27.7788 30.5091C27.8368 30.451 27.8829 30.3821 27.9143 30.3062C27.9456 30.2304 27.9618 30.1491 27.9618 30.067C27.9617 29.9849 27.9455 29.9036 27.9141 29.8278C27.8826 29.7519 27.8366 29.6831 27.7785 29.625L26.9566 28.8056L28.666 27.0969L29.4873 27.9181C29.5449 27.9778 29.6139 28.0255 29.6901 28.0582C29.7664 28.091 29.8484 28.1082 29.9314 28.1089C30.0144 28.1097 30.0967 28.0938 30.1735 28.0624C30.2503 28.031 30.3201 27.9846 30.3787 27.9259C30.4374 27.8672 30.4838 27.7974 30.5153 27.7206C30.5467 27.6438 30.5625 27.5615 30.5618 27.4785C30.5611 27.3955 30.5438 27.3135 30.5111 27.2373C30.4783 27.161 30.4307 27.0921 30.371 27.0344L29.5497 26.2131L31.2585 24.5038L32.0804 25.3256C32.1983 25.4395 32.3561 25.5025 32.52 25.5011C32.6839 25.4996 32.8406 25.4339 32.9565 25.318C33.0724 25.2022 33.1381 25.0454 33.1395 24.8815C33.141 24.7177 33.078 24.5598 32.9641 24.4419L32.1422 23.62L33.3016 22.4613C33.3613 22.4036 33.4089 22.3347 33.4417 22.2584C33.4744 22.1821 33.4917 22.1001 33.4924 22.0171C33.4931 21.9342 33.4773 21.8519 33.4459 21.7751C33.4145 21.6982 33.3681 21.6285 33.3094 21.5698C33.2507 21.5111 33.1809 21.4647 33.1041 21.4333C33.0273 21.4018 32.945 21.386 32.862 21.3867C32.779 21.3875 32.697 21.4047 32.6207 21.4375C32.5445 21.4702 32.4755 21.5178 32.4179 21.5775Z" fill="#858585"/>
</g>
<defs>
<clipPath id="clip0_206_2532">
<rect width="40" height="40" fill="white"/>
</clipPath>
</defs>
</svg>
