<svg width="20" height="20" viewBox="0 0 20 20" fill="none" xmlns="http://www.w3.org/2000/svg">
<path d="M14.3394 1.91077L13.1608 3.08927L15.0716 5.00002H10.8335V6.66668H15.0716L13.1608 8.57743L14.3394 9.75593L18.262 5.83335L14.3394 1.91077ZM7.91679 5.83335C7.91679 4.68276 6.98405 3.75002 5.83346 3.75002C4.68286 3.75002 3.75012 4.68276 3.75012 5.83335C3.75012 6.98395 4.68286 7.91668 5.83346 7.91668C6.98405 7.91668 7.91679 6.98395 7.91679 5.83335ZM9.5835 5.83335C9.5835 7.90442 7.90452 9.58334 5.83346 9.58334C3.76239 9.58334 2.08346 7.90442 2.08346 5.83335C2.08346 3.76228 3.76239 2.08335 5.83346 2.08335C7.90452 2.08335 9.5835 3.76228 9.5835 5.83335ZM4.92863 15L6.83938 16.9108L5.66086 18.0893L1.73828 14.1667L5.66086 10.2441L6.83938 11.4226L4.92863 13.3333H9.16683V15H4.92863ZM12.5002 15.8333H15.8335V12.5H12.5002V15.8333ZM10.8335 11.6667C10.8335 11.2064 11.2066 10.8333 11.6668 10.8333H16.6668C17.127 10.8333 17.5002 11.2064 17.5002 11.6667V16.6667C17.5002 17.1269 17.127 17.5 16.6668 17.5H11.6668C11.2066 17.5 10.8335 17.1269 10.8335 16.6667V11.6667Z" fill="black"/>
</svg>
