<svg width="486" height="357" viewBox="0 0 486 357" fill="none" xmlns="http://www.w3.org/2000/svg">
<path d="M148.622 43.6267L117.487 43.8447L76.8359 43.8427L76.9299 28.7677C76.9419 26.7437 76.7649 24.7617 76.4159 22.8407C70.9889 -6.95733 27.3639 -7.13232 21.6219 22.6067C21.2429 24.5687 21.0449 26.5957 21.0449 28.6687V46.7947H21.0629L21.1379 60.3077C21.2159 74.5907 11.9979 86.8027 0.0348604 89.4577C-0.25914 89.5227 1.35887 89.5537 2.91487 89.5947C5.11187 89.6527 6.85887 89.6007 6.85887 89.6007L122.982 89.7517C137.283 89.6517 148.804 76.4697 148.716 60.3077L148.622 43.6267Z" fill="#121936"/>
<path d="M243.043 43.4117C243.043 24.9047 231.365 9.12967 214.977 3.04167C211.017 1.23367 206.624 0.206673 201.988 0.177673L105.455 0.288673L105.462 0.275673H52.841C52.137 0.275673 51.442 0.306669 50.75 0.351669L48.957 0.353668V0.412674C49.091 0.428674 49.222 0.452673 49.355 0.469673C64.322 2.45767 75.971 14.8347 76.866 30.0827H76.849V330.118C76.849 344.685 88.785 356.494 103.509 356.494H242.988V235.441H243.042V43.4117H243.043Z" fill="white"/>
<path d="M218.891 162.065H105.629C105.076 162.065 104.629 161.618 104.629 161.065C104.629 160.513 105.076 160.065 105.629 160.065H218.891C219.444 160.065 219.891 160.513 219.891 161.065C219.891 161.617 219.444 162.065 218.891 162.065Z" fill="#121936"/>
<path d="M184.754 146.065H137.041C136.488 146.065 136.041 145.617 136.041 145.065C136.041 144.513 136.488 144.065 137.041 144.065H184.754C185.307 144.065 185.754 144.513 185.754 145.065C185.754 145.617 185.306 146.065 184.754 146.065Z" fill="#121936"/>
<path d="M218.891 185.55H105.629C105.076 185.55 104.629 185.103 104.629 184.55C104.629 183.997 105.076 183.55 105.629 183.55H218.891C219.444 183.55 219.891 183.997 219.891 184.55C219.891 185.103 219.444 185.55 218.891 185.55Z" fill="#121936"/>
<path d="M218.891 209.035H105.629C105.076 209.035 104.629 208.588 104.629 208.035C104.629 207.482 105.076 207.035 105.629 207.035H218.891C219.444 207.035 219.891 207.482 219.891 208.035C219.891 208.588 219.444 209.035 218.891 209.035Z" fill="#121936"/>
<path d="M218.891 231.016H105.629C105.076 231.016 104.629 230.569 104.629 230.016C104.629 229.463 105.076 229.016 105.629 229.016H218.891C219.444 229.016 219.891 229.463 219.891 230.016C219.891 230.568 219.444 231.016 218.891 231.016Z" fill="#121936"/>
<path d="M157.067 36.1397C155.713 31.9197 149.482 32.9067 149.499 37.3387C149.513 41.1097 144.682 42.6787 142.477 39.6207C139.886 36.0257 134.264 38.8897 135.649 43.0997C136.827 46.6807 132.718 49.6667 129.676 47.4397C126.101 44.8217 121.639 49.2827 124.258 52.8587C126.486 55.9007 123.5 60.0107 119.918 58.8317C115.708 57.4467 112.844 63.0677 116.439 65.6597C119.498 67.8647 117.928 72.6957 114.157 72.6817C109.725 72.6647 108.738 78.8967 112.958 80.2497C116.548 81.4017 116.548 86.4817 112.958 87.6327C108.738 88.9867 109.725 95.2177 114.157 95.2007C117.928 95.1867 119.497 100.018 116.439 102.223C112.844 104.814 115.708 110.436 119.918 109.05C123.499 107.871 126.485 111.981 124.258 115.023C121.64 118.599 126.101 123.06 129.676 120.441C132.718 118.213 136.828 121.199 135.649 124.781C134.264 128.991 139.885 131.855 142.477 128.26C144.682 125.201 149.513 126.771 149.499 130.541C149.482 134.973 155.714 135.96 157.067 131.74C158.219 128.15 163.299 128.15 164.45 131.74C165.804 135.96 172.035 134.973 172.018 130.541C172.004 126.771 176.835 125.201 179.04 128.26C181.632 131.855 187.253 128.991 185.868 124.781C184.689 121.2 188.799 118.213 191.841 120.441C195.417 123.059 199.878 118.598 197.259 115.023C195.031 111.981 198.017 107.871 201.599 109.05C205.809 110.435 208.673 104.814 205.078 102.223C202.019 100.018 203.589 95.1867 207.36 95.2007C211.792 95.2177 212.779 88.9857 208.559 87.6327C204.969 86.4807 204.969 81.4007 208.559 80.2497C212.779 78.8967 211.792 72.6647 207.36 72.6817C203.59 72.6957 202.02 67.8647 205.078 65.6597C208.673 63.0687 205.809 57.4467 201.599 58.8317C198.017 60.0107 195.032 55.9007 197.259 52.8587C199.877 49.2827 195.416 44.8217 191.841 47.4397C188.799 49.6677 184.689 46.6817 185.868 43.0997C187.253 38.8897 181.632 36.0257 179.04 39.6207C176.835 42.6797 172.004 41.1097 172.018 37.3387C172.035 32.9067 165.803 31.9197 164.45 36.1397C163.299 39.7297 158.219 39.7297 157.067 36.1397Z" fill="#FFD066"/>
<path d="M178.586 114.405H142.935C138.762 114.405 135.367 111.01 135.367 106.837V78.6517C135.367 74.4787 138.763 71.0837 142.935 71.0837H178.586C182.759 71.0837 186.154 74.4787 186.154 78.6517V106.837C186.154 111.01 182.759 114.405 178.586 114.405ZM142.934 74.0837C140.415 74.0837 138.366 76.1327 138.366 78.6517V106.837C138.366 109.356 140.416 111.405 142.934 111.405H178.585C181.104 111.405 183.153 109.356 183.153 106.837V78.6517C183.153 76.1327 181.103 74.0837 178.585 74.0837H142.934Z" fill="#121936"/>
<path d="M177.702 74.0837C176.874 74.0837 176.202 73.4127 176.202 72.5837V64.3937C176.202 58.9237 171.157 54.4747 164.957 54.4747H156.563C150.363 54.4747 145.318 58.9247 145.318 64.3937V72.5837C145.318 73.4127 144.646 74.0837 143.818 74.0837C142.99 74.0837 142.318 73.4127 142.318 72.5837V64.3937C142.318 57.2697 148.709 51.4747 156.563 51.4747H164.957C172.811 51.4747 179.202 57.2697 179.202 64.3937V72.5837C179.202 73.4127 178.53 74.0837 177.702 74.0837Z" fill="#121936"/>
<path d="M169.811 88.3217C169.811 83.6677 165.809 79.9037 160.901 79.9747C156.267 80.0417 152.444 83.5927 152.27 87.9997C152.159 90.7927 153.493 93.2927 155.615 94.8827C156.072 95.2257 156.351 95.7397 156.351 96.2937V98.5827C156.351 99.5637 157.187 100.36 158.218 100.36H163.856C164.887 100.36 165.723 99.5637 165.723 98.5827V96.2957C165.723 95.7427 165.999 95.2267 166.456 94.8847C168.499 93.3557 169.811 90.9847 169.811 88.3217Z" fill="#121936"/>
<path d="M162.894 103.508C162.894 104.534 162.062 105.366 161.036 105.366C160.01 105.366 159.178 104.534 159.178 103.508C159.178 102.482 160.01 101.65 161.036 101.65C162.062 101.65 162.894 102.481 162.894 103.508Z" fill="#121936"/>
<path d="M161.037 105.616C159.875 105.616 158.93 104.67 158.93 103.508C158.93 102.345 159.875 101.4 161.037 101.4C162.199 101.4 163.145 102.346 163.145 103.508C163.145 104.67 162.199 105.616 161.037 105.616ZM161.037 101.9C160.15 101.9 159.43 102.622 159.43 103.508C159.43 104.395 160.151 105.116 161.037 105.116C161.924 105.116 162.645 104.395 162.645 103.508C162.645 102.621 161.924 101.9 161.037 101.9Z" fill="#FFD066"/>
<path d="M163.804 102.392H158.272C157.899 102.392 157.596 102.089 157.596 101.716V101.521C157.596 101.148 157.899 100.845 158.272 100.845H163.804C164.177 100.845 164.48 101.148 164.48 101.521V101.716C164.48 102.089 164.177 102.392 163.804 102.392Z" fill="#121936"/>
<path d="M163.804 102.642H158.272C157.761 102.642 157.346 102.226 157.346 101.716V101.521C157.346 101.011 157.761 100.595 158.272 100.595H163.804C164.315 100.595 164.73 101.01 164.73 101.521V101.716C164.73 102.226 164.315 102.642 163.804 102.642ZM158.272 101.095C158.038 101.095 157.846 101.286 157.846 101.521V101.716C157.846 101.951 158.037 102.142 158.272 102.142H163.804C164.038 102.142 164.23 101.951 164.23 101.716V101.521C164.23 101.286 164.039 101.095 163.804 101.095H158.272Z" fill="#FFD066"/>
<path d="M163.468 103.744H158.609C158.283 103.744 158.018 103.479 158.018 103.153V102.982C158.018 102.656 158.283 102.391 158.609 102.391H163.468C163.794 102.391 164.059 102.655 164.059 102.982V103.153C164.059 103.479 163.794 103.744 163.468 103.744Z" fill="#121936"/>
<path d="M163.468 103.994H158.609C158.145 103.994 157.768 103.617 157.768 103.153V102.982C157.768 102.518 158.145 102.141 158.609 102.141H163.468C163.932 102.141 164.309 102.518 164.309 102.982V103.153C164.308 103.617 163.931 103.994 163.468 103.994ZM158.608 102.642C158.42 102.642 158.267 102.795 158.267 102.983V103.154C158.267 103.342 158.42 103.495 158.608 103.495H163.467C163.655 103.495 163.808 103.342 163.808 103.154V102.983C163.808 102.795 163.655 102.642 163.467 102.642H158.608Z" fill="#FFD066"/>
<path d="M154.956 90.3346C154.791 90.3346 154.64 90.2257 154.595 90.0587C153.5 86.0627 156.668 83.8047 156.7 83.7817C156.869 83.6647 157.103 83.7066 157.221 83.8756C157.34 84.0456 157.298 84.2787 157.129 84.3977C157.016 84.4767 154.366 86.3857 155.317 89.8607C155.372 90.0606 155.254 90.2666 155.054 90.3216C155.021 90.3306 154.988 90.3346 154.956 90.3346Z" fill="#FFD066"/>
<path d="M113.065 48.6157C112.847 48.6157 112.627 48.5447 112.443 48.3977L103.006 40.8827C102.574 40.5387 102.503 39.9097 102.847 39.4777C103.191 39.0457 103.819 38.9747 104.252 39.3187L113.689 46.8337C114.121 47.1777 114.192 47.8067 113.848 48.2387C113.651 48.4867 113.359 48.6157 113.065 48.6157Z" fill="#121936"/>
<path d="M92.4019 84.3927C91.9479 84.3927 91.5379 84.0817 91.4289 83.6217C91.3029 83.0837 91.6369 82.5457 92.1739 82.4197L103.918 79.6647C104.454 79.5377 104.993 79.8717 105.12 80.4097C105.246 80.9477 104.912 81.4857 104.375 81.6117L92.6309 84.3667C92.5539 84.3847 92.4779 84.3927 92.4019 84.3927Z" fill="#121936"/>
<path d="M105.803 65.3857C105.714 65.3857 105.625 65.3737 105.535 65.3487L93.9075 62.1357C93.3755 61.9887 93.0625 61.4377 93.2105 60.9057C93.3565 60.3727 93.9095 60.0627 94.4405 60.2077L106.068 63.4207C106.6 63.5677 106.913 64.1187 106.765 64.6507C106.644 65.0947 106.242 65.3857 105.803 65.3857Z" fill="#121936"/>
<path d="M216.075 83.5027C215.559 83.5027 215.122 83.1067 215.079 82.5837C215.035 82.0337 215.445 81.5507 215.995 81.5067L228.018 80.5327C228.571 80.4847 229.051 80.8977 229.096 81.4487C229.14 81.9987 228.73 82.4817 228.18 82.5257L216.157 83.4997C216.13 83.5007 216.102 83.5027 216.075 83.5027Z" fill="#121936"/>
<path d="M214.562 65.3857C214.124 65.3857 213.721 65.0947 213.599 64.6517C213.452 64.1197 213.764 63.5687 214.296 63.4217L225.923 60.2087C226.451 60.0637 227.007 60.3737 227.153 60.9067C227.3 61.4387 226.988 61.9897 226.456 62.1367L214.829 65.3497C214.741 65.3737 214.651 65.3857 214.562 65.3857Z" fill="#121936"/>
<path d="M223.727 103.439C223.572 103.439 223.414 103.403 223.267 103.326L212.563 97.7637C212.073 97.5097 211.882 96.9057 212.136 96.4157C212.391 95.9257 212.993 95.7327 213.485 95.9897L224.189 101.552C224.679 101.806 224.87 102.41 224.616 102.9C224.437 103.243 224.089 103.439 223.727 103.439Z" fill="#121936"/>
<path d="M209.81 49.1577C209.81 56.8527 203.614 63.3397 195.67 63.3397C187.769 63.3397 181.654 56.9347 181.654 49.2407C181.654 41.5467 187.809 35.0587 195.753 35.0587C203.655 35.0597 209.81 41.4227 209.81 49.1577ZM184.583 49.2467C184.583 55.3707 189.397 60.4186 195.661 60.4186C202.019 60.4186 206.881 55.2757 206.881 49.1527C206.881 43.0287 202.019 37.9807 195.755 37.9807C189.443 37.9807 184.583 43.1227 184.583 49.2467ZM200.392 46.3367C199.779 47.0727 198.689 47.2977 197.901 46.7527C197.323 46.3527 196.698 46.1217 196.128 46.1217C194.548 46.1217 193.383 47.3697 193.383 49.1167C193.383 50.9047 194.548 52.1527 196.128 52.1527C196.69 52.1527 197.347 51.9327 197.973 51.5497C198.698 51.1067 199.64 51.2507 200.221 51.8717L200.266 51.9207C201.029 52.7337 200.913 54.0697 199.975 54.6727C198.724 55.4767 197.263 55.9367 195.878 55.9367C191.843 55.9367 188.932 53.1097 188.932 49.1997C188.932 45.3317 191.927 42.5037 196.044 42.5037C197.376 42.5037 198.799 42.9287 199.995 43.6447C200.929 44.2027 201.089 45.5007 200.392 46.3367Z" fill="#121936"/>
<path d="M194.451 278.384V322.573C194.451 340.065 208.631 354.244 226.122 354.244H232.002C253.02 354.244 270.059 337.205 270.059 316.187C270.059 301.392 282.052 289.399 296.847 289.399H307.863C310.384 289.399 312.805 289.814 315.072 290.57V289.399H315.331V272.782C315.331 260.943 305.733 251.345 293.894 251.345H168.621V251.376C182.993 252.009 194.451 263.857 194.451 278.384Z" fill="#F4F2ED"/>
<path d="M462.009 327.901L461.778 310.837C461.778 298.998 452.18 289.4 440.341 289.4H315.329H315.07V290.571C324.118 293.588 330.644 302.12 330.644 312.182V322.947C330.644 341.475 345.664 356.495 364.192 356.495H485.854C472.145 353.799 462.198 341.87 462.009 327.901Z" fill="#FAF8F3"/>
<path d="M76.7832 330.337C76.7832 332.066 76.9712 333.751 77.3202 335.376C77.0042 333.685 76.8402 331.929 76.8502 330.119L76.7832 330.337Z" fill="#121936"/>
<path d="M330.644 322.948V312.183C330.644 302.121 324.118 293.589 315.07 290.572C312.804 289.816 310.382 289.401 307.861 289.401H296.845C282.05 289.401 270.057 301.394 270.057 316.189C270.057 337.207 253.018 354.246 232 354.246H226.12C208.629 354.246 194.449 340.066 194.449 322.575V278.386C194.449 263.858 182.991 252.011 168.619 251.378C168.218 251.36 167.816 251.347 167.41 251.347C149.159 251.347 134.363 266.143 134.363 284.394V320.572C134.363 339.17 119.286 354.246 100.689 354.246C89.2144 354.246 79.6324 346.161 77.3184 335.377C79.6184 347.685 90.1614 356.496 103.331 356.496H315.069H364.19C345.664 356.495 330.644 341.475 330.644 322.948Z" fill="#121936"/>
</svg>
