<svg width="40" height="40" viewBox="0 0 40 40" fill="none" xmlns="http://www.w3.org/2000/svg">
<g clip-path="url(#clip0_206_2067)">
<path d="M9.3335 26.3333C7.12748 26.3333 5.3335 28.1272 5.3335 30.3333C5.3335 32.5393 7.12748 34.3333 9.3335 34.3333C11.5395 34.3333 13.3335 32.5393 13.3335 30.3333C13.3335 28.1272 11.5394 26.3333 9.3335 26.3333ZM9.3335 32.9999C7.86279 32.9999 6.66686 31.8039 6.66686 30.3333C6.66686 28.8625 7.86287 27.6666 9.3335 27.6666C10.8041 27.6666 12.0001 28.8626 12.0001 30.3333C12.0001 31.8039 10.8041 32.9999 9.3335 32.9999Z" fill="#858585"/>
<path d="M32 26.3333C29.794 26.3333 28 28.1272 28 30.3333C28 32.5393 29.794 34.3333 32 34.3333C34.206 34.3333 36 32.5393 36 30.3333C36 28.1272 34.206 26.3333 32 26.3333ZM32 32.9999C30.5293 32.9999 29.3334 31.8039 29.3334 30.3333C29.3334 28.8625 30.5294 27.6666 32 27.6666C33.4707 27.6666 34.6666 28.8626 34.6666 30.3333C34.6666 31.8039 33.4707 32.9999 32 32.9999Z" fill="#858585"/>
<path d="M39.8941 22.6394L33.8941 13.306C33.7715 13.1153 33.5601 13 33.3334 13H26.0001C25.6315 13 25.3335 13.2987 25.3335 13.6666V30.3333C25.3335 30.702 25.6315 30.9999 26.0001 30.9999H28.6668V29.6666H26.6668V14.3334H32.9694L38.6668 23.196V29.6667H35.3334V31H39.3334C39.7021 31 40.0001 30.702 40.0001 30.3334V23C40.0001 22.8727 39.9635 22.7466 39.8941 22.6394Z" fill="#858585"/>
<path d="M29.3333 21.6667V17.0001H34.6666V15.6667H28.6666C28.298 15.6667 28 15.9654 28 16.3334V22.3334C28 22.7021 28.298 23 28.6666 23H38.6666V21.6667H29.3333V21.6667Z" fill="#858585"/>
<path d="M26 8.33325H0.666641C0.298672 8.33325 0 8.63192 0 8.99989V30.3333C0 30.7019 0.298672 30.9999 0.666641 30.9999H6V29.6665H1.33336V9.66653H25.3334V29.6665H12.6666V30.9999H26C26.3687 30.9999 26.6666 30.7019 26.6666 30.3333V8.99989C26.6666 8.63192 26.3687 8.33325 26 8.33325Z" fill="#858585"/>
<path d="M4.6665 27H0.666504V28.3334H4.6665V27Z" fill="#858585"/>
<path d="M25.3334 27H14V28.3334H25.3334V27Z" fill="#858585"/>
<path d="M39.3336 27H36.667V28.3334H39.3336V27Z" fill="#858585"/>
<path d="M25.9999 11H2.6665V12.3334H25.9999V11Z" fill="#858585"/>
<path d="M9.99986 29.6667H8.6665V31.0001H9.99986V29.6667Z" fill="#858585"/>
<path d="M32.6669 29.6667H31.3335V31.0001H32.6669V29.6667Z" fill="#858585"/>
<path d="M11.9999 5.66675H2.6665V7.00011H11.9999V5.66675Z" fill="#858585"/>
<path d="M1.33336 5.66675H0V7.00011H1.33336V5.66675Z" fill="#858585"/>
</g>
<defs>
<clipPath id="clip0_206_2067">
<rect width="40" height="40" fill="white"/>
</clipPath>
</defs>
</svg>
