<svg width="84" height="84" viewBox="0 0 84 84" fill="none" xmlns="http://www.w3.org/2000/svg">
<g clip-path="url(#clip0_141_979)">
<path d="M42.0007 83.9975C65.1943 83.9975 83.9965 65.1953 83.9965 42.0017C83.9965 18.808 65.1943 0.00585938 42.0007 0.00585938C18.8071 0.00585938 0.00488281 18.808 0.00488281 42.0017C0.00488281 65.1953 18.8071 83.9975 42.0007 83.9975Z" fill="#87D7F5"/>
<path d="M2.31494 28.2337L30.9807 28.2336C32.1873 28.2336 33.1661 27.2549 33.1661 26.0481C33.1661 25.4445 32.921 24.8978 32.525 24.5036C32.1306 24.1075 31.5839 23.8624 30.9805 23.8624H17.5024C16.2957 23.8624 15.3169 22.8838 15.3169 21.677C15.3169 21.0734 15.562 20.5267 15.9563 20.1325C16.3523 19.7364 16.899 19.4913 17.5024 19.4913H23.6406C24.8473 19.4913 25.8261 18.5127 25.8261 17.3058C25.8261 16.7022 25.581 16.1556 25.185 15.7613C24.7906 15.3653 24.2439 15.1202 23.6405 15.1202H21.7858C20.5791 15.1202 19.6003 14.1416 19.6003 12.9347C19.6003 12.3295 19.8454 11.7846 20.2414 11.3886C20.6358 10.9927 21.1825 10.7492 21.7859 10.7492H28.4298C29.6365 10.7492 30.6153 9.7706 30.6153 8.56375C30.6153 7.95852 30.3702 7.41367 29.9741 7.01762C29.5797 6.62157 29.0331 6.37646 28.4296 6.37646H19.7542C11.7008 11.4168 5.47955 19.11 2.31494 28.2337Z" fill="#BAEAF7"/>
<path d="M77.5451 33.07H83.0403C82.7181 31.5823 82.3185 30.1236 81.8432 28.6992H65.0848C63.8776 28.6992 62.899 29.6777 62.899 30.8849C62.899 32.092 61.9205 33.0705 60.713 33.0702H55.5213C54.3141 33.0702 53.3354 34.0487 53.3354 35.2558C53.3354 36.4627 54.3141 37.4413 55.5213 37.4413H56.1286C57.3358 37.4413 58.3144 38.4199 58.3144 39.6271C58.3144 40.834 59.2931 41.8126 60.5002 41.8126H78.1524C79.3593 41.8126 80.3379 40.8343 80.3379 39.6271C80.3379 38.4199 79.3596 37.4413 78.1524 37.4413H77.5451C76.338 37.4413 75.3594 36.463 75.3594 35.2558C75.3594 34.0487 76.338 33.07 77.5451 33.07Z" fill="#BAEAF7"/>
<path d="M61.0245 37.312H22.874V49.6794H61.0245V37.312Z" fill="#BFA993"/>
<path d="M31.7293 37.312H22.874V49.6794H31.7293V37.312Z" fill="#AA927D"/>
<path d="M69.5493 73.7005C73.9501 69.8686 77.5187 65.1518 80.0087 59.8682H75.6169H69.5495V73.7005H69.5493Z" fill="#BFA993"/>
<path d="M80.974 57.6533H69.5493V62.0825H78.8832C79.6636 60.6516 80.3622 59.1729 80.974 57.6533Z" fill="#EBE4DD"/>
<path d="M14.4496 73.6937V59.8682H8.38207H3.98535C6.4983 65.2174 10.0898 69.9063 14.4496 73.6937Z" fill="#AA927D"/>
<path d="M14.4496 57.6533H3.02051C3.63213 59.1793 4.32874 60.6575 5.10493 62.0825H14.4495L14.4496 57.6533Z" fill="#D8CCBC"/>
<path d="M14.4497 71.3511V52.814H25.5712H58.4279H69.5494V71.3511C68.6659 71.3511 15.3729 71.3511 14.4497 71.3511Z" fill="#BFA993"/>
<path d="M14.4497 71.3511V52.814H17.9377H28.242H31.73V71.3511C28.2897 71.3511 18.4917 71.3511 14.4497 71.3511Z" fill="#AA927D"/>
<path d="M14.7542 70.6128H14.1449C13.6335 70.6128 13.2192 70.1984 13.2192 69.6872V53.7396C13.2192 53.2282 13.6337 52.814 14.1449 52.814H14.7542C15.2656 52.814 15.6799 53.2284 15.6799 53.7396V69.6872C15.6799 70.1984 15.2654 70.6128 14.7542 70.6128Z" fill="#D8CCBC"/>
<path d="M21.6419 70.6128H21.0326C20.5212 70.6128 20.1069 70.1984 20.1069 69.6872V53.7396C20.1069 53.2282 20.5214 52.814 21.0326 52.814H21.6419C22.1533 52.814 22.5675 53.2284 22.5675 53.7396V69.6872C22.5675 70.1984 22.153 70.6128 21.6419 70.6128Z" fill="#D8CCBC"/>
<path d="M28.5291 70.6128H27.9198C27.4086 70.6128 26.9941 70.1984 26.9941 69.6872V53.7396C26.9941 53.2282 27.4086 52.814 27.9198 52.814H28.5291C29.0403 52.814 29.4548 53.2284 29.4548 53.7396V69.6872C29.4549 70.1984 29.0403 70.6128 28.5291 70.6128Z" fill="#D8CCBC"/>
<path d="M35.4168 70.6128H34.8075C34.2963 70.6128 33.8818 70.1984 33.8818 69.6872V53.7396C33.8818 53.2282 34.2963 52.814 34.8075 52.814H35.4168C35.928 52.814 36.3424 53.2284 36.3424 53.7396V69.6872C36.3424 70.1984 35.928 70.6128 35.4168 70.6128Z" fill="#EBE4DD"/>
<path d="M42.3045 70.6128H41.6952C41.184 70.6128 40.7695 70.1984 40.7695 69.6872V53.7396C40.7695 53.2282 41.184 52.814 41.6952 52.814H42.3045C42.8157 52.814 43.2301 53.2284 43.2301 53.7396V69.6872C43.2301 70.1984 42.8156 70.6128 42.3045 70.6128Z" fill="#EBE4DD"/>
<path d="M49.1917 70.6128H48.5824C48.0712 70.6128 47.6567 70.1984 47.6567 69.6872V53.7396C47.6567 53.2282 48.0712 52.814 48.5824 52.814H49.1917C49.7029 52.814 50.1174 53.2284 50.1174 53.7396V69.6872C50.1175 70.1984 49.7029 70.6128 49.1917 70.6128Z" fill="#EBE4DD"/>
<path d="M56.0794 70.6128H55.4701C54.9589 70.6128 54.5444 70.1984 54.5444 69.6872V53.7396C54.5444 53.2282 54.9589 52.814 55.4701 52.814H56.0794C56.5908 52.814 57.005 53.2284 57.005 53.7396V69.6872C57.005 70.1984 56.5906 70.6128 56.0794 70.6128Z" fill="#EBE4DD"/>
<path d="M62.9666 70.6128H62.3573C61.8461 70.6128 61.4316 70.1984 61.4316 69.6872V53.7396C61.4316 53.2282 61.8461 52.814 62.3573 52.814H62.9666C63.4778 52.814 63.8923 53.2284 63.8923 53.7396V69.6872C63.8923 70.1984 63.4777 70.6128 62.9666 70.6128Z" fill="#EBE4DD"/>
<path d="M69.8543 70.6128H69.245C68.7338 70.6128 68.3193 70.1984 68.3193 69.6872V53.7396C68.3193 53.2282 68.7338 52.814 69.245 52.814H69.8543C70.3655 52.814 70.7799 53.2284 70.7799 53.7396V69.6872C70.7801 70.1984 70.3655 70.6128 69.8543 70.6128Z" fill="#EBE4DD"/>
<path d="M15.6803 52.8145H13.2197V57.6538H15.6803V52.8145Z" fill="#BFA993"/>
<path d="M22.5671 52.8145H20.1064V57.6538H22.5671V52.8145Z" fill="#BFA993"/>
<path d="M29.4552 52.8145H26.9946V57.6538H29.4552V52.8145Z" fill="#BFA993"/>
<path d="M36.342 52.8145H33.8813V57.6538H36.342V52.8145Z" fill="#D8CCBC"/>
<path d="M43.2301 52.8145H40.7695V57.6538H43.2301V52.8145Z" fill="#D8CCBC"/>
<path d="M50.1169 52.8145H47.6562V57.6538H50.1169V52.8145Z" fill="#D8CCBC"/>
<path d="M57.005 52.8145H54.5444V57.6538H57.005V52.8145Z" fill="#D8CCBC"/>
<path d="M63.8918 52.8145H61.4312V57.6538H63.8918V52.8145Z" fill="#D8CCBC"/>
<path d="M70.7799 52.8145H68.3193V57.6538H70.7799V52.8145Z" fill="#D8CCBC"/>
<path d="M60.6091 49.6782H23.2912H11.7997C11.1701 49.6782 10.6597 50.1886 10.6597 50.8183V52.9675C10.6597 53.5972 11.1701 54.1076 11.7997 54.1076H23.2912H60.6089H72.1004C72.73 54.1076 73.2404 53.597 73.2404 52.9675V50.8183C73.2404 50.1886 72.73 49.6782 72.1004 49.6782H60.6091Z" fill="#EBE4DD"/>
<path d="M30.7428 52.9675V50.8183C30.7428 50.1886 31.2533 49.6782 31.8828 49.6782H23.291H11.7997C11.1701 49.6782 10.6597 50.1886 10.6597 50.8183V52.9675C10.6597 53.5972 11.1702 54.1076 11.7997 54.1076H23.2912H31.883C31.2533 54.1074 30.7428 53.597 30.7428 52.9675Z" fill="#D8CCBC"/>
<path d="M48.6928 16.6421H35.3065C28.3337 19.8405 23.3862 27.8881 23.3862 37.3119H60.6134C60.6131 27.8879 55.6654 19.8403 48.6928 16.6421Z" fill="#D8CCBC"/>
<path d="M41.6344 16.6421H35.3062C28.3334 19.8405 23.3857 27.8881 23.3857 37.3119H31.7296C31.7296 27.8879 35.8409 19.8403 41.6344 16.6421Z" fill="#BFA993"/>
<path d="M61.4316 38.5422H22.5677C21.888 38.5422 21.3374 37.9914 21.3374 37.3119C21.3374 36.6323 21.8882 36.0815 22.5677 36.0815H61.4317C62.1115 36.0815 62.6621 36.6323 62.6621 37.3119C62.6621 37.9912 62.1113 38.5422 61.4316 38.5422Z" fill="#EBE4DD"/>
<path d="M30.6849 37.3114C30.6849 36.6316 31.2356 36.0811 31.9152 36.0811H22.5677C21.888 36.0811 21.3374 36.6318 21.3374 37.3114C21.3374 37.9909 21.8882 38.5417 22.5677 38.5417H31.9152C31.2356 38.5418 30.6849 37.9909 30.6849 37.3114Z" fill="#D8CCBC"/>
<path d="M46.1491 13.6687C45.7896 13.2313 45.2533 12.978 44.6871 12.978H41.9497H39.2642C38.6652 12.978 38.0978 13.2461 37.7174 13.7089L35.3062 16.642H41.9495H48.5931L46.1491 13.6687Z" fill="#BFA993"/>
<path d="M42.5077 12.978H41.9495H39.264C38.665 12.978 38.0975 13.2461 37.7172 13.7089L35.3062 16.6419H41.6344L42.1664 13.7089C42.2504 13.2463 42.3755 12.978 42.5077 12.978Z" fill="#AA927D"/>
<path d="M41.9749 0C41.2952 0 40.7446 0.550923 40.7446 1.23031V2.46061V5.76369V6.994H43.2052V5.76369V2.46061V1.23031C43.2052 0.550923 42.6543 0 41.9749 0Z" fill="#EBE4DD"/>
<path d="M43.2037 6.70703H40.7454C39.9339 7.14934 39.3828 8.00887 39.3828 8.99833V12.9782H41.9568H41.9919H44.566V8.99817C44.5664 8.00887 44.0151 7.14902 43.2037 6.70703Z" fill="#D8CCBC"/>
<path d="M43.2704 6.74624C43.2481 6.73328 43.2265 6.71934 43.2037 6.70703H40.7454C39.9339 7.14934 39.3828 8.00887 39.3828 8.99833V12.9782H41.9568H41.9743V8.99817C41.9747 8.03643 42.4959 7.1984 43.2704 6.74624Z" fill="#BFA993"/>
<path d="M28.2244 40.543C27.5449 40.543 26.9941 41.0939 26.9941 41.7733V47.1132C26.9941 47.7927 27.5451 48.3435 28.2244 48.3435C28.9038 48.3435 29.4548 47.7926 29.4548 47.1132V41.7733C29.4549 41.0939 28.904 40.543 28.2244 40.543Z" fill="#D8CCBC"/>
<path d="M35.1121 40.543C34.4326 40.543 33.8818 41.0939 33.8818 41.7733V47.1132C33.8818 47.7927 34.4328 48.3435 35.1121 48.3435C35.7915 48.3435 36.3424 47.7926 36.3424 47.1132V41.7733C36.3424 41.0939 35.7917 40.543 35.1121 40.543Z" fill="#D8CCBC"/>
<path d="M41.9993 40.543C41.3198 40.543 40.769 41.0939 40.769 41.7733V47.1132C40.769 47.7927 41.32 48.3435 41.9993 48.3435C42.6787 48.3435 43.2297 47.7926 43.2297 47.1132V41.7733C43.2297 41.0939 42.6787 40.543 41.9993 40.543Z" fill="#D8CCBC"/>
<path d="M48.8866 40.543C48.207 40.543 47.6562 41.0939 47.6562 41.7733V47.1132C47.6562 47.7927 48.2072 48.3435 48.8866 48.3435C49.5663 48.3435 50.1169 47.7926 50.1169 47.1132V41.7733C50.117 41.0939 49.5663 40.543 48.8866 40.543Z" fill="#D8CCBC"/>
<path d="M55.7743 40.543C55.0947 40.543 54.5439 41.0939 54.5439 41.7733V47.1132C54.5439 47.7927 55.0949 48.3435 55.7743 48.3435C56.4538 48.3435 57.0046 47.7926 57.0046 47.1132V41.7733C57.0046 41.0939 56.4538 40.543 55.7743 40.543Z" fill="#D8CCBC"/>
<path d="M28.2244 30.75C27.5449 30.75 26.9941 31.3009 26.9941 31.9803V33.0549C26.9941 33.7345 27.5451 34.2852 28.2244 34.2852C28.9038 34.2852 29.4548 33.7343 29.4548 33.0549V31.9803C29.4549 31.3006 28.904 30.75 28.2244 30.75Z" fill="#AA927D"/>
<path d="M35.1121 30.75C34.4326 30.75 33.8818 31.3009 33.8818 31.9803V33.0549C33.8818 33.7345 34.4328 34.2852 35.1121 34.2852C35.7915 34.2852 36.3424 33.7343 36.3424 33.0549V31.9803C36.3424 31.3006 35.7917 30.75 35.1121 30.75Z" fill="#BFA993"/>
<path d="M41.9998 30.75C41.3203 30.75 40.7695 31.3009 40.7695 31.9803V33.0549C40.7695 33.7345 41.3205 34.2852 41.9998 34.2852C42.6792 34.2852 43.2301 33.7343 43.2301 33.0549V31.9803C43.2301 31.3006 42.6792 30.75 41.9998 30.75Z" fill="#BFA993"/>
<path d="M48.887 30.75C48.2075 30.75 47.6567 31.3009 47.6567 31.9803V33.0549C47.6567 33.7345 48.2077 34.2852 48.887 34.2852C49.5668 34.2852 50.1174 33.7343 50.1174 33.0549V31.9803C50.1175 31.3006 49.5668 30.75 48.887 30.75Z" fill="#BFA993"/>
<path d="M55.7747 30.75C55.0952 30.75 54.5444 31.3009 54.5444 31.9803V33.0549C54.5444 33.7345 55.0954 34.2852 55.7747 34.2852C56.4543 34.2852 57.005 33.7343 57.005 33.0549V31.9803C57.005 31.3006 56.4543 30.75 55.7747 30.75Z" fill="#BFA993"/>
<path d="M72.1003 69.8555H60.6089H23.291H11.7995C11.4514 69.8555 11.14 70.012 10.9312 70.2581C12.2432 71.6981 13.6523 73.0427 15.1463 74.2847C16.7383 74.2847 67.2772 74.2847 68.8648 74.2847C70.3394 73.0552 71.7238 71.7269 73.0125 70.3139C72.8045 70.0361 72.474 69.8555 72.1003 69.8555Z" fill="#EBE4DD"/>
<path d="M31.8826 74.2847C31.253 74.2847 30.7426 73.7741 30.7426 73.1446V70.9955C30.7426 70.3659 31.2531 69.8555 31.8826 69.8555H23.2908H11.7995C11.4514 69.8555 11.14 70.012 10.9312 70.2581C12.2432 71.6981 13.6523 73.0427 15.1463 74.2847C17.0499 74.2847 29.792 74.2847 31.8826 74.2847Z" fill="#D8CCBC"/>
<path d="M15.146 74.2847C17.1564 75.9561 19.3204 77.4399 21.6099 78.7139C25.8818 78.7139 57.6522 78.7139 62.4066 78.7139C64.7067 77.4343 66.8673 75.9497 68.8646 74.2847C67.2756 74.2847 16.7351 74.2847 15.146 74.2847Z" fill="#D8CCBC"/>
<path d="M31.8829 78.7139C31.2532 78.7139 30.7428 78.2033 30.7428 77.5738V75.4247C30.7428 74.7951 31.2534 74.2847 31.8829 74.2847C29.7924 74.2847 17.0517 74.2847 15.1465 74.2847C17.1569 75.9561 19.3209 77.4399 21.6104 78.7139C23.6779 78.7139 28.3294 78.7139 31.8829 78.7139Z" fill="#BFA993"/>
<path d="M21.6104 78.7139C29.1504 82.9091 38.045 84.8287 47.2619 83.6646C52.749 82.9716 57.853 81.2473 62.4072 78.7139C57.6596 78.7139 25.9163 78.7139 21.6104 78.7139Z" fill="#BFA993"/>
<path d="M31.8825 78.7139C28.3031 78.7139 23.6659 78.7139 21.6099 78.7139C24.4772 80.3094 27.5396 81.5764 30.7423 82.4689V80.2703C30.7424 79.4108 31.253 78.7139 31.8825 78.7139Z" fill="#AA927D"/>
</g>
<defs>
<clipPath id="clip0_141_979">
<rect width="84" height="84" fill="white"/>
</clipPath>
</defs>
</svg>
