<svg width="44" height="22" viewBox="0 0 44 22" fill="none" xmlns="http://www.w3.org/2000/svg">
<path d="M43.9656 3.32064C43.6699 1.81906 41.4149 0.818005 40.5417 0.553838H40.5348C40.528 0.553838 40.5211 0.546886 40.5211 0.546886C38.1491 -0.169145 34.409 -0.537588 30.0844 1.75649L28.4138 2.52118L20.4866 0.887522C20.3353 0.859715 20.1841 0.88057 20.0466 0.950088L16.1346 3.00781C15.9077 3.12599 15.7702 3.3693 15.777 3.62651C15.7839 3.88373 15.9352 4.11314 16.1689 4.22436L20.4728 6.1639L11.2119 10.4045L4.70788 7.00507C4.51538 6.90774 4.28849 6.90774 4.10286 7.00507L0.362725 8.92375C0.163342 9.02803 0.0327125 9.21572 0.00521145 9.43818C-0.0222896 9.66064 0.0602135 9.88309 0.22522 10.0291L4.92789 14.1862C5.2579 14.4782 5.53979 14.8536 5.79417 15.3402C6.07606 15.8686 7.07985 17.4327 9.2318 17.4327C9.52056 17.4327 9.83682 17.4049 10.1668 17.3423C10.2218 17.3354 15.1033 16.814 20.3353 15.5627L17.8396 21.0407C17.7227 21.2979 17.7777 21.6037 17.9771 21.8053C18.1078 21.9305 18.2728 22 18.4446 22C18.5409 22 18.6371 21.9791 18.7334 21.9305L24.1236 19.3166C24.2474 19.2541 24.3505 19.1637 24.4192 19.0386L27.6781 13.1852C28.1044 12.9836 28.7369 12.6916 29.5344 12.3301C33.5977 10.4809 41.1605 7.03287 43.2024 5.142C44 4.48158 44.0618 3.7864 43.9656 3.32064ZM17.9771 3.557L20.4522 2.25702L26.3443 3.47358L22.1023 5.42007L17.9771 3.557ZM4.3985 8.35371L6.49545 9.45208L3.30533 10.9537L1.84778 9.66759L4.3985 8.35371ZM23.3604 18.1835L19.8266 19.9006L23.8005 11.1761L28.4481 9.04888L23.3604 18.1835ZM42.3361 4.11314C40.4248 5.87888 32.7039 9.40342 28.9913 11.0927C28.9225 11.1275 28.8606 11.1553 28.7919 11.1831L30.6138 7.91575C30.7582 7.65853 30.717 7.3457 30.5245 7.1302C30.332 6.91469 30.0226 6.85213 29.7544 6.97031L23.0236 10.0499C22.8792 10.1195 22.7623 10.2376 22.6935 10.3836L21.0504 13.9846C15.5502 15.3889 10.0912 15.9798 9.9812 15.9937C8.13864 16.3413 7.30673 15.3333 6.97672 14.7007C6.64671 14.068 6.26169 13.5675 5.80792 13.1643L4.40537 11.9269L7.99426 10.2376L10.8887 11.7531C11.0675 11.8504 11.2875 11.8504 11.4731 11.767L30.6757 2.9661C33.6527 1.38805 36.2997 1.1795 38.3347 1.45061L36.1965 2.53509C35.8665 2.70193 35.7359 3.10513 35.9009 3.43882C36.0178 3.67518 36.2515 3.81421 36.4991 3.81421C36.6022 3.81421 36.6984 3.79336 36.7947 3.74469L40.3836 1.93028C41.3874 2.29178 42.5562 3.05647 42.6662 3.59871C42.673 3.64042 42.7005 3.80726 42.3361 4.11314Z" fill="#858585"/>
</svg>
